<?xml version="1.0" encoding="utf-8"?>
<!-- Generator: Adobe Illustrator 16.0.0, SVG Export Plug-In . SVG Version: 6.00 Build 0)  -->
<!DOCTYPE svg PUBLIC "-//W3C//DTD SVG 1.1//EN" "http://www.w3.org/Graphics/SVG/1.1/DTD/svg11.dtd">
<svg version="1.1" id="图层_1" xmlns="http://www.w3.org/2000/svg" xmlns:xlink="http://www.w3.org/1999/xlink" x="0px" y="0px"
	 width="300px" height="300px" viewBox="0 0 300 300" enable-background="new 0 0 300 300" xml:space="preserve">
<g>
	<g>
		<path fill-rule="evenodd" clip-rule="evenodd" d="M276.071,290.023H297l-13.952-76.737l-95.593-50.982
			c15.59-15.229,25.725-39.835,25.831-67.613c0.231-59.529-28.109-83.714-62.786-83.714S87.714,33.438,87.714,94.69
			c0,25.438,8.522,48.211,21.955,63.565l-91.717,55.03L4,290.023h20.929l13.318-66.59l86.916-52.15
			c7.751,4.566,16.319,7.121,25.338,7.121c6.768,0,13.271-1.444,19.369-4.086l92.979,49.588L276.071,290.023z M108.643,94.69
			c0.272-47.464,17.583-62.786,41.857-62.786s41.585,15.635,41.857,62.786c0.197,34.677-17.584,62.786-41.857,62.786
			S108.445,129.367,108.643,94.69z"/>
	</g>
</g>
</svg>
