<?xml version="1.0" encoding="utf-8"?>
<!-- Generator: Adobe Illustrator 16.0.0, SVG Export Plug-In . SVG Version: 6.00 Build 0)  -->
<!DOCTYPE svg PUBLIC "-//W3C//DTD SVG 1.1//EN" "http://www.w3.org/Graphics/SVG/1.1/DTD/svg11.dtd">
<svg version="1.1" id="图层_1" xmlns="http://www.w3.org/2000/svg" xmlns:xlink="http://www.w3.org/1999/xlink" x="0px" y="0px"
	 width="300px" height="300px" viewBox="0 0 300 300" enable-background="new 0 0 300 300" xml:space="preserve">
<g>
	<g>
		<path fill-rule="evenodd" clip-rule="evenodd" d="M282.891,137.726C279.403,63.864,218.588,4.999,143.864,4.999
			C66.894,4.999,4.5,67.396,4.5,144.363c0,74.73,58.862,135.546,132.727,139.033v13.604h19.91v-0.047
			c72.69-1.92,137.393-66.62,139.316-139.311h0.047v-19.916H282.891z M24.409,144.363c0-65.968,53.479-119.455,119.455-119.455
			c63.732,0,115.657,49.954,119.118,112.818H137.227v125.76C74.36,260.02,24.409,208.095,24.409,144.363z M157.137,277.033V157.642
			h119.397C274.591,219.365,218.86,275.094,157.137,277.033z"/>
	</g>
</g>
</svg>
