<?xml version="1.0" encoding="utf-8"?>
<!-- Generator: Adobe Illustrator 16.0.0, SVG Export Plug-In . SVG Version: 6.00 Build 0)  -->
<!DOCTYPE svg PUBLIC "-//W3C//DTD SVG 1.1//EN" "http://www.w3.org/Graphics/SVG/1.1/DTD/svg11.dtd">
<svg version="1.1" id="图层_1" xmlns="http://www.w3.org/2000/svg" xmlns:xlink="http://www.w3.org/1999/xlink" x="0px" y="0px"
	 width="300px" height="300px" viewBox="0 0 300 300" enable-background="new 0 0 300 300" xml:space="preserve">
<path fill-rule="evenodd" clip-rule="evenodd" d="M150.5,300.5c-44.252,0-83.894-19.341-111.268-49.899l11.426-10.804
	c24.5,27.531,60.093,44.967,99.842,44.967c73.874,0,133.763-59.89,133.763-133.764S224.374,17.237,150.5,17.237
	S16.737,77.126,16.737,151c0,14.101,2.259,27.647,6.324,40.402l66.997-59.29l1.168,1.322l1.245-1.368l46.796,47.026l65.529-59.566
	h-30.689V103.79h39.342h15.737v15.737v39.342h-15.737v-24.393l-70.816,63.735l-6.293-3.15l-1.575,3.15l-7.415-7.639l-0.454-0.23
	l0.123-0.115l-36.441-37.56l-65.971,58.376l-1.879-2.121l-7.427,5.563C6.221,195.198,1,173.729,1,151C1,68.432,67.936,1.5,150.5,1.5
	S300,68.432,300,151C300,233.564,233.064,300.5,150.5,300.5z"/>
</svg>
