<?xml version="1.0" encoding="utf-8"?>
<!-- Generator: Adobe Illustrator 16.0.0, SVG Export Plug-In . SVG Version: 6.00 Build 0)  -->
<!DOCTYPE svg PUBLIC "-//W3C//DTD SVG 1.1//EN" "http://www.w3.org/Graphics/SVG/1.1/DTD/svg11.dtd">
<svg version="1.1" id="图层_1" xmlns="http://www.w3.org/2000/svg" xmlns:xlink="http://www.w3.org/1999/xlink" x="0px" y="0px"
	 width="300px" height="300px" viewBox="0 0 300 300" enable-background="new 0 0 300 300" xml:space="preserve">
<g>
	<g>
		<path fill-rule="evenodd" clip-rule="evenodd" d="M298.343,151.003c0-21.489-17.416-38.906-38.905-38.906h7.781V42.063
			c0-8.594-6.969-15.563-15.563-15.563H18.219c-8.594,0-15.563,6.968-15.563,15.563V259.94c0,8.587,6.968,15.563,15.563,15.563
			h233.437c8.594,0,15.563-6.976,15.563-15.563V189.13C284.979,185.525,298.343,169.828,298.343,151.003z M243.875,259.94H26
			c-8.594,0-7.781-6.976-7.781-15.563V57.625c0-8.594-0.813-15.563,7.781-15.563h217.875c8.594,0,7.781,6.968,7.781,15.563v54.472
			h-46.688c-21.489,0-38.906,17.417-38.906,38.906c0,21.49,17.417,38.906,38.906,38.906h46.688v54.469
			C251.656,252.965,252.469,259.94,243.875,259.94z M259.438,174.347h-54.469c-12.888,0-23.344-10.456-23.344-23.344
			c0-12.895,10.456-23.343,23.344-23.343h54.469c12.888,0,23.344,10.448,23.344,23.343
			C282.781,163.891,272.325,174.347,259.438,174.347z"/>
	</g>
</g>
</svg>
