<?xml version="1.0" encoding="utf-8"?>
<!-- Generator: Adobe Illustrator 16.0.0, SVG Export Plug-In . SVG Version: 6.00 Build 0)  -->
<!DOCTYPE svg PUBLIC "-//W3C//DTD SVG 1.1//EN" "http://www.w3.org/Graphics/SVG/1.1/DTD/svg11.dtd">
<svg version="1.1" id="图层_1" xmlns="http://www.w3.org/2000/svg" xmlns:xlink="http://www.w3.org/1999/xlink" x="0px" y="0px"
	 width="300px" height="300px" viewBox="0 0 300 300" enable-background="new 0 0 300 300" xml:space="preserve">
<g>
	<g>
		<path fill-rule="evenodd" clip-rule="evenodd" d="M280.277,60.778h-29.534c0.079-0.186,0.167-0.367,0.243-0.555
			c2.083-5.077,3.137-10.765,3.137-16.903c0-10.234-3.279-19.66-9.229-26.551c-3.509-4.063-7.865-7.216-12.975-9.371
			C226.573,5.141,220.419,4,213.631,4c-15.858,0-23.827,7.185-39.669,21.371c-9.156,8.206-17.015,17.695-23.074,25.997
			c-1.952-2.646-3.968-5.236-6.027-7.755c-5.671-6.915-11.545-13.069-17.47-18.29C111.319,11.176,103.235,4,87.366,4
			c-6.785,0-12.939,1.141-18.29,3.398c-5.105,2.155-9.47,5.307-12.971,9.371c-5.953,6.892-9.228,16.317-9.228,26.551
			c0,6.356,1.155,12.234,3.432,17.458H20.722C11.764,60.778,4.5,68.042,4.5,77v81.111h16.222v121.666
			c0,8.959,7.264,16.223,16.222,16.223h227.111c8.959,0,16.222-7.264,16.222-16.223V158.111H296.5V77
			C296.5,68.042,289.236,60.778,280.277,60.778z M184.196,37.039c12.935-11.573,17.458-17.442,29.435-17.442
			c8.776,0,15.382,2.495,19.636,7.422c3.493,4.047,5.426,9.838,5.426,16.301c0,6.669-3.596,13.085-7.081,17.458h-73
			C164.085,53.324,176.18,44.231,184.196,37.039z M62.308,43.32c0-6.463,1.929-12.254,5.426-16.301
			c4.253-4.927,10.856-7.422,19.632-7.422c6.281,0,4.741,1.631,11.418,4.855c6.048,2.915,12.262,7.168,18.468,12.634
			c8.456,7.446,19.902,16.658,25.137,23.692h-73C65.409,56.279,62.308,50.306,62.308,43.32z M264.056,271.667
			c0,4.475-3.628,8.11-8.111,8.11H45.056c-4.479,0-8.111-3.636-8.111-8.11V158.111h227.111V271.667z M280.277,141.889H20.722V85.111
			c0-4.483,3.632-8.111,8.111-8.111h243.333c4.483,0,8.11,3.628,8.11,8.111V141.889z"/>
	</g>
</g>
</svg>
