<?xml version="1.0" encoding="utf-8"?>
<!-- Generator: Adobe Illustrator 16.0.0, SVG Export Plug-In . SVG Version: 6.00 Build 0)  -->
<!DOCTYPE svg PUBLIC "-//W3C//DTD SVG 1.1//EN" "http://www.w3.org/Graphics/SVG/1.1/DTD/svg11.dtd">
<svg version="1.1" id="图层_1" xmlns="http://www.w3.org/2000/svg" xmlns:xlink="http://www.w3.org/1999/xlink" x="0px" y="0px"
	 width="300px" height="300px" viewBox="0 0 300 300" enable-background="new 0 0 300 300" xml:space="preserve">
<path fill-rule="evenodd" clip-rule="evenodd" d="M275.107,146.549c0.031,17.35,7.107,30.751,19.927,42.677
	c2.273,2.106,3.079,5.329,2.073,8.24c-6.804,19.528-17.118,40.109-30.695,55.768c-2.034,2.321-5.217,3.263-8.185,2.338
	c-16.775-5.113-26.148-3.167-41.21,5.488c-15.076,8.655-25.526,14.622-29.451,31.645c-0.502,2.146-1.858,3.933-3.701,4.978
	c-0.75,0.439-1.563,0.742-2.44,0.91c-20.43,3.86-41.114,3.829-61.496-0.072c-3.043-0.599-5.448-2.903-6.15-5.903
	c-3.957-17.022-14.451-23.014-29.547-31.708c-15.101-8.695-24.494-10.674-41.27-5.568c-2.967,0.894-6.182-0.032-8.205-2.377
	c-6.908-7.978-12.955-16.417-17.964-25.048c-5.013-8.64-9.325-18.061-12.819-28.008c-1.021-2.912-0.228-6.158,2.038-8.257
	c12.827-11.901,19.887-28.023,19.867-45.397c-0.016-17.35-7.091-25.303-19.927-37.229c-2.265-2.106-3.067-5.337-2.054-8.24
	c6.769-19.536,17.106-37.381,30.684-53.048c2.018-2.337,5.229-3.254,8.185-2.345c16.771,5.129,26.137,3.167,41.213-5.472
	c15.061-8.671,25.522-14.638,29.456-31.645c0.69-3.015,3.099-5.321,6.13-5.887c20.441-3.876,41.126-3.845,61.507,0.064
	c3.031,0.583,5.44,2.888,6.143,5.895c3.973,17.023,14.462,23.014,29.547,31.717c15.101,8.695,24.506,10.682,41.281,5.56
	c2.96-0.894,6.183,0.04,8.2,2.377c6.925,8.009,12.971,16.433,17.973,25.048c4.994,8.623,9.31,18.044,12.812,28.016
	c1.021,2.919,0.231,6.15-2.034,8.248C282.143,121.214,275.091,129.184,275.107,146.549z M267.13,82.637
	c-3.741-6.461-5.927-11.91-10.904-18.028c-19.233,4.451-32.81,2.872-49.929-6.98c-17.103-9.852-27.186-17.374-32.93-36.184
	c-15.284-2.433-30.731-1.979-46.059,0.415c-5.712,19.001-15.488,24.761-32.838,34.724c-17.071,9.812-29.723,11.359-48.943,6.868
	c-9.744,12.006-16.113,23.509-21.658,37.915c13.505,14.351,20.721,24.801,20.741,44.448c0.024,19.68-6.717,38.753-20.21,53.071
	c2.832,7.363,6.158,13.881,9.916,20.357c3.757,6.47,5.037,8.265,10.019,14.383c19.225-4.451,31.465-0.598,48.581,9.27
	c17.358,9.995,28.968,17.15,34.72,36.168c15.288,2.425,30.744,1.994,46.067-0.398c5.712-18.811,17.98-24.921,35.052-34.732
	c17.342-9.964,28.207-12.372,47.615-7.786c9.724-11.997,14.766-26.236,20.302-40.627c-13.497-14.358-18.93-29.34-18.954-48.987
	c-0.031-19.68,4.938-30.568,18.443-44.919C273.32,94.252,270.879,89.099,267.13,82.637z M150.505,203.713
	c-27.07,0-49.011-21.944-49.011-49.011s21.941-49.011,49.011-49.011c27.066,0,49.012,21.945,49.012,49.011
	S177.571,203.713,150.505,203.713z M150.505,122.028c-18.044,0-32.674,14.63-32.674,32.674c0,18.044,14.63,32.674,32.674,32.674
	c18.045,0,32.675-14.63,32.675-32.674C183.18,136.658,168.55,122.028,150.505,122.028z"/>
</svg>
