<?xml version="1.0" encoding="utf-8"?>
<!-- Generator: Adobe Illustrator 16.0.0, SVG Export Plug-In . SVG Version: 6.00 Build 0)  -->
<!DOCTYPE svg PUBLIC "-//W3C//DTD SVG 1.1//EN" "http://www.w3.org/Graphics/SVG/1.1/DTD/svg11.dtd">
<svg version="1.1" id="图层_1" xmlns="http://www.w3.org/2000/svg" xmlns:xlink="http://www.w3.org/1999/xlink" x="0px" y="0px"
	 width="300px" height="300px" viewBox="0 0 300 300" enable-background="new 0 0 300 300" xml:space="preserve">
<g>
	<g>
		<path fill-rule="evenodd" clip-rule="evenodd" d="M151,1.5C68.709,1.5,2,68.213,2,150.5c0,82.287,66.709,149,149,149
			c82.287,0,149-66.713,149-149C300,68.213,233.287,1.5,151,1.5z M151,283.392c-73.395,0-132.892-59.501-132.892-132.892
			C18.108,77.101,77.605,17.608,151,17.608c73.398,0,132.892,59.493,132.892,132.892C283.892,223.891,224.398,283.392,151,283.392z
			 M155.027,73.986c-4.452,0-8.054,3.603-8.054,8.054v8.054c0,4.444,3.602,8.054,8.054,8.054c4.451,0,8.054-3.61,8.054-8.054v-8.054
			C163.081,77.589,159.479,73.986,155.027,73.986z M155.027,114.257c-4.452,0-8.054,3.602-8.054,8.054v104.703
			c0,4.443,3.602,8.054,8.054,8.054c4.451,0,8.054-3.61,8.054-8.054V122.311C163.081,117.859,159.479,114.257,155.027,114.257z"/>
	</g>
</g>
</svg>
