<?xml version="1.0" encoding="utf-8"?>
<!-- Generator: Adobe Illustrator 16.0.0, SVG Export Plug-In . SVG Version: 6.00 Build 0)  -->
<!DOCTYPE svg PUBLIC "-//W3C//DTD SVG 1.1//EN" "http://www.w3.org/Graphics/SVG/1.1/DTD/svg11.dtd">
<svg version="1.1" id="图层_1" xmlns="http://www.w3.org/2000/svg" xmlns:xlink="http://www.w3.org/1999/xlink" x="0px" y="0px"
	 width="300px" height="300px" viewBox="0 0 300 300" enable-background="new 0 0 300 300" xml:space="preserve">
<path fill-rule="evenodd" clip-rule="evenodd" d="M252.789,261.158L252.789,261.158C252.39,261.166,253.196,261.158,252.789,261.158
	h-47.21c-0.691,23.62-25.242,39.272-54.326,39.272c-0.115,0-0.23-0.022-0.354-0.022c-0.392,0-0.761,0.092-1.16,0.092
	c-29.103,0-53.669-15.69-54.318-39.342H48.21c-18.353,0-31.474-10.996-31.474-30.629c0-18.441,21.215-25.05,23.605-55.924v-39.342
	c0-50.549,36.902-90.364,82.91-102.328v-0.604c0-16.993,11.918-30.771,26.625-30.771c0.119,0,0.23,0.039,0.35,0.042
	c0.303-0.011,0.588-0.104,0.895-0.104c14.707,0,26.625,13.773,26.625,30.767v0.607c46.013,11.964,82.911,51.84,82.911,102.389
	v39.342c2.39,30.874,23.604,37.421,23.604,55.854C284.263,250.101,271.139,261.158,252.789,261.158z M137.71,32.939v12.002
	c-45.182,6.708-81.631,49.673-81.631,98.19v23.605l0,0v15.736c-5.89,31.612-24.451,37.852-24.635,46.78v2.513
	c-0.126,6.063,3.55,12.095,8.898,13.654c0.292,0.077-0.292-0.062,0,0c0.369,0.093-0.365-0.076,0,0c1.921,0.354,0.561,0,7.868,0l0,0
	c0.427-0.022-0.361,0.046,0,0h204.579c2.598,0,7.815-0.054,7.869,0c0.307-0.107-0.3,0.123,0,0c0.307-0.107-0.3,0.123,0,0
	c4.088-1.875,8.998-8.736,8.897-13.593l0,0v-2.513c-0.185-8.929-18.749-15.229-24.635-46.842v-15.736l0,0v-23.605
	c0-48.517-36.453-91.417-81.635-98.125V33c0-9.286-5.748-16.747-12.909-17.055C143.342,16.422,137.71,23.765,137.71,32.939z
	 M189.842,261.158C189.842,260.989,190.088,265.507,189.842,261.158h-78.684c-0.004,3.342,0-0.154,0,0
	c0,15.275,17.85,24.75,39.803,24.881C172.477,285.57,189.842,276.211,189.842,261.158z"/>
</svg>
