<?xml version="1.0" encoding="utf-8"?>
<!-- Generator: Adobe Illustrator 16.0.0, SVG Export Plug-In . SVG Version: 6.00 Build 0)  -->
<!DOCTYPE svg PUBLIC "-//W3C//DTD SVG 1.1//EN" "http://www.w3.org/Graphics/SVG/1.1/DTD/svg11.dtd">
<svg version="1.1" id="图层_1" xmlns="http://www.w3.org/2000/svg" xmlns:xlink="http://www.w3.org/1999/xlink" x="0px" y="0px"
	 width="300px" height="300px" viewBox="0 0 300 300" enable-background="new 0 0 300 300" xml:space="preserve">
<g>
	<g>
		<path fill-rule="evenodd" clip-rule="evenodd" d="M294.766,148.372c-0.556-0.915-13.877-22.621-38.323-44.596
			c-14.399-12.95-29.689-23.278-45.429-30.703C191.206,63.733,170.64,59,149.877,59c-22.788,0-44.612,4.725-64.876,14.053
			c-16.164,7.445-31.348,17.806-45.144,30.805C16.433,125.943,5.251,147.8,4.785,148.723l-1.151,2.279l1.151,2.271
			c0.466,0.923,11.647,22.78,35.072,44.874c13.795,12.994,28.979,23.359,45.144,30.801c20.264,9.327,42.088,14.057,64.868,14.057
			c20.763,0,41.337-4.737,61.145-14.082c15.739-7.416,31.029-17.748,45.429-30.694c24.446-21.987,37.768-43.689,38.323-44.604
			l1.601-2.622L294.766,148.372z M249.304,190.885c-21.334,19.129-55.908,41.934-99.435,41.934
			c-38.568,0-73.109-14.064-102.652-41.811c-17.977-16.875-28.546-33.979-31.985-40.006c3.447-6.044,14.008-23.14,31.985-40.018
			c29.543-27.738,64.084-41.807,102.652-41.807c43.526,0,78.101,22.808,99.435,41.937c18.59,16.667,30.687,33.541,34.941,39.888
			C279.99,157.348,267.894,174.215,249.304,190.885z M146.937,82.486c-17.789,0-34.517,6.857-47.095,19.313
			c-12.586,12.447-19.513,29.003-19.513,46.613c0,17.618,6.926,34.166,19.513,46.622c12.578,12.456,29.306,19.309,47.095,19.309
			c17.79,0,34.517-6.853,47.095-19.309c12.587-12.456,19.513-29.004,19.513-46.622c0-17.61-6.926-34.166-19.513-46.613
			C181.454,89.343,164.727,82.486,146.937,82.486z M146.937,204.157c-31.054,0-56.317-25.01-56.317-55.745
			c0-30.735,25.263-55.741,56.317-55.741c31.054,0,56.317,25.005,56.317,55.741C203.254,179.147,177.991,204.157,146.937,204.157z"
			/>
	</g>
</g>
</svg>
