<?xml version="1.0" encoding="utf-8"?>
<!-- Generator: Adobe Illustrator 16.0.0, SVG Export Plug-In . SVG Version: 6.00 Build 0)  -->
<!DOCTYPE svg PUBLIC "-//W3C//DTD SVG 1.1//EN" "http://www.w3.org/Graphics/SVG/1.1/DTD/svg11.dtd">
<svg version="1.1" id="图层_1" xmlns="http://www.w3.org/2000/svg" xmlns:xlink="http://www.w3.org/1999/xlink" x="0px" y="0px"
	 width="300px" height="300px" viewBox="0 0 300 300" enable-background="new 0 0 300 300" xml:space="preserve">
<path fill-rule="evenodd" clip-rule="evenodd" d="M299.082,145.632l-17.351-23.322c5.041-3.887,10.05-8.002,15.026-12.346
	c2.749-2.402,3.018-6.566,0.604-9.303c-2.415-2.733-6.607-3.002-9.365-0.6c-34.04,29.733-69.622,48.254-105.751,55.034
	c-28.771,5.408-58.056,3.434-87.022-5.861c-25.965-8.333-46.905-21.127-59.899-30.398c-14.03-10.005-22.082-18.178-22.302-18.403
	c-2.545-2.619-6.746-2.692-9.381-0.163c-2.635,2.533-2.708,6.706-0.164,9.324c0.302,0.31,6.55,6.697,17.799,15.287L5.656,144.93
	c-2.243,2.88-1.713,7.015,1.183,9.25c1.216,0.93,2.643,1.379,4.063,1.379c1.974,0,3.94-0.881,5.245-2.554l15.874-20.381
	c11.657,7.921,27.857,17.428,47.345,24.981l-10.523,22.58c-1.542,3.295-0.09,7.219,3.23,8.753c0.905,0.416,1.852,0.611,2.781,0.611
	c2.504,0,4.903-1.419,6.02-3.826l11.045-23.696c17.195,5.44,34.497,8.483,51.766,9.104v25.108c0,3.638,2.969,6.591,6.632,6.591
	c3.663,0,6.632-2.953,6.632-6.591v-25.093c9.161-0.326,18.313-1.337,27.417-3.034c9.756-1.811,19.455-4.413,29.097-7.798
	l11.633,24.031c1.142,2.365,3.516,3.735,5.979,3.735c0.971,0,1.949-0.212,2.871-0.652c3.304-1.582,4.69-5.514,3.1-8.802
	l-11.191-23.117c15.286-6.478,30.386-14.937,45.224-25.349l17.343,23.309c1.305,1.754,3.312,2.676,5.335,2.676
	c1.37,0,2.757-0.424,3.939-1.297C300.641,152.68,301.26,148.556,299.082,145.632L299.082,145.632z"/>
</svg>
