<?xml version="1.0" encoding="utf-8"?>
<!-- Generator: Adobe Illustrator 16.0.0, SVG Export Plug-In . SVG Version: 6.00 Build 0)  -->
<!DOCTYPE svg PUBLIC "-//W3C//DTD SVG 1.1//EN" "http://www.w3.org/Graphics/SVG/1.1/DTD/svg11.dtd">
<svg version="1.1" id="图层_1" xmlns="http://www.w3.org/2000/svg" xmlns:xlink="http://www.w3.org/1999/xlink" x="0px" y="0px"
	 width="300px" height="300px" viewBox="0 0 300 300" enable-background="new 0 0 300 300" xml:space="preserve">
<g>
	<g>
		<path fill-rule="evenodd" clip-rule="evenodd" d="M262.122,27.419h-39.865V11.473c-0.249-7.039-4.952-7.973-7.973-7.973
			c-3.021,0-8.082,1.931-7.974,7.973v15.946H94.689V11.473c0-7.288-5.061-7.973-7.973-7.973c-3.021,0-8.222,1.931-7.973,7.973
			v15.946H38.878c-16.522,0-23.919,9.304-23.919,23.919v220.775c0,18.103,10.582,26.387,27.111,26.387H258.93
			c16.529,0,27.111-11.882,27.111-26.387V51.338C286.041,36.723,278.644,27.419,262.122,27.419z M270.095,266.608
			c0.436,12.317-8.386,15.51-15.946,15.945H46.852c-8.861,0-15.3-3.301-15.946-15.945V59.311
			c-0.249-12.976,1.783-15.697,15.946-15.946h31.892v7.973c-0.249,5.294,4.952,7.973,7.973,7.973s7.973-1.931,7.973-7.973v-7.973
			h111.622v7.973c0.748,6.042,4.952,7.973,7.974,7.973c3.021,0,8.222-1.682,7.973-7.973v-7.973h31.892
			c15.409,0,15.946,3.967,15.946,15.946V266.608z M214.284,107.148H62.797c-4.407,0-7.973,3.57-7.973,7.973
			c0,4.403,3.566,7.973,7.973,7.973h151.487c4.406,0,7.973-3.57,7.973-7.973C222.257,110.719,218.69,107.148,214.284,107.148z
			 M62.797,170.933h119.594c4.407,0,7.974-3.566,7.974-7.973c0-4.407-3.566-7.974-7.974-7.974H62.797
			c-4.407,0-7.973,3.566-7.973,7.974C54.824,167.366,58.39,170.933,62.797,170.933z M198.338,202.824H62.797
			c-4.407,0-7.973,3.566-7.973,7.973c0,4.407,3.566,7.974,7.973,7.974h135.541c4.407,0,7.973-3.566,7.973-7.974
			C206.311,206.391,202.745,202.824,198.338,202.824z"/>
	</g>
</g>
</svg>
