<?xml version="1.0" encoding="utf-8"?>
<!-- Generator: Adobe Illustrator 16.0.0, SVG Export Plug-In . SVG Version: 6.00 Build 0)  -->
<!DOCTYPE svg PUBLIC "-//W3C//DTD SVG 1.1//EN" "http://www.w3.org/Graphics/SVG/1.1/DTD/svg11.dtd">
<svg version="1.1" id="图层_1" xmlns="http://www.w3.org/2000/svg" xmlns:xlink="http://www.w3.org/1999/xlink" x="0px" y="0px"
	 width="300px" height="300px" viewBox="0 0 300 300" enable-background="new 0 0 300 300" xml:space="preserve">
<g>
	<g>
		<path fill-rule="evenodd" clip-rule="evenodd" d="M32.773,165.655L150.962,31.207l118.296,134.448
			c4.713,4.622,12.436,4.531,17.294-0.2c4.804-4.749,4.912-12.326,0.181-16.948L159.626,5.413c-2.393-2.32-5.511-3.499-8.664-3.408
			c-3.136-0.09-6.254,1.088-8.629,3.408L15.263,148.507c-4.74,4.622-4.613,12.199,0.218,16.948
			C20.266,170.187,28.033,170.277,32.773,165.655z M159.626,135.347c-2.393-2.32-5.511-3.499-8.664-3.408
			c-3.136-0.091-6.254,1.087-8.629,3.408L15.263,278.441c-4.74,4.622-4.613,12.199,0.218,16.948
			c4.786,4.731,12.553,4.822,17.293,0.218l118.188-134.466l118.296,134.466c4.713,4.604,12.436,4.514,17.294-0.218
			c4.804-4.749,4.912-12.326,0.181-16.948L159.626,135.347z"/>
	</g>
</g>
</svg>
