<?xml version="1.0" encoding="utf-8"?>
<!-- Generator: Adobe Illustrator 16.0.0, SVG Export Plug-In . SVG Version: 6.00 Build 0)  -->
<!DOCTYPE svg PUBLIC "-//W3C//DTD SVG 1.1//EN" "http://www.w3.org/Graphics/SVG/1.1/DTD/svg11.dtd">
<svg version="1.1" id="图层_1" xmlns="http://www.w3.org/2000/svg" xmlns:xlink="http://www.w3.org/1999/xlink" x="0px" y="0px"
	 width="300px" height="300px" viewBox="0 0 300 300" enable-background="new 0 0 300 300" xml:space="preserve">
<g>
	<g>
		<path fill-rule="evenodd" clip-rule="evenodd" d="M216.494,115.611l-72.961,73.302l-49.248-43.402
			c-2.368-2.379-6.209-2.379-8.58,0c-2.367,2.38-2.367,6.239,0,8.62l52.626,46.374c0.262,0.459,0.563,0.901,0.953,1.293
			c1.25,1.258,2.909,1.833,4.546,1.763c1.637,0.07,3.295-0.505,4.545-1.763c0.498-0.499,0.866-1.073,1.155-1.675l75.542-75.895
			c2.368-2.378,2.368-6.236,0-8.617S218.862,113.229,216.494,115.611z M150.501,0.999C67.933,0.999,0.999,67.933,0.999,150.501
			c0,82.565,66.935,149.497,149.502,149.497c82.565,0,149.5-66.932,149.5-149.497C300.001,67.933,233.066,0.999,150.501,0.999z
			 M150.501,290.038c-76.339,0-139.534-63.197-139.534-139.534c0-76.338,63.195-139.534,139.534-139.534
			c76.336,0,139.533,63.195,139.533,139.534C290.034,226.841,226.837,290.038,150.501,290.038z"/>
	</g>
</g>
</svg>
