<?xml version="1.0" encoding="utf-8"?>
<!-- Generator: Adobe Illustrator 16.0.0, SVG Export Plug-In . SVG Version: 6.00 Build 0)  -->
<!DOCTYPE svg PUBLIC "-//W3C//DTD SVG 1.1//EN" "http://www.w3.org/Graphics/SVG/1.1/DTD/svg11.dtd">
<svg version="1.1" id="图层_1" xmlns="http://www.w3.org/2000/svg" xmlns:xlink="http://www.w3.org/1999/xlink" x="0px" y="0px"
	 width="300px" height="300px" viewBox="0 0 300 300" enable-background="new 0 0 300 300" xml:space="preserve">
<g>
	<g>
		<path fill-rule="evenodd" clip-rule="evenodd" d="M131.806,192.107l-46.729-60.13L69.5,147.013l62.306,75.167L245,115.445
			l-15.583-15.036L131.806,192.107z M150.5,2C68.485,2,2,68.485,2,150.5C2,232.516,68.485,299,150.5,299
			c82.016,0,148.5-66.484,148.5-148.5C299,68.485,232.516,2,150.5,2z M150.5,285.5c-74.56,0-135-60.434-135-135
			c0-74.56,60.44-135,135-135c74.566,0,135,60.44,135,135C285.5,225.066,225.066,285.5,150.5,285.5z"/>
	</g>
</g>
</svg>
