<?xml version="1.0" encoding="utf-8"?>
<!-- Generator: Adobe Illustrator 16.0.0, SVG Export Plug-In . SVG Version: 6.00 Build 0)  -->
<!DOCTYPE svg PUBLIC "-//W3C//DTD SVG 1.1//EN" "http://www.w3.org/Graphics/SVG/1.1/DTD/svg11.dtd">
<svg version="1.1" id="图层_1" xmlns="http://www.w3.org/2000/svg" xmlns:xlink="http://www.w3.org/1999/xlink" x="0px" y="0px"
	 width="300px" height="300px" viewBox="0 0 300 300" enable-background="new 0 0 300 300" xml:space="preserve">
<path fill-rule="evenodd" clip-rule="evenodd" d="M213.004,230.651c-28.168,36.184-56.738,64.876-57.028,65.156l-3.619,3.629
	l-3.732-3.507c-0.299-0.271-29.501-27.72-58.296-62.688c-39.171-47.564-59.035-76.257-59.035-104.149
	c0-16.427,3.18-32.587,9.45-48.032c6.088-14.987,14.762-28.547,25.788-40.293C77.675,28.885,90.6,19.528,104.937,12.954
	c15.038-6.893,30.951-10.39,47.298-10.39c32.265,0,62.248,12.667,84.422,35.674c21.958,22.772,34.051,53.279,34.051,85.899
	C270.707,151.973,251.292,181.46,213.004,230.651z M152.234,13.183c-59.811,0-110.345,53.078-110.345,115.91
	c0,24.993,19.551,52.367,56.538,97.304c22.361,27.158,44.974,49.726,53.686,58.188c8.501-8.81,30.675-32.377,52.605-60.545
	c36.229-46.573,55.393-74.854,55.393-99.904C260.111,61.917,212.724,13.183,152.234,13.183z M151,174.941
	c-29.09,0-52.671-23.586-52.671-52.671C98.329,93.181,121.91,69.6,151,69.6c29.085,0,52.671,23.581,52.671,52.671
	C203.671,151.355,180.085,174.941,151,174.941z M151,79.176c-23.801,0-43.094,19.293-43.094,43.095
	c0,23.801,19.293,43.095,43.094,43.095c23.801,0,43.095-19.294,43.095-43.095C194.095,98.469,174.801,79.176,151,79.176z"/>
</svg>
