<?xml version="1.0" encoding="utf-8"?>
<!-- Generator: Adobe Illustrator 16.0.0, SVG Export Plug-In . SVG Version: 6.00 Build 0)  -->
<!DOCTYPE svg PUBLIC "-//W3C//DTD SVG 1.1//EN" "http://www.w3.org/Graphics/SVG/1.1/DTD/svg11.dtd">
<svg version="1.1" id="图层_1" xmlns="http://www.w3.org/2000/svg" xmlns:xlink="http://www.w3.org/1999/xlink" x="0px" y="0px"
	 width="300px" height="300px" viewBox="0 0 300 300" enable-background="new 0 0 300 300" xml:space="preserve">
<path fill-rule="evenodd" clip-rule="evenodd" d="M150.5,300C67.935,300,1,233.065,1,150.5C1,67.934,67.935,1,150.5,1
	S300,67.934,300,150.5C300,233.065,233.065,300,150.5,300z M150.5,10.967c-77.062,0-139.533,62.472-139.533,139.533
	c0,77.066,62.472,139.533,139.533,139.533c77.066,0,139.533-62.467,139.533-139.533C290.033,73.438,227.566,10.967,150.5,10.967z
	 M215.283,170.434H135.55c-2.754,0-4.983-2.239-4.983-4.983V65.783c0-2.754,2.229-4.983,4.983-4.983c2.75,0,4.983,2.229,4.983,4.983
	v94.684h74.75c2.755,0,4.983,2.229,4.983,4.983C220.267,168.194,218.038,170.434,215.283,170.434z"/>
</svg>
