<?xml version="1.0" encoding="utf-8"?>
<!-- Generator: Adobe Illustrator 16.0.0, SVG Export Plug-In . SVG Version: 6.00 Build 0)  -->
<!DOCTYPE svg PUBLIC "-//W3C//DTD SVG 1.1//EN" "http://www.w3.org/Graphics/SVG/1.1/DTD/svg11.dtd">
<svg version="1.1" id="图层_1" xmlns="http://www.w3.org/2000/svg" xmlns:xlink="http://www.w3.org/1999/xlink" x="0px" y="0px"
	 width="300px" height="300px" viewBox="0 0 300 300" enable-background="new 0 0 300 300" xml:space="preserve">
<path fill-rule="evenodd" clip-rule="evenodd" d="M243.604,249.276h-72.414c-11.426,0-20.689-9.265-20.689-20.69v-23.559
	c-3.051,1.778-6.557,2.869-10.345,2.869H57.396c-3.788,0-7.294-1.091-10.345-2.869v90.8c0,2.859-2.313,5.173-5.172,5.173
	s-5.172-2.313-5.172-5.173v-108.62V52.724V6.172C36.707,3.313,39.021,1,41.879,1s5.172,2.313,5.172,5.172v28.731
	c3.051-1.778,6.557-2.869,10.345-2.869h82.759c11.426,0,20.689,9.264,20.689,20.689v13.214c3.051-1.778,6.557-2.869,10.345-2.869
	h72.414c11.426,0,20.689,9.264,20.689,20.69v144.827C264.293,240.012,255.029,249.276,243.604,249.276z M150.5,52.724
	c0-5.713-4.627-10.345-10.345-10.345H57.396c-5.718,0-10.345,4.632-10.345,10.345v134.483c0,5.718,4.627,10.345,10.345,10.345
	h82.759c5.708,0,10.345-4.627,10.345-10.345V83.759c0,0,0,0,0-0.005V52.724z M253.948,83.759c0-5.713-4.627-10.345-10.345-10.345
	h-72.414c-5.718,0-10.345,4.632-10.345,10.345v144.827c0,5.718,4.627,10.345,10.345,10.345h72.414
	c5.718,0,10.345-4.627,10.345-10.345V83.759z"/>
</svg>
