<?xml version="1.0" encoding="utf-8"?>
<!-- Generator: Adobe Illustrator 16.0.0, SVG Export Plug-In . SVG Version: 6.00 Build 0)  -->
<!DOCTYPE svg PUBLIC "-//W3C//DTD SVG 1.1//EN" "http://www.w3.org/Graphics/SVG/1.1/DTD/svg11.dtd">
<svg version="1.1" id="图层_1" xmlns="http://www.w3.org/2000/svg" xmlns:xlink="http://www.w3.org/1999/xlink" x="0px" y="0px"
	 width="300px" height="300px" viewBox="0 0 300 300" enable-background="new 0 0 300 300" xml:space="preserve">
<g>
	<g>
		<path fill-rule="evenodd" clip-rule="evenodd" fill="#555555" d="M150.499,0C67.385,0,0,67.377,0,150.507
			c0,83.121,67.385,150.498,150.499,150.498c83.129,0,150.506-67.377,150.506-150.498C301.005,67.377,233.628,0,150.499,0z
			 M150.549,283.305c-67.536,0-132.772-65.236-132.772-132.772c0-67.537,65.236-132.772,132.772-132.772
			c67.537,0,132.772,65.236,132.772,132.772C283.321,218.068,218.086,283.305,150.549,283.305z M150.499,85.977
			c7.112,0,12.88-5.769,12.88-12.881c0-7.104-5.769-12.872-12.88-12.872c-7.113,0-12.881,5.769-12.881,12.872
			C137.617,80.208,143.386,85.977,150.499,85.977z M150.549,103.241c-7.121,0-12.898,5.777-12.898,12.897v111.78
			c0,7.12,5.778,12.897,12.898,12.897c7.12,0,12.897-5.777,12.897-12.897v-111.78C163.446,109.018,157.669,103.241,150.549,103.241z
			"/>
	</g>
</g>
</svg>
