<?xml version="1.0" standalone="no"?>
<!DOCTYPE svg PUBLIC "-//W3C//DTD SVG 1.1//EN" "http://www.w3.org/Graphics/SVG/1.1/DTD/svg11.dtd">
<svg xmlns="http://www.w3.org/2000/svg">
<metadata>Copyright (C) 2018 by original authors @ fontello.com</metadata>
<defs>
<font id="fontello" horiz-adv-x="1000" >
<font-face font-family="fontello" font-weight="400" font-stretch="normal" units-per-em="1000" ascent="850" descent="-150" />
<missing-glyph horiz-adv-x="1000" />
<glyph glyph-name="01" unicode="&#xe800;" d="M725-57l-398 425 394 387c21 22 54 58 33 80-21 22-55 22-76 0l-420-414c-10-11-15-24-15-38-10-21-6-47 10-65l428-456c21-23 56-23 77 0 22 22-12 59-33 81l0 0z m0 0" horiz-adv-x="1000" />

<glyph glyph-name="02" unicode="&#xe801;" d="M920-117h70l-46 256-319 170c52 51 86 133 86 225 1 199-94 279-209 279s-210-74-210-279c0-84 29-160 74-211l-306-184-47-256h70l45 222 289 174c26-15 55-24 85-24 22 0 44 5 64 14l310-165 44-221z m-558 651c1 159 59 210 140 210s138-52 139-210c1-115-58-209-139-209s-140 94-140 209z" horiz-adv-x="1000" />

<glyph glyph-name="03" unicode="&#xe802;" d="M993-142l-46 303-321 172c52 51 86 134 86 227 1 200-94 282-210 282s-211-76-211-282c0-85 29-162 74-214l-308-185-47-303h47l0 0h913l0 0h23z" horiz-adv-x="1000" />

<glyph glyph-name="04" unicode="&#xe803;" d="M943 391c-12 246-214 442-463 442-257 0-465-208-465-464 0-249 196-452 442-464v-45h67v0c242 7 458 222 464 465h0v66h-45z m-862-22c0 220 179 398 399 398 212 0 385-166 397-376h-420v-419c-209 11-376 184-376 397z m443-442v398h398c-7-206-192-392-398-398z" horiz-adv-x="1000" />

<glyph glyph-name="05" unicode="&#xe804;" d="M457 393v-540h67v1c247 6 466 225 472 472h1v67h-540z m22 450c-261 0-472-211-472-472 0-238 176-435 405-467v534h534c-32 229-229 405-467 405z" horiz-adv-x="1000" />

<glyph glyph-name="06" unicode="&#xe805;" d="M502-152c-148 0-280 65-371 167l38 36c82-92 200-150 333-150 246 0 446 199 446 446s-200 446-446 446-446-200-446-446c0-47 7-92 21-135l223 198 4-5 4 5 156-157 219 199h-103v52h132 52v-52-132h-52v82l-237-213-20 11-6-11-24 26-2 1 0 0-121 125-220-194-6 7-25-19c-30 64-48 136-48 212 0 275 224 498 499 498s498-223 498-498c0-275-223-499-498-499z" horiz-adv-x="1000" />

<glyph glyph-name="07" unicode="&#xe806;" d="M995 347c0 71-59 129-130 129h26v234c0 28-23 52-52 52h-778c-29 0-52-24-52-52v-727c0-28 23-51 52-51h778c29 0 52 23 52 51v237c59 12 104 64 104 127z m-182-364h-726c-29 0-26 24-26 52v623c0 29-3 52 26 52h726c29 0 26-23 26-52v-182h-156c-71 0-129-58-129-129 0-72 58-130 129-130h156v-182c0-28 3-52-26-52z m52 286h-182c-43 0-78 35-78 78 0 43 35 78 78 78h182c43 0 78-35 78-78 0-43-35-78-78-78z" horiz-adv-x="1000" />

<glyph glyph-name="08" unicode="&#xe807;" d="M918-150h-194-56-55c0 61-50 111-111 111s-111-50-111-111h-56-56-194c-31 0-56 25-56 56v888c0 31 25 56 56 56h833c31 0 56-25 56-56v-888c0-31-25-56-56-56z m0 778v111c0 31 3 55-27 55h-778c-31 0-28-24-28-55v-111h167v-56h-167v-611c0-31-3-55 28-55h232c23 64 84 111 157 111 72 0 133-47 156-111h233c30 0 27 24 27 55v611h-166v56h166z m-389 0h139v-56h-139v56z m-194 0h194v-56h-194v56z" horiz-adv-x="1000" />

<glyph glyph-name="09" unicode="&#xe808;" d="M934 647h-98c0 1 0 2 1 2 7 17 10 36 10 57 0 34-11 65-31 88-11 14-26 24-43 31-18 8-38 12-61 12-53 0-79-24-132-72-31-27-57-59-77-86-6 9-13 17-20 26-19 23-39 43-58 61-54 47-81 71-134 71-22 0-43-4-61-12-17-7-31-17-43-31-20-23-31-54-31-88 0-22 4-41 12-59h-99c-30 0-54-24-54-54v-270h54v-406c0-30 24-54 54-54h757c30 0 54 24 54 54v406h54v270c0 30-24 54-54 54z m-320 80c43 38 58 58 98 58 29 0 51-9 66-25 11-14 18-33 18-54 0-23-12-44-24-59h-243c18 25 58 56 85 80z m-406-21c0 21 6 40 18 54 14 16 36 25 65 25 21 0 16-6 38-16 20-10 41-24 62-43 28-24 66-55 84-79h-244c-13 15-23 35-23 59z m672-762c0-15-12-27-27-27h-703c-15 0-27 12-27 27v379h757v-379z m54 433h-865v189c0 15 12 27 27 27h811c15 0 27-12 27-27v-189z" horiz-adv-x="1000" />

<glyph glyph-name="10" unicode="&#xe809;" d="M917 362c0-58 24-103 66-143 8-7 11-17 7-27-22-65-57-134-102-186-7-8-17-11-27-8-56 17-87 11-138-18-50-29-85-49-98-106-1-7-6-13-12-16-3-2-5-3-8-3-68-13-137-13-205 0-10 2-18 10-21 20-13 56-48 76-98 105-51 29-82 36-138 19-10-3-20 0-27 8-23 26-43 55-60 83-17 29-31 61-43 94-3 9 0 20 7 27 43 40 66 94 66 152 0 57-23 84-66 124-8 7-10 17-7 27 23 65 57 125 102 177 7 8 18 11 28 8 56-17 87-11 137 18 50 29 85 49 98 105 2 11 11 18 21 20 68 13 137 13 205 0 10-2 18-10 20-20 13-57 48-76 99-105 50-29 81-36 137-19 10 3 21 0 28-8 23-27 43-55 59-83 17-29 31-61 43-94 4-10 1-20-7-27-42-40-66-67-66-124z m-27 213c-12 21-19 39-36 60-64-15-109-10-166 23-57 33-91 58-110 121-51 8-102 6-154-2-19-63-51-82-109-116-57-32-99-37-163-22-33-40-54-79-72-127 45-48 69-83 69-148 0-66-23-129-68-177 10-24 21-46 33-68 13-21 17-27 34-48 64 15 105 2 162-31 58-33 96-57 116-120 50-8 102-7 153 1 19 63 60 83 117 116 58 33 94 41 159 26 32 40 49 87 67 135-45 48-63 98-63 164 0 65 17 101 62 149-10 25-18 42-31 64z m-388-404c-90 0-164 73-164 163s74 164 164 164c90 0 163-73 163-164s-73-163-163-163z m0 272c-60 0-109-48-109-109 0-60 49-109 109-109 60 0 109 49 109 109 0 61-49 109-109 109z" horiz-adv-x="1000" />

<glyph glyph-name="11" unicode="&#xe80a;" d="M503 845c-274 0-496-222-496-497 0-274 222-496 496-496 275 0 497 222 497 496 0 275-222 497-497 497z m0-940c-244 0-443 199-443 443 0 245 199 443 443 443 245 0 443-198 443-443 0-244-198-443-443-443z m14 698c-15 0-27-12-27-26v-27c0-15 12-27 27-27 15 0 27 12 27 27v27c0 14-12 26-27 26z m0-134c-15 0-27-12-27-27v-349c0-14 12-27 27-27 15 0 27 13 27 27v349c0 15-12 27-27 27z" horiz-adv-x="1000" />

<glyph glyph-name="12" unicode="&#xe80b;" d="M843-21l0 0c-2 0 1 0 0 0h-158c-2-78-84-130-181-130 0 0-1 0-1 0-1 0-2-1-4-1-97 0-179 53-181 131h-157c-61 0-105 37-105 103 0 61 71 83 79 186v131c0 169 123 301 276 341v2c0 57 40 103 89 103 0 0 0 0 1 0 1 0 2 0 3 0 49 0 89-46 89-103v-2c153-39 276-172 276-341v-131c8-103 79-125 79-186 0-66-44-103-105-103z m-384 761v-40c-151-22-272-165-272-327v-79l0 0v-52c-20-106-82-126-82-156v-8c-1-21 12-41 30-46 0 0-1 0 0 0 1 0-2 0 0 0 6-1 1 0 26 0l0 0c1 0-1 0 0 0h682c8 0 26 0 26 0 1 0-1 0 0 0 1 0-1 0 0 0 14 6 30 29 30 45l0 0v9c-1 29-63 50-83 156v52l0 0v79c0 162-121 305-272 327v40c0 31-19 56-43 57-23-2-42-26-42-57z m174-761c0 1 1-14 0 0h-262c0-11 0 1 0 0 0-50 59-82 132-83 72 2 130 33 130 83z" horiz-adv-x="1000" />

<glyph glyph-name="13" unicode="&#xe80c;" d="M983 355c-2 4-47 76-128 149-48 43-99 78-152 102-66 32-134 47-203 47-76 0-149-15-217-46-53-25-104-60-150-103-78-74-115-147-117-150l-4-7 4-8c2-3 39-76 117-149 46-44 97-78 150-103 68-31 141-47 217-47 69 0 137 16 203 47 53 25 104 59 152 102 81 74 126 146 128 149l5 9-5 8z m-152-141c-71-64-186-140-331-140-129 0-244 47-343 139-59 57-95 114-106 134 11 20 47 77 106 133 99 93 214 139 343 139 145 0 260-76 331-139 62-56 102-112 117-133-15-21-55-78-117-133z m-341 361c-59 0-115-23-157-64-42-42-65-97-65-156 0-58 23-114 65-155 42-42 98-64 157-64 59 0 115 22 157 64 42 41 65 97 65 155 0 59-23 114-65 156-42 41-98 64-157 64z m0-405c-104 0-188 83-188 185 0 103 84 186 188 186 103 0 188-83 188-186 0-102-85-185-188-185z" horiz-adv-x="1000" />

<glyph glyph-name="14" unicode="&#xe80d;" d="M997 365l-58 77c17 13 34 27 50 42 9 8 10 21 2 31-8 9-22 10-31 2-113-100-232-161-352-184-96-18-194-11-291 20-86 27-156 70-199 101-47 33-74 61-75 61-8 9-22 9-31 1-9-9-9-23 0-31 1-1 21-23 59-51l-52-67c-8-10-6-23 4-31 4-3 9-4 13-4 7 0 14 2 18 8l53 68c39-26 93-58 158-83l-35-76c-6-11-1-24 10-29 3-1 6-2 10-2 8 0 16 5 20 13l36 79c58-18 115-28 173-30v-84c0-12 10-22 22-22 12 0 22 10 22 22v84c31 1 61 4 92 10 32 6 64 14 97 26l38-80c4-8 12-13 20-13 4 0 7 1 10 2 11 6 16 19 10 30l-37 77c51 21 101 49 151 84l57-78c5-5 11-8 18-8 5 0 9 1 13 4 10 7 12 21 5 31l0 0z" horiz-adv-x="1000" />

<glyph glyph-name="15" unicode="&#xe80e;" d="M874 759h-133v53c-1 23-17 26-27 26-10 0-27-6-26-26v-53h-372v53c0 24-17 26-27 26-10 0-27-6-26-26v-53h-133c-55 0-80-31-80-80v-736c0-60 35-88 90-88h723c55 0 91 40 91 88v736c0 49-25 80-80 80z m26-798c2-41-28-51-53-53h-691c-29 0-51 11-53 53v691c-1 44 6 53 53 53h107v-26c-1-18 16-27 26-27s27 7 27 27v26h372v-26c2-20 16-27 26-27 10 0 28 6 27 27v26h106c52 0 53-13 53-53v-691z m-186 532h-505c-14 0-26-12-26-27 0-14 12-26 26-26h505c15 0 27 12 27 26 0 15-12 27-27 27z m-505-213h399c15 0 27 12 27 27 0 15-12 26-27 26h-399c-14 0-26-11-26-26 0-15 12-27 26-27z m452-106h-452c-14 0-26-12-26-27 0-14 12-26 26-26h452c15 0 27 12 27 26 0 15-12 27-27 27z" horiz-adv-x="1000" />

<glyph glyph-name="16" unicode="&#xe80f;" d="M997-50l-98-98-392 392-391-392-98 98 392 392-392 391 98 98 391-391 392 391 98-98-392-391 392-392z" horiz-adv-x="1000" />

<glyph glyph-name="17" unicode="&#xe810;" d="M109 298l394 448 395-448c15-16 41-15 57 1 16 15 17 41 1 56l-424 477c-8 8-18 12-29 11-10 1-21-3-29-11l-423-477c-16-15-15-41 1-56 16-16 41-17 57-1z m423 101c-8 8-18 12-29 11-10 1-21-3-29-11l-423-477c-16-16-15-41 1-57 16-15 41-16 57 0l394 448 395-448c15-16 41-15 57 0 16 16 17 41 1 57l-424 477z" horiz-adv-x="1000" />

<glyph glyph-name="18" unicode="&#xe811;" d="M722 465l-244-245-164 145c-8 8-20 8-28 0-8-8-8-21 0-29l175-154c1-2 2-3 3-5 4-4 10-6 15-5 6-1 11 1 16 5 1 2 3 4 3 6l252 253c8 8 8 21 0 29s-20 8-28 0z m-220 382c-276 0-499-223-499-499 0-275 223-498 499-498 275 0 498 223 498 498 0 276-223 499-498 499z m0-964c-255 0-465 211-465 465 0 255 210 465 465 465 254 0 465-210 465-465 0-254-211-465-465-465z" horiz-adv-x="1000" />

<glyph glyph-name="19" unicode="&#xe812;" d="M439 210l-155 200-52-50 207-251 378 356-52 50-326-305z m63 633c-274 0-495-221-495-495 0-273 221-495 495-495 273 0 495 222 495 495 0 274-222 495-495 495z m0-945c-249 0-450 202-450 450 0 249 201 450 450 450 248 0 450-201 450-450 0-248-202-450-450-450z" horiz-adv-x="1000" />

<glyph glyph-name="20" unicode="&#xe813;" d="M710 81c-94-121-189-216-190-217l-12-12-13 12c-1 0-98 92-194 209-130 158-197 254-197 347 0 54 11 108 32 160 20 50 49 95 86 134 37 40 80 71 128 93 50 23 103 35 158 35 107 0 207-43 281-119 73-76 113-178 113-287 0-93-64-191-192-355z m-203 725c-199 0-367-177-367-386 0-84 65-175 188-325 75-90 150-165 179-194 28 30 102 108 175 202 121 155 185 250 185 333 0 208-158 370-360 370z m-4-539c-97 0-175 79-175 175 0 97 78 176 175 176 97 0 176-79 176-176 0-96-79-175-176-175z m0 319c-79 0-143-64-143-144 0-79 64-143 143-143 80 0 144 64 144 143 0 80-64 144-144 144z" horiz-adv-x="1000" />

<glyph glyph-name="21" unicode="&#xe814;" d="M502-150c-275 0-499 223-499 498 0 276 224 499 499 499s498-223 498-499c0-275-223-498-498-498z m0 963c-257 0-465-208-465-465 0-257 208-465 465-465 257 0 465 208 465 465 0 257-208 465-465 465z m216-531h-266c-9 0-17 7-17 17v332c0 9 8 16 17 16 9 0 16-7 16-16v-316h250c9 0 16-7 16-16 0-10-7-17-16-17z" horiz-adv-x="1000" />

<glyph glyph-name="22" unicode="&#xe815;" d="M812 19h-241c-38 0-69 31-69 69v79c-10-6-22-10-35-10h-276c-12 0-24 4-34 10v-303c0-10-8-17-17-17s-18 7-18 17v362 448 155c0 10 8 18 18 18s17-8 17-18v-95c10 6 22 9 34 9h276c38 0 69-31 69-69v-44c10 6 22 10 35 10h241c38 0 69-31 69-69v-483c0-38-31-69-69-69z m-310 655c0 19-16 35-35 35h-276c-19 0-34-16-34-35v-448c0-19 15-34 34-34h276c19 0 35 15 35 34v345c0 0 0 0 0 0v103z m345-103c0 19-16 34-35 34h-241c-19 0-35-15-35-34v-483c0-19 16-34 35-34h241c19 0 35 15 35 34v483z" horiz-adv-x="1000" />

<glyph glyph-name="23" unicode="&#xe816;" d="M502 850c-277 0-502-225-502-502 0-277 225-501 502-501 277 0 501 224 501 501 0 277-224 502-501 502z m0-944c-225 0-443 217-443 442 0 225 218 443 443 443 225 0 442-218 442-443 0-225-217-442-442-442z m0 657c23 0 43 20 43 43 0 24-20 43-43 43-24 0-43-19-43-43 0-23 19-43 43-43z m0-57c-24 0-43-19-43-43v-373c0-23 19-43 43-43 24 0 43 20 43 43v373c0 24-19 43-43 43z" horiz-adv-x="1000" />
</font>
</defs>
</svg>
