<?xml version="1.0" encoding="utf-8"?>
<!-- Generator: Adobe Illustrator 16.0.0, SVG Export Plug-In . SVG Version: 6.00 Build 0)  -->
<!DOCTYPE svg PUBLIC "-//W3C//DTD SVG 1.1//EN" "http://www.w3.org/Graphics/SVG/1.1/DTD/svg11.dtd">
<svg version="1.1" id="图层_1" xmlns="http://www.w3.org/2000/svg" xmlns:xlink="http://www.w3.org/1999/xlink" x="0px" y="0px"
	 width="300px" height="300px" viewBox="0 0 300 300" enable-background="new 0 0 300 300" xml:space="preserve">
<g>
	<g>
		<path fill-rule="evenodd" clip-rule="evenodd" d="M298.587,108.5V50.022c0-5.263-4.259-9.522-9.521-9.522H12.935
			c-5.258,0-9.521,4.259-9.521,9.522v68c16.398,4.249,28.565,19.015,28.565,36.738c0,17.724-12.167,32.489-28.565,36.739v58.479
			c0,5.263,4.263,9.521,9.521,9.521h276.131c5.263,0,9.521-4.259,9.521-9.521v-68.001c-16.402-4.249-28.565-19.016-28.565-36.738
			C270.021,127.516,282.185,112.75,298.587,108.5z M184.326,154.761h-19.044v19.044c0,5.253-4.259,9.521-9.521,9.521
			s-9.521-4.269-9.521-9.521v-19.044h-19.043c-5.258,0-9.522-4.268-9.522-9.521c0-5.263,4.264-9.522,9.522-9.522h19.043v-19.043
			c0-5.263,4.259-9.521,9.521-9.521s9.521,4.259,9.521,9.521v19.043h19.044c5.263,0,9.521,4.259,9.521,9.522
			C193.848,150.493,189.589,154.761,184.326,154.761z"/>
	</g>
</g>
</svg>
