<?xml version="1.0" encoding="utf-8"?>
<!-- Generator: Adobe Illustrator 16.0.0, SVG Export Plug-In . SVG Version: 6.00 Build 0)  -->
<!DOCTYPE svg PUBLIC "-//W3C//DTD SVG 1.1//EN" "http://www.w3.org/Graphics/SVG/1.1/DTD/svg11.dtd">
<svg version="1.1" id="图层_1" xmlns="http://www.w3.org/2000/svg" xmlns:xlink="http://www.w3.org/1999/xlink" x="0px" y="0px"
	 width="300px" height="300px" viewBox="0 0 300 300" enable-background="new 0 0 300 300" xml:space="preserve">
<g>
	<g>
		<path fill="#666666" d="M56.459,110.464V62.78c0-2.749-2.007-4.686-5.373-4.686H32.792c-3.366,0-6.996,1.937-6.996,4.686v47.684
			c0,2.742,3.63,5.292,6.996,5.292h18.294C54.453,115.756,56.459,113.206,56.459,110.464z M268.271,0H30.921
			C22.047,0,15,6.704,15,15.483v231.944c0,8.779,7.047,16.119,15.921,16.119h2.219v22.852c0,7.118,7.475,13.025,16.868,13.025
			h13.509c9.394,0,17.128-5.907,17.128-13.025v-22.852h141.221v22.852c0,7.118,7.734,13.025,17.121,13.025h13.51
			c9.393,0,17.74-5.907,17.74-13.025v-23.151c7.34-0.768,14.246-7.56,14.246-15.819V15.483C284.483,6.704,277.153,0,268.271,0z
			 M262.468,223.721c0,11.776-9.701,21.455-21.61,21.455H57.542c-11.909,0-21.378-9.679-21.378-21.455v-12.289h-3.371
			c-5.625,0-11.743-4.591-11.743-10.563v-47.684c0-5.906,5.888-9.664,11.743-9.664h3.371v-22.64h-3.371
			c-5.625,0-11.743-4.444-11.743-10.417V62.78c0-5.906,5.888-9.811,11.743-9.811h3.371V40.425c0-11.776,9.47-21.2,21.378-21.2
			h183.316c11.909,0,21.61,9.423,21.61,21.2V223.721z M56.459,200.868v-47.684c0-2.742-2.007-4.54-5.373-4.54H32.792
			c-3.366,0-6.996,1.798-6.996,4.54v47.684c0,2.749,3.63,5.439,6.996,5.439h18.294C54.453,206.308,56.459,203.617,56.459,200.868z
			 M147.142,131.576c0-13.063-10.71-23.656-23.919-23.656c-13.213,0-23.922,10.592-23.922,23.656
			c0,13.063,10.709,23.655,23.922,23.655C136.432,155.231,147.142,144.639,147.142,131.576z M123.223,104.01
			c3.882,0,7.033-3.115,7.033-6.96c0-3.838-3.151-6.952-7.033-6.952c-3.885,0-7.032,3.114-7.032,6.952
			C116.19,100.895,119.338,104.01,123.223,104.01z M149.839,121.393c0,3.845,3.151,6.952,7.032,6.952
			c3.883,0,7.033-3.107,7.033-6.952c0-3.838-3.15-6.952-7.033-6.952C152.99,114.441,149.839,117.555,149.839,121.393z
			 M90.075,114.441c-3.886,0-7.032,3.114-7.032,6.952c0,3.845,3.146,6.952,7.032,6.952c3.881,0,7.029-3.107,7.029-6.952
			C97.104,117.555,93.957,114.441,90.075,114.441z M102.63,152.688c-3.885,0-7.032,3.114-7.032,6.952
			c0,3.845,3.147,6.959,7.032,6.959c3.882,0,7.033-3.114,7.033-6.959C109.663,155.802,106.512,152.688,102.63,152.688z
			 M144.32,152.688c-3.889,0-7.032,3.114-7.032,6.952c0,3.845,3.143,6.959,7.032,6.959c3.875,0,7.032-3.114,7.032-6.959
			C151.353,155.802,148.195,152.688,144.32,152.688z M240.857,30.33H57.542c-5.819,0-10.151,4.343-10.151,10.095v12.544h3.696
			c6.166,0,10.556,4.255,10.556,9.811v47.684c0,5.848-4.686,10.417-10.556,10.417h-3.696v22.64h3.696
			c6.166,0,10.556,4.108,10.556,9.664v47.684c0,5.849-4.686,10.563-10.556,10.563h-3.696v12.289c0,5.753,4.332,10.774,10.151,10.774
			h183.316c5.82,0,10.38-5.021,10.38-10.774V40.425C251.237,34.673,246.678,30.33,240.857,30.33z M123.223,177.527
			c-25.658,0-46.459-20.578-46.459-45.951c0-25.375,20.801-45.944,46.459-45.944c25.659,0,46.456,20.57,46.456,45.944
			C169.679,156.949,148.881,177.527,123.223,177.527z M230.507,188.098c0,2.742-2.252,4.972-5.029,4.972h-8.955
			c-2.771,0-5.022-2.229-5.022-4.972V76.728c0-2.742,2.252-4.97,5.022-4.97h8.955c2.777,0,5.029,2.229,5.029,4.97V188.098z"/>
	</g>
</g>
</svg>
