<?xml version="1.0" encoding="utf-8"?>
<!-- Generator: Adobe Illustrator 16.0.0, SVG Export Plug-In . SVG Version: 6.00 Build 0)  -->
<!DOCTYPE svg PUBLIC "-//W3C//DTD SVG 1.1//EN" "http://www.w3.org/Graphics/SVG/1.1/DTD/svg11.dtd">
<svg version="1.1" id="图层_1" xmlns="http://www.w3.org/2000/svg" xmlns:xlink="http://www.w3.org/1999/xlink" x="0px" y="0px"
	 width="300px" height="300px" viewBox="0 0 300 300" enable-background="new 0 0 300 300" xml:space="preserve">
<g>
	<g>
		<path fill-rule="evenodd" clip-rule="evenodd" fill="#666666" d="M157.47,187.305h-8.655l-28.84-37.88h-19.904l38.359,50.371
			h-19.751v12.491h24.98v24.981h-24.98v12.49h24.98v24.981h18.737v-24.981h24.981v-12.49h-24.981v-24.981h24.981v-12.491h-19.521
			l38.359-50.371h-19.9L157.47,187.305z M261.992,189.537c-14.704-38.612-55.317-80.719-63.948-88.85l0.007-0.006
			c-0.109-0.098-0.213-0.195-0.33-0.293c-0.999-0.896-2.121-1.848-3.323-2.83c-0.921-0.982-1.751-1.799-2.567-2.604
			c2.635,2.153,5.971,3.494,9.661,3.494c5.928,0,11.014-3.373,13.526-8.246c8.819,1.751,31.916,6.703,34.954,19.164
			c0.719,2.958,3.396,4.94,6.355,4.94c0.505,0,1.018-0.055,1.529-0.176c3.515-0.83,5.679-4.307,4.831-7.771
			c-3.794-15.595-21.316-22.816-34.605-26.396c6.294-5.819,11.936-13.18,12.601-18.322c0.45-3.428-1.964-6.374-5.429-6.947
			c-3.477-0.561-6.812,1.867-7.538,5.251c-0.713,3.342-8.91,11.618-13.722,14.991c-2.745-3.903-7.319-6.471-12.503-6.471
			c-4.569,0-8.625,2.024-11.412,5.165c1.592-2.335,3.294-3.958,4.166-4.677c0.622-0.525,1.769-1.409,3.275-2.58
			c16.607-12.887,32.428-23.682,35.703-33.642c0.909-2.75,1.543-4.531,1.964-5.696c0.641-1.805,2.543-7.099-2.349-9.569
			c-0.976-1.031-2.744-2.269-5.574-2.269c-2.195,0-4.428,0.744-7.264,1.684c-4.702,1.561-11.24,3.354-15.474,1.597
			c-3.549-1.487-6.939-3.86-10.526-6.374c-6.678-4.677-14.247-9.978-24.823-10.721c-8.416-0.592-15.247,2.22-21.772,4.94
			c-5.819,2.421-11.308,4.696-18.699,4.696h-0.031c-7.188-0.14-15.021-1.177-21.935-2.085c-6.504-0.86-12.125-1.598-16.656-1.598
			c-1.899,0-3.516,0.134-4.559,0.359c-0.692-0.518-1.738-1.792-3.114-3.793C81.344,2.354,79.725,0,76.397,0
			c-1.884,0-3.699,0.891-4.833,2.367c-1.988,2.586-1.857,3.037,1.421,14.497l0.466,1.628c0.095,0.372,0.208,1.037,0.367,1.927
			c1.167,6.453,3.903,19.06,11.246,26.896c1.006,1.269,2.145,2.647,3.367,4.129c5.611,6.801,12.847,15.602,16.434,24.976
			c-1.775,0.359-3.535,0.646-5.316,1.037c-3.241,0.719-5.276,3.885-4.546,7.08c0.725,3.191,3.943,5.179,7.182,4.472
			c1.634-0.361,3.26-0.623,4.894-0.952c-0.091,3.098-0.783,6.19-2.263,9.24c-0.936,1.317-1.848,2.354-2.714,3.074
			c-30.415,25.353-52.042,57.019-64.279,89.166C25.7,221.35,24.85,234.383,25.017,245.008c0.229,14.503,0.839,53.043,70.571,54.062
			c62.209,0.901,70.09,0.658,108.77,0.23c69.613-0.744,70.211-39.648,70.431-54.299C274.952,234.377,274.093,221.35,261.992,189.537
			z M97.756,46.475c-1.168-1.415-2.257-2.733-3.531-4.313c-4.886-5.232-7.298-16.906-8.344-22.56
			c0.491-0.036,0.983-0.109,1.464-0.212c0.427-0.098,1.25-0.214,2.739-0.214c3.733,0,9.234,0.725,15.062,1.495
			c7.224,0.957,15.415,2.03,23.289,2.195l0.838,0.006c9.241,0,16.449-2.995,22.804-5.635c5.764-2.396,10.6-4.434,16.248-4.044
			c7.209,0.513,12.796,4.421,18.706,8.563c3.958,2.769,8.044,5.635,12.802,7.624c6.879,2.873,15.997,1.318,22.065-0.634
			c-0.037,0.11-0.073,0.225-0.109,0.341c-1.727,5.246-12.394,13.004-31.709,27.989c-1.665,1.293-2.921,2.275-3.604,2.842
			c-2.001,1.665-6.905,5.354-9.771,12.503c-17.583-2.72-38.179-2.416-59.813,0.872C112.8,61.233,104.072,54.122,97.756,46.475z
			 M188.854,91.826c-1.062-1.281-1.695-2.434-2.013-4.135c0.043,0.006,0.085,0.019,0.122,0.03
			C187.414,89.185,188.012,90.588,188.854,91.826z M262.772,244.824c-0.231,14.687-0.646,40.973-58.537,41.596
			c-33.983,0.371-38.308,0.799-108.47-0.238c-58.071-0.843-58.499-26.836-58.728-41.357c-0.149-9.489,0.66-21.255,12.04-51.127
			c11.506-30.239,31.962-60.252,60.789-84.288c1.775-1.476,3.501-3.428,5.132-5.8c0.149-0.213,0.287-0.445,0.403-0.683
			c2.912-5.757,3.967-11.459,3.757-16.979c20.039-2.976,39.292-3.269,55.436-0.835c0.013,0.451-0.061,0.859-0.023,1.323
			c0.572,8.844,4.306,12.503,8.252,16.381c0.908,0.891,1.908,1.873,2.981,3.025c0.189,0.208,0.391,0.396,0.609,0.573
			c1.215,0.994,2.343,1.946,3.246,2.75c4.757,4.471,46.888,47.262,61.073,84.532C262.102,223.575,262.912,235.335,262.772,244.824z"
			/>
	</g>
</g>
</svg>
