<?xml version="1.0" encoding="utf-8"?>
<!-- Generator: Adobe Illustrator 16.0.0, SVG Export Plug-In . SVG Version: 6.00 Build 0)  -->
<!DOCTYPE svg PUBLIC "-//W3C//DTD SVG 1.1//EN" "http://www.w3.org/Graphics/SVG/1.1/DTD/svg11.dtd">
<svg version="1.1" id="图层_1" xmlns="http://www.w3.org/2000/svg" xmlns:xlink="http://www.w3.org/1999/xlink" x="0px" y="0px"
	 width="300px" height="300px" viewBox="0 0 300 300" enable-background="new 0 0 300 300" xml:space="preserve">
<path fill="#666666" d="M296.658,144.602l-14.043-8.117c-2.832-29.878-15.65-58.975-38.461-81.803
	c-22.215-22.239-50.902-35.663-81.809-38.558l-8.066-13.986c-1.9-3.305-7.353-3.305-9.252,0l-8.067,13.986
	c-30.895,2.895-59.559,16.308-81.798,38.541c-22.8,22.834-35.623,51.942-38.439,81.82l-14.054,8.117
	C1.022,145.552,0,147.317,0,149.228c0,1.912,1.012,3.676,2.669,4.632l14.054,8.129c2.839,29.878,15.661,58.979,38.462,81.808
	c22.216,22.21,50.879,35.624,81.763,38.53l8.089,13.996c0.95,1.664,2.715,2.677,4.626,2.677c1.913,0,3.676-1.022,4.627-2.677
	l8.078-13.996c30.889-2.906,59.57-16.309,81.785-38.53c22.811-22.84,35.629-51.941,38.461-81.818l14.043-8.118
	c1.658-0.95,2.67-2.721,2.67-4.632C299.328,147.317,298.307,145.552,296.658,144.602L296.658,144.602z M236.223,235.86
	c-23.109,23.121-53.848,35.859-86.547,35.859c-32.71,0-63.454-12.738-86.564-35.859c-47.714-47.771-47.725-125.493-0.022-173.269
	c23.126-23.126,53.876-35.864,86.575-35.864c32.694,0,63.438,12.75,86.559,35.886C283.955,110.367,283.955,188.078,236.223,235.86
	L236.223,235.86z M226.84,69.303c-0.365,0-0.73,0.079-1.063,0.226l0.035-0.028l-97.11,58.3L69.97,225.752
	c-0.248,0.9-0.119,1.924,0.612,2.626c0.506,0.494,1.164,0.731,1.815,0.731c0.237,0,0.467-0.034,0.692-0.091l97.999-58.828
	l58.283-97.206c0.365-0.944,0.15-2.097-0.613-2.883C228.229,69.573,227.531,69.303,226.84,69.303L226.84,69.303z M136.724,135.839
	l0.011-0.012l26.32,26.336l-65.799,39.502L136.724,135.839L136.724,135.839z M136.724,135.839"/>
</svg>
