<?xml version="1.0" encoding="utf-8"?>
<!-- Generator: Adobe Illustrator 16.0.0, SVG Export Plug-In . SVG Version: 6.00 Build 0)  -->
<!DOCTYPE svg PUBLIC "-//W3C//DTD SVG 1.1//EN" "http://www.w3.org/Graphics/SVG/1.1/DTD/svg11.dtd">
<svg version="1.1" id="图层_1" xmlns="http://www.w3.org/2000/svg" xmlns:xlink="http://www.w3.org/1999/xlink" x="0px" y="0px"
	 width="300px" height="300px" viewBox="0 0 300 300" enable-background="new 0 0 300 300" xml:space="preserve">
<g>
	<g>
		<path fill-rule="evenodd" clip-rule="evenodd" d="M150.5,0.5C71.429,0.5,0,71.939,0,151c0,79.071,71.429,150.5,150.5,150.5
			S301,230.071,301,151C301,71.939,229.571,0.5,150.5,0.5z M150.5,281.434c-70.958,0-130.433-59.476-130.433-130.434
			c0-70.958,59.475-130.433,130.433-130.433c70.958,0,130.434,59.475,130.434,130.433
			C280.934,221.958,221.458,281.434,150.5,281.434z M220.732,140.967h-60.2V80.766c0-5.545-4.485-10.032-10.032-10.032
			c-5.546,0-10.033,4.487-10.033,10.032v60.201H80.266c-5.545,0-10.032,4.487-10.032,10.033c0,5.547,4.487,10.032,10.032,10.032
			h60.201v60.2c0,5.547,4.487,10.035,10.033,10.035c5.547,0,10.032-4.488,10.032-10.035v-60.2h60.2
			c5.547,0,10.035-4.485,10.035-10.032C230.768,145.454,226.279,140.967,220.732,140.967z"/>
	</g>
</g>
</svg>
