<?xml version="1.0" encoding="utf-8"?>
<!-- Generator: Adobe Illustrator 15.0.0, SVG Export Plug-In . SVG Version: 6.00 Build 0)  -->
<!DOCTYPE svg PUBLIC "-//W3C//DTD SVG 1.1//EN" "http://www.w3.org/Graphics/SVG/1.1/DTD/svg11.dtd">
<svg version="1.1" id="图层_1" xmlns="http://www.w3.org/2000/svg" xmlns:xlink="http://www.w3.org/1999/xlink" x="0px" y="0px"
	 width="300px" height="300px" viewBox="0 0 300 300" enable-background="new 0 0 300 300" xml:space="preserve">
<path fill="#666666" d="M152.182,86.848c18.55,0,39.044-3.285,74.22-24.741c22.611-13.789,46.315-31.825,59.78-43.291
	c-6.181-8.25-14.431-12.372-26.806-12.372H40.846c-10.309,0-20.612,4.122-26.8,12.372c10.31,8.247,22.679,18.55,41.232,30.922
	C92.391,78.601,115.069,86.848,152.182,86.848L152.182,86.848z M294.433,39.436c-12.376,10.309-35.043,28.862-63.918,45.353
	c-24.739,14.431-53.603,20.619-80.402,20.619c-30.921,0-57.722-4.122-94.835-28.862C32.599,60.053,11.983,43.563,5.802,39.441v2.06
	v220.596c0,18.557,14.432,32.981,35.043,32.981h220.598c18.545,0,35.045-14.425,35.045-35.045L294.433,39.436L294.433,39.436
	L294.433,39.436z M203.72,191.996c0,2.056-2.063,4.117-4.125,4.117h-41.232v18.552h41.232c2.062,0,4.125,2.067,4.125,4.125v8.25
	c0,2.055-2.063,4.125-4.125,4.125h-41.232v22.675c0,2.063-2.063,4.118-4.122,4.118h-8.25c-2.059,0-4.119-2.056-4.119-4.118v-20.612
	h-41.234c-2.058,0-4.118-2.063-4.118-4.119v-8.251c0-2.063,2.06-4.125,4.118-4.125h41.234v-18.548h-41.234
	c-2.058,0-4.118-2.063-4.118-4.12v-10.313c0-2.062,2.06-4.119,4.118-4.119h22.682l-24.74-41.235c-2.06-2.063,0-4.122,2.058-6.182
	l8.25-4.122c2.06-2.063,4.123,0,6.182,2.06l28.861,49.479h16.494l26.801-49.479c2.062-2.06,4.119-2.06,6.188-2.06l8.243,4.122
	c2.063,2.06,2.063,4.119,2.063,6.182l-24.744,41.235h20.619c2.062,0,4.125,2.058,4.125,4.119V191.996L203.72,191.996z"/>
</svg>
