<?xml version="1.0" encoding="utf-8"?>
<!-- Generator: Adobe Illustrator 16.0.0, SVG Export Plug-In . SVG Version: 6.00 Build 0)  -->
<!DOCTYPE svg PUBLIC "-//W3C//DTD SVG 1.1//EN" "http://www.w3.org/Graphics/SVG/1.1/DTD/svg11.dtd">
<svg version="1.1" id="图层_1" xmlns="http://www.w3.org/2000/svg" xmlns:xlink="http://www.w3.org/1999/xlink" x="0px" y="0px"
	 width="300px" height="300px" viewBox="0 0 300 300" enable-background="new 0 0 300 300" xml:space="preserve">
<g>
	<g>
		<path fill-rule="evenodd" clip-rule="evenodd" d="M271.887,94.577h-46.688v18.675h46.688v168.074H29.114V113.251h46.687V94.577
			H29.114c-10.313,0-18.675,8.362-18.675,18.675v168.074C10.439,291.639,18.8,300,29.114,300h242.773
			c10.313,0,18.675-8.361,18.675-18.675V113.251C290.562,102.938,282.199,94.577,271.887,94.577z M107.488,63.482l33.675-32.958
			v138.752c0,5.161,4.176,9.337,9.337,9.337s9.338-4.176,9.338-9.337V32.82l30.492,30.735c3.656,3.684,9.647,3.748,13.386,0.137
			c3.739-3.606,3.803-9.516,0.146-13.204L157.521,3.783c-2.839-2.864-7.081-3.529-10.588-2.003
			c-2.107,0.165-4.171,1.039-5.798,2.632L94.43,50.137c-3.684,3.606-3.748,9.516-0.146,13.204
			C97.895,67.025,103.804,67.089,107.488,63.482z"/>
	</g>
</g>
</svg>
