<?xml version="1.0" encoding="utf-8"?>
<!-- Generator: Adobe Illustrator 16.0.0, SVG Export Plug-In . SVG Version: 6.00 Build 0)  -->
<!DOCTYPE svg PUBLIC "-//W3C//DTD SVG 1.1//EN" "http://www.w3.org/Graphics/SVG/1.1/DTD/svg11.dtd">
<svg version="1.1" id="图层_1" xmlns="http://www.w3.org/2000/svg" xmlns:xlink="http://www.w3.org/1999/xlink" x="0px" y="0px"
	 width="300px" height="300px" viewBox="0 0 300 300" enable-background="new 0 0 300 300" xml:space="preserve">
<g>
	<g>
		<path d="M150.131,0.705C68.184,0.705,1.754,67.771,1.754,150.5c0,82.729,66.43,149.795,148.377,149.795
			c81.941,0,148.377-67.065,148.377-149.795C298.508,67.771,232.072,0.705,150.131,0.705z M220.403,112.556l-74.453,80.659
			c-2.082,2.251-4.805,3.376-7.522,3.376c-2.723,0-5.441-1.125-7.522-3.376L88.36,147.13c-4.152-4.501-4.152-11.798,0-16.299
			c4.158-4.501,10.892-4.501,15.039,0l35.029,37.944l66.93-72.506c4.152-4.507,10.893-4.507,15.045,0
			C224.556,100.769,224.556,108.055,220.403,112.556z"/>
	</g>
</g>
</svg>
