<?xml version="1.0" encoding="utf-8"?>
<!-- Generator: Adobe Illustrator 16.0.0, SVG Export Plug-In . SVG Version: 6.00 Build 0)  -->
<!DOCTYPE svg PUBLIC "-//W3C//DTD SVG 1.1//EN" "http://www.w3.org/Graphics/SVG/1.1/DTD/svg11.dtd">
<svg version="1.1" id="图层_1" xmlns="http://www.w3.org/2000/svg" xmlns:xlink="http://www.w3.org/1999/xlink" x="0px" y="0px"
	 width="300px" height="300px" viewBox="0 0 300 300" enable-background="new 0 0 300 300" xml:space="preserve">
<g>
	<g>
		<path fill-rule="evenodd" clip-rule="evenodd" d="M35.159,165.35L150.963,33.614L266.872,165.35
			c4.618,4.528,12.185,4.439,16.944-0.196c4.707-4.653,4.813-12.077,0.178-16.606L159.452,8.34
			c-2.345-2.273-5.399-3.428-8.489-3.339c-3.073-0.089-6.128,1.065-8.455,3.339L18.002,148.547
			c-4.645,4.529-4.52,11.953,0.213,16.606C22.904,169.789,30.515,169.878,35.159,165.35z M159.452,135.652
			c-2.345-2.273-5.399-3.428-8.489-3.339c-3.073-0.089-6.128,1.065-8.455,3.339L18.002,275.859
			c-4.645,4.529-4.52,11.953,0.213,16.606c4.689,4.636,12.3,4.725,16.944,0.214l115.804-131.753L266.872,292.68
			c4.618,4.511,12.185,4.422,16.944-0.214c4.707-4.653,4.813-12.077,0.178-16.606L159.452,135.652z"/>
	</g>
</g>
</svg>
