<?xml version="1.0" encoding="utf-8"?>
<!-- Generator: Adobe Illustrator 16.0.0, SVG Export Plug-In . SVG Version: 6.00 Build 0)  -->
<!DOCTYPE svg PUBLIC "-//W3C//DTD SVG 1.1//EN" "http://www.w3.org/Graphics/SVG/1.1/DTD/svg11.dtd">
<svg version="1.1" id="图层_1" xmlns="http://www.w3.org/2000/svg" xmlns:xlink="http://www.w3.org/1999/xlink" x="0px" y="0px"
	 width="300px" height="300px" viewBox="0 0 300 300" enable-background="new 0 0 300 300" xml:space="preserve">
<path fill="#666666" d="M149.083,0C66.741,0,0,66.741,0,149.086c0,82.338,66.741,149.083,149.083,149.083
	c82.346,0,149.084-66.744,149.084-149.083C298.167,66.741,231.429,0,149.083,0z M149.083,12.424
	c75.357,0,136.663,61.305,136.663,136.662c0,33.148-11.88,63.576-31.594,87.26c-13.627-5.685-45.791-16.848-65.702-22.724
	c-1.7-0.536-1.963-0.624-1.963-7.688c0-5.835,2.406-11.717,4.747-16.69c2.533-5.404,5.544-14.489,6.621-22.642
	c3.022-3.506,7.135-10.424,9.777-23.606c2.318-11.615,1.241-15.843-0.302-19.812c-0.157-0.419-0.327-0.83-0.449-1.243
	c-0.582-2.726,0.216-16.877,2.208-27.855c1.374-7.535-0.35-23.556-10.728-36.81c-6.546-8.377-19.078-18.659-41.977-20.091
	l-12.555,0.012c-22.508,1.42-35.052,11.702-41.604,20.08C91.855,70.532,90.131,86.553,91.502,94.08
	c2.001,10.986,2.79,25.138,2.219,27.81c-0.119,0.466-0.292,0.877-0.46,1.296c-1.529,3.969-2.621,8.197-0.292,19.812
	c2.632,13.182,6.747,20.1,9.777,23.606c1.069,8.152,4.077,17.237,6.625,22.642c1.858,3.954,2.732,9.335,2.732,16.946
	c0,7.064-0.268,7.151-1.858,7.653c-20.586,6.079-53.359,17.919-65.573,23.271c-20.106-23.795-32.249-54.521-32.249-88.029
	C12.424,73.729,73.729,12.424,149.083,12.424z M53.673,246.8c13.988-5.713,41.883-15.659,60.202-21.075
	c10.654-3.354,10.654-12.329,10.654-19.533c0-5.974-0.414-14.785-3.908-22.233c-2.402-5.102-5.146-13.849-5.751-20.697
	c-0.133-1.602-0.885-3.087-2.099-4.135c-1.759-1.549-5.337-7.187-7.621-18.565c-1.808-9.009-1.042-10.98-0.302-12.885
	c0.317-0.815,0.62-1.614,0.862-2.519c1.491-5.454-0.169-23.367-1.978-33.302c-0.789-4.319,0.207-16.592,8.287-26.928
	c7.242-9.263,18.21-14.425,32.195-15.319l11.787-0.009c14.361,0.903,25.333,6.065,32.589,15.328
	c8.078,10.336,9.063,22.609,8.271,26.933c-1.794,9.93-3.472,27.843-1.975,33.291c0.25,0.911,0.541,1.709,0.855,2.525
	c0.746,1.904,1.509,3.875-0.291,12.885c-2.276,11.378-5.87,17.016-7.629,18.565c-1.199,1.048-1.957,2.533-2.097,4.135
	c-0.594,6.849-3.343,15.596-5.741,20.697c-2.755,5.853-5.917,13.65-5.917,21.978c0,7.21,0,16.178,10.762,19.567
	c17.529,5.183,45.552,14.81,60.355,20.627c-24.716,24.471-58.672,39.611-96.101,39.611C111.993,285.741,78.327,270.868,53.673,246.8
	z"/>
</svg>
