<?xml version="1.0" encoding="utf-8"?>
<!-- Generator: Adobe Illustrator 17.0.1, SVG Export Plug-In . SVG Version: 6.00 Build 0)  -->
<!DOCTYPE svg PUBLIC "-//W3C//DTD SVG 1.1//EN" "http://www.w3.org/Graphics/SVG/1.1/DTD/svg11.dtd">
<svg version="1.1" id="图层_1" xmlns="http://www.w3.org/2000/svg" xmlns:xlink="http://www.w3.org/1999/xlink" x="0px" y="0px"
	 width="300px" height="300px" viewBox="0 0 300 300" enable-background="new 0 0 300 300" xml:space="preserve">
<g>
	<path fill="#D01C1B" d="M151.386,83.155c19.191,0,40.376-3.397,76.762-25.588c23.384-14.258,47.906-32.915,61.83-44.775
		C283.581,4.263,275.052,0,262.261,0H36.246C25.586,0,14.925,4.263,8.527,12.792c10.66,8.528,23.456,19.191,42.646,31.984
		C89.551,74.626,113.007,83.155,151.386,83.155"/>
	<path fill="#D01C1B" d="M116.152,174.096h-7.197c-3.339,0.211-5.114,1.985-5.32,5.32v32.23c0.206,3.339,1.98,5.114,5.32,5.319
		h6.884c3.755-0.205,5.735-2.083,5.946-5.633v-31.917C121.574,176.081,119.697,174.307,116.152,174.096z"/>
	<path fill="#D01C1B" d="M168.723,174.096h-7.197c-3.34,0.211-5.114,1.985-5.319,5.32v32.23c0.205,3.339,1.979,5.114,5.319,5.319
		h6.884c3.755-0.205,5.735-2.083,5.945-5.633v-31.917C174.145,176.081,172.268,174.307,168.723,174.096z"/>
	<path fill="#D01C1B" d="M298.507,34.115c-12.794,10.66-36.246,29.851-66.099,46.908c-25.585,14.925-55.438,21.322-83.155,21.322
		c-31.981,0-59.702-4.265-98.081-29.852C27.719,55.438,6.396,38.378,0,34.115v2.131v228.145c0,19.191,14.925,34.116,36.246,34.116
		h228.147c19.188,0,36.246-14.925,36.246-36.247L298.507,34.115z M198.139,172.341h50.625v8.553h-50.625V172.341z M66.711,227.605
		h-12.83v-64.774h12.83V227.605z M134.301,212.585c-0.21,9.808-5.32,14.81-15.333,15.021h-12.517
		c-9.808-0.421-14.917-5.109-15.333-14.082v-35.359c0.416-9.804,5.632-14.912,15.646-15.333h12.204
		c9.593,0.626,14.707,5.529,15.333,14.707V212.585z M186.872,212.585c-0.211,9.808-5.32,14.81-15.333,15.021h-12.518
		c-9.808-0.421-14.917-5.109-15.333-14.082v-35.359c0.416-9.804,5.632-14.912,15.646-15.333h12.204
		c9.593,0.626,14.707,5.529,15.333,14.707V212.585z M251.308,198.232h-10.172v20.574c-0.157,0.924,0.385,1.385,1.618,1.385h8.554
		v7.63h-14.101c-3.699,0-5.78-1.929-6.242-5.781V203.78c0-3.699-2.003-5.548-6.01-5.548h-8.321l-7.629,29.357h-10.634l7.859-29.357
		h-10.865v-8.553h55.943V198.232z"/>
</g>
</svg>
