<?xml version="1.0" encoding="utf-8"?>
<!-- Generator: Adobe Illustrator 16.0.0, SVG Export Plug-In . SVG Version: 6.00 Build 0)  -->
<!DOCTYPE svg PUBLIC "-//W3C//DTD SVG 1.1//EN" "http://www.w3.org/Graphics/SVG/1.1/DTD/svg11.dtd">
<svg version="1.1" id="图层_1" xmlns="http://www.w3.org/2000/svg" xmlns:xlink="http://www.w3.org/1999/xlink" x="0px" y="0px"
	 width="300px" height="300px" viewBox="0 0 300 300" enable-background="new 0 0 300 300" xml:space="preserve">
<path fill="#D01C1B" d="M151.386,83.155c19.191,0,40.376-3.397,76.762-25.588c23.384-14.258,47.906-32.915,61.83-44.775
	C283.581,4.263,275.052,0,262.261,0H36.246C25.586,0,14.925,4.263,8.527,12.792c10.66,8.528,23.456,19.191,42.646,31.984
	C89.551,74.626,113.007,83.155,151.386,83.155"/>
<path fill="#D01C1B" d="M298.507,34.115c-12.794,10.66-36.246,29.851-66.099,46.908c-25.585,14.925-55.438,21.322-83.155,21.322
	c-31.981,0-59.702-4.265-98.081-29.852C27.719,55.438,6.396,38.378,0,34.115v2.131v228.145c0,19.191,14.925,34.116,36.246,34.116
	h228.147c19.188,0,36.246-14.925,36.246-36.247L298.507,34.115z"/>
<path fill="#FFFFFF" d="M107.842,159.828v12.289H77.801v14.677h16.045c8.875,0.229,13.538,4.439,13.996,12.631v18.432
	c-0.229,8.193-5.121,12.401-14.681,12.631H64.149v-11.606h30.037v-11.945c-0.682-4.779-3.873-7.395-9.556-7.853H64.149v-39.255
	H107.842z"/>
<path fill="#FFFFFF" d="M166.891,175.873v38.229c-0.229,10.699-5.8,16.156-16.725,16.386h-13.654
	c-10.7-0.458-16.271-5.573-16.725-15.36v-38.572c0.455-10.693,6.146-16.267,17.066-16.727h13.313
	C160.633,160.512,166.211,165.861,166.891,175.873 M153.24,212.737v-34.818c-0.232-3.636-2.282-5.572-6.145-5.802h-7.85
	c-3.646,0.229-5.579,2.166-5.804,5.802v35.16c0.225,3.644,2.158,5.578,5.804,5.802h7.508
	C150.849,218.657,153.008,216.609,153.24,212.737"/>
<path fill="#FFFFFF" d="M240.127,190.37v10.001h-11.894v24.057c-0.184,1.081,0.45,1.62,1.892,1.62h10.002v8.922h-16.488
	c-4.325,0-6.758-2.255-7.299-6.76v-21.352c0-4.325-2.342-6.487-7.027-6.487h-9.73l-8.92,34.326h-12.434l9.189-34.326h-12.704V190.37
	H240.127z M177.958,170.098h59.195v10.001h-59.195V170.098z"/>
</svg>
