<?xml version="1.0" encoding="utf-8"?>
<!-- Generator: Adobe Illustrator 16.0.0, SVG Export Plug-In . SVG Version: 6.00 Build 0)  -->
<!DOCTYPE svg PUBLIC "-//W3C//DTD SVG 1.1//EN" "http://www.w3.org/Graphics/SVG/1.1/DTD/svg11.dtd">
<svg version="1.1" id="图层_1" xmlns="http://www.w3.org/2000/svg" xmlns:xlink="http://www.w3.org/1999/xlink" x="0px" y="0px"
	 width="300px" height="300px" viewBox="0 0 300 300" enable-background="new 0 0 300 300" xml:space="preserve">
<g>
	<g>
		<path fill-rule="evenodd" clip-rule="evenodd" fill="#555555" d="M148.752,0C66.602,0,0,66.597,0,148.757
			c0,82.152,66.602,148.748,148.752,148.748c82.152,0,148.75-66.596,148.75-148.748C297.502,66.597,230.904,0,148.752,0z
			 M153.019,280.558c-73.934,0-135.983-53.55-135.983-127.484c0-73.943,53.55-135.984,127.485-135.984
			c73.935,0,135.985,62.041,135.985,135.984C280.505,227.008,226.953,280.558,153.019,280.558z M221.011,93.58H76.528
			c-4.698,0-8.499,3.801-8.499,8.499c0,4.689,3.801,8.499,8.499,8.499h144.483c4.698,0,8.499-3.81,8.499-8.499
			C229.51,97.381,225.709,93.58,221.011,93.58z M221.011,144.574H76.528c-4.698,0-8.499,3.801-8.499,8.499
			c0,4.689,3.801,8.498,8.499,8.498h144.483c4.698,0,8.499-3.809,8.499-8.498C229.51,148.375,225.709,144.574,221.011,144.574z
			 M221.011,195.568H76.528c-4.698,0-8.499,3.801-8.499,8.499c0,4.697,3.801,8.498,8.499,8.498h144.483
			c4.698,0,8.499-3.801,8.499-8.498C229.51,199.369,225.709,195.568,221.011,195.568z"/>
	</g>
</g>
</svg>
