<?xml version="1.0" encoding="utf-8"?>
<!-- Generator: Adobe Illustrator 16.0.0, SVG Export Plug-In . SVG Version: 6.00 Build 0)  -->
<!DOCTYPE svg PUBLIC "-//W3C//DTD SVG 1.1//EN" "http://www.w3.org/Graphics/SVG/1.1/DTD/svg11.dtd">
<svg version="1.1" id="图层_1" xmlns="http://www.w3.org/2000/svg" xmlns:xlink="http://www.w3.org/1999/xlink" x="0px" y="0px"
	 width="300px" height="300px" viewBox="0 0 300 300" enable-background="new 0 0 300 300" xml:space="preserve">
<path d="M262.075,8.993l-111.59,111.715L38.909,8.993c-8.215-8.228-21.538-8.228-29.753,0c-8.222,8.222-8.222,21.564,0,29.792
	l111.577,111.708L9.156,262.214c-8.222,8.222-8.222,21.558,0,29.792c8.215,8.223,21.538,8.223,29.753,0l111.577-111.721
	l111.59,111.721c8.209,8.223,21.531,8.223,29.74,0c8.222-8.234,8.222-21.57,0-29.792L180.252,150.493L291.815,38.785
	c8.222-8.229,8.222-21.564,0-29.792C283.606,0.765,270.284,0.765,262.075,8.993L262.075,8.993z M262.075,8.993"/>
</svg>
