<?xml version="1.0" encoding="utf-8"?>
<!-- Generator: Adobe Illustrator 16.0.0, SVG Export Plug-In . SVG Version: 6.00 Build 0)  -->
<!DOCTYPE svg PUBLIC "-//W3C//DTD SVG 1.1//EN" "http://www.w3.org/Graphics/SVG/1.1/DTD/svg11.dtd">
<svg version="1.1" id="图层_1" xmlns="http://www.w3.org/2000/svg" xmlns:xlink="http://www.w3.org/1999/xlink" x="0px" y="0px"
	 width="300px" height="300px" viewBox="0 0 300 300" enable-background="new 0 0 300 300" xml:space="preserve">
<path d="M245.355,117.359h-0.729c-5.421,0-9.873,1.583-14.161,4.299c-3.754-11.148-13.298-19.18-25.577-19.18
	c-5.431,0-10.604,1.583-14.893,4.289c-3.753-11.148-13.298-19.181-25.586-19.181c-4.794,0-9.246,1.224-13.196,3.373V62.276
	c0-15.621-11.589-28.282-27.036-28.282c-15.447,0-27.963,12.661-27.963,28.282v109.814l-16.989-17.236
	c-10.922-11.044-30.246-9.471-39.543,0c-9.297,9.483-15.395,28.55-2.087,42.115l78.099,79.054c1.615,1.625,3.384,2.982,5.244,4.135
	C135.171,291.996,151.493,299,185.996,299c78.808,0,86.109-43.328,86.109-96.776v-56.572
	C272.105,130.029,260.804,117.359,245.355,117.359L245.355,117.359z M257.389,202.224c0,45.23-0.216,81.885-71.403,81.885
	c-30.154,0-48.254-6.851-61.973-20.724l-73.923-74.838c-6.54-6.665-4.895-15.19,0.453-20.651c5.357-5.45,15.189-5.635,20.362-0.412
	c0,0,12.968,13.145,24.137,24.468c8.463,8.567,15.89,16.094,15.89,16.094V65.259c0-7.405,5.934-13.4,13.246-13.4
	c7.312,0,12.321,5.996,12.321,13.4v90.809h0.153c-0.103,0.484-0.153,0.988-0.153,1.492c0,4.113,3.3,7.446,7.363,7.446
	c4.062,0,7.352-3.333,7.352-7.446c0-0.504-0.05-1.008-0.145-1.492h0.145V118.85c0-7.394,5.296-13.4,12.609-13.4
	c0,0,12.968-0.175,12.968,13.4v49.127h0.145c-0.093,0.485-0.145,0.988-0.145,1.492c0,4.114,3.292,7.444,7.354,7.444
	s7.363-3.33,7.363-7.444c0-0.504-0.052-1.007-0.153-1.492h0.153v-34.236c0-7.404,5.204-13.4,12.516-13.4
	c0,0,13.236,0.843,13.236,13.4v43.173h0.145c-0.093,0.485-0.145,0.978-0.145,1.492c0,4.114,3.29,7.446,7.354,7.446
	c4.062,0,7.18-3.332,7.18-7.446c0-0.515-0.053-1.007-0.145-1.492h0.145V147.43c0-7.395,5.449-13.389,12.772-13.389
	c0,0,12.823-0.536,12.823,13.389V202.224L257.389,202.224z M85.292,104.452V79.431c-2.344-5.328-3.671-11.231-3.671-17.442
	c0-23.715,18.861-42.927,42.124-42.927c23.272,0,42.125,19.211,42.125,42.927c0,3.229-0.371,6.376-1.051,9.4
	c5.308,0.215,10.091,2.458,13.565,6.057c1.349-4.926,2.141-10.088,2.141-15.457c0-31.963-25.423-57.859-56.78-57.859
	c-31.357,0-56.769,25.896-56.769,57.859C66.976,78.793,74.052,93.891,85.292,104.452L85.292,104.452z M85.292,104.452"/>
</svg>
