<?xml version="1.0" encoding="utf-8"?>
<!-- Generator: Adobe Illustrator 16.0.0, SVG Export Plug-In . SVG Version: 6.00 Build 0)  -->
<!DOCTYPE svg PUBLIC "-//W3C//DTD SVG 1.1//EN" "http://www.w3.org/Graphics/SVG/1.1/DTD/svg11.dtd">
<svg version="1.1" id="图层_1" xmlns="http://www.w3.org/2000/svg" xmlns:xlink="http://www.w3.org/1999/xlink" x="0px" y="0px"
	 width="300px" height="300px" viewBox="0 0 300 300" enable-background="new 0 0 300 300" xml:space="preserve">
<path fill="#555555" d="M268.185,256.741c0-23.634-18.799-42.801-41.982-42.801c-10.313,0-19.634,3.95-26.949,10.238l-83.213-54.208
	c3.199-6.047,5.187-12.853,5.187-20.202c0-6.698-1.645-12.949-4.343-18.591l83.438-54.918c7.157,5.754,16.068,9.324,25.881,9.324
	c23.184,0,41.982-19.162,41.982-42.788C268.185,19.163,249.386,0,226.202,0c-23.191,0-41.99,19.167-41.99,42.797
	c0,5.833,1.16,11.399,3.248,16.464l-83.797,55.165l0.902,1.412c-7.057-5.479-15.776-8.861-25.338-8.861
	c-23.184,0-41.982,19.154-41.982,42.784c0,23.634,18.799,42.792,41.982,42.792c8.167,0,15.709-2.464,22.156-6.572l85.627,55.778
	c-1.729,4.669-2.789,9.688-2.789,14.974c0,23.637,18.799,42.793,41.981,42.793c23.184,0,42.008-19.156,42.008-42.793l0,0
	L268.185,256.741z M214.52,60.56l-8.553-13.496l-0.292,0.192c-0.301-1.445-0.477-2.94-0.477-4.472
	c0-11.821,9.404-21.392,20.995-21.392c11.601,0,20.996,9.571,20.996,21.392c0,11.813-9.396,21.396-20.996,21.396
	c-4.325,0-8.326-1.336-11.666-3.621l0,0H214.52z M58.232,149.752c0-11.805,9.404-21.388,20.995-21.388
	c11.6,0,20.995,9.575,20.995,21.388c0,11.825-9.395,21.396-20.995,21.396C67.636,171.148,58.232,161.577,58.232,149.752
	L58.232,149.752L58.232,149.752z M205.19,256.741c0-11.817,9.403-21.396,20.995-21.396c11.601,0,20.995,9.57,20.995,21.396
	c0,11.81-9.395,21.397-20.995,21.397C214.594,278.139,205.19,268.551,205.19,256.741L205.19,256.741L205.19,256.741z
	 M205.19,256.741"/>
</svg>
