<?xml version="1.0" encoding="utf-8"?>
<!-- Generator: Adobe Illustrator 16.0.0, SVG Export Plug-In . SVG Version: 6.00 Build 0)  -->
<!DOCTYPE svg PUBLIC "-//W3C//DTD SVG 1.1//EN" "http://www.w3.org/Graphics/SVG/1.1/DTD/svg11.dtd">
<svg version="1.1" id="图层_1" xmlns="http://www.w3.org/2000/svg" xmlns:xlink="http://www.w3.org/1999/xlink" x="0px" y="0px"
	 width="300px" height="300px" viewBox="0 0 300 300" enable-background="new 0 0 300 300" xml:space="preserve">
<path fill-rule="evenodd" clip-rule="evenodd" fill="#666666" d="M258.057,113.736c-0.512,0.123-1.021,0.177-1.526,0.177
	c-2.948,0-5.616-1.974-6.334-4.92c-3.026-12.42-26.043-17.353-34.832-19.096c-2.51,4.852-7.574,8.214-13.481,8.214
	c-3.678,0-7.001-1.338-9.627-3.482c0.814,0.8,1.64,1.616,2.558,2.595c1.198,0.981,2.316,1.927,3.314,2.824
	c0.115,0.094,0.217,0.191,0.327,0.29l-0.007,0.005c1.356,1.269,3.555,3.46,6.254,6.261c3.545,1.354,6.261,4.274,7.397,7.921
	c15.786,17.402,39.562,46.742,50.078,74.36c12.057,31.704,12.915,44.686,12.75,55.275c-0.22,14.6-0.813,53.371-70.188,54.111
	c-38.547,0.425-46.399,0.668-108.395-0.238c-69.492-1.007-70.101-39.408-70.327-53.873c-0.167-10.583,0.679-23.571,12.759-55.275
	c12.196-32.041,33.75-63.59,64.06-88.856c0.863-0.719,1.771-1.75,2.706-3.066c1.472-3.036,2.163-6.124,2.255-9.207
	c-1.63,0.328-3.251,0.59-4.878,0.951c-3.227,0.698-6.433-1.283-7.157-4.458c-0.727-3.182,1.3-6.338,4.527-7.053
	c1.779-0.396,3.531-0.677,5.301-1.033c-3.574-9.348-10.785-18.119-16.376-24.896c-1.222-1.475-2.352-2.85-3.357-4.114
	c-7.317-7.808-10.042-20.367-11.207-26.797c-0.158-0.889-0.269-1.555-0.363-1.923l-0.467-1.625
	C70.554,5.383,70.421,4.938,72.403,2.359C73.533,0.887,75.342,0,77.22,0c3.316,0,4.93,2.342,5.994,3.892
	c1.37,1.991,2.413,3.258,3.102,3.782c1.041-0.231,2.649-0.366,4.543-0.366c4.515,0,10.118,0.736,16.6,1.597
	c6.888,0.908,14.696,1.935,21.858,2.081c0.009,0,0.021,0,0.031,0c7.367,0,12.837-2.271,18.635-4.685
	c6.504-2.706,13.312-5.513,21.698-4.923c10.539,0.743,18.083,6.025,24.737,10.688c3.574,2.503,6.952,4.871,10.49,6.35
	c4.218,1.753,10.733-0.033,15.421-1.592c2.826-0.936,5.051-1.677,7.239-1.677c2.819,0,4.581,1.233,5.556,2.257
	c4.873,2.465,2.977,7.74,2.34,9.537c-0.42,1.163-1.052,2.937-1.958,5.683c-3.265,9.922-19.029,20.683-35.58,33.525
	c-1.502,1.166-2.645,2.047-3.265,2.564c-0.868,0.722-2.564,2.338-4.151,4.666c2.778-3.13,6.819-5.147,11.372-5.147
	c5.166,0,9.724,2.557,12.46,6.447c4.796-3.364,12.965-11.61,13.675-14.939c0.725-3.374,4.048-5.791,7.514-5.232
	c3.451,0.571,5.859,3.503,5.409,6.921c-0.663,5.128-6.284,12.46-12.557,18.258c13.243,3.569,30.706,10.769,34.485,26.307
	C263.713,109.443,261.558,112.908,258.057,113.736z M243.832,278.402c0.523-0.25,0.937-0.535,1.437-0.79
	c-0.852-1.058-1.437-2.353-1.437-3.817V278.402z M218.938,284.583v-0.066c-0.068,0.038-0.146,0.055-0.22,0.092
	C218.792,284.602,218.865,284.59,218.938,284.583z M50.163,273.795c0.384,0.293,0.776,0.583,1.184,0.863
	c0.08-0.28,0.076-0.59,0.175-0.863H50.163z M189.253,285.623c-0.085-0.182-0.238-0.328-0.323-0.51
	c-0.42,0.217-0.88,0.363-1.323,0.533C188.146,285.635,188.706,285.635,189.253,285.623z M181.979,285.715
	c-0.512-0.177-1.017-0.358-1.496-0.602c-0.104,0.225-0.285,0.401-0.396,0.625C180.714,285.731,181.346,285.72,181.979,285.715z
	 M187.819,77.744c0-1.72-1.399-3.111-3.111-3.111H172.26h-49.793h-6.223c-1.72,0-3.111,1.392-3.111,3.111v6.223
	c0,1.717,1.392,3.114,3.111,3.114h3.56c0,0.021-0.005,0.047-0.005,0.071c1.736-0.111,3.68-0.071,5.782-0.071h43.568
	c2.225,0,4.276-0.047,6.084,0.095c-0.008-0.038-0.02-0.062-0.02-0.095h9.495c1.712,0,3.111-1.396,3.111-3.114V77.744z
	 M187.406,87.42c-0.038-0.012-0.08-0.021-0.123-0.033c0.316,1.696,0.948,2.845,2.006,4.121
	C188.451,90.274,187.854,88.878,187.406,87.42z M186.76,148.906l-29.756,39.081h-6.603l-29.753-39.081h-19.836l37.214,50.203
	h-18.671v12.448h24.896v24.896h-24.896v12.445h24.896v24.896h18.671v-24.896h24.896v-12.445h-24.896v-24.896h24.896v-12.448h-18.671
	l37.445-50.203H186.76z"/>
</svg>
