<?xml version="1.0" encoding="utf-8"?>
<!-- Generator: Adobe Illustrator 16.0.0, SVG Export Plug-In . SVG Version: 6.00 Build 0)  -->
<!DOCTYPE svg PUBLIC "-//W3C//DTD SVG 1.1//EN" "http://www.w3.org/Graphics/SVG/1.1/DTD/svg11.dtd">
<svg version="1.1" id="图层_1" xmlns="http://www.w3.org/2000/svg" xmlns:xlink="http://www.w3.org/1999/xlink" x="0px" y="0px"
	 width="300px" height="300px" viewBox="0 0 300 300" enable-background="new 0 0 300 300" xml:space="preserve">
<path d="M198.775,291.129l-51.187-33.334l-45.358,33.334L59.122,260.01L11.5,290.242V0h279v289.969l-52.17-32.174 M132.686,78.303
	c-1.563,6.112-3.388,11.467-5.461,16.04H61.728v15.281h54.587c-10.922,11.728-29.117,22.152-54.587,31.321v16.04
	c2.062-0.496,4.928-1.527,8.577-3.057c9.868-3.043,16.893-5.591,21.051-7.64v6.882h21.832v0.758
	c2.595,21.904-12.747,36.428-46.01,43.547v14.512c49.908-7.133,73.565-26.738,70.958-58.816h44.446v29.023
	c0.522,7.143-3.387,10.436-11.691,9.938h-13.256v16.041h23.396c18.184,0.498,27.021-7.9,26.512-25.209v-36.675
	c1.552,0.521,3.897,1.279,7.013,2.298c10.39,3.566,18.717,6.113,24.96,7.641v-15.282c-22.887-7.131-40.039-17.567-51.459-31.321
	h51.459V94.343h-84.996c2.074-4.573,3.897-9.928,5.461-16.04h71.741V63.021h-24.179c3.115-5.591,5.461-12.983,7.013-22.152H191.94
	c-1.043,8.15-3.116,15.542-6.231,22.152h-24.178c0.509-4.572,0.781-9.667,0.781-15.269V34.756h-26.511v15.282v12.983h-21.832
	c-2.606-6.61-4.68-14.002-6.231-22.152H84.33c2.606,10.2,4.94,17.58,7.025,22.152H69.522v15.282H132.686L132.686,78.303z
	 M159.979,109.624c8.825,11.728,18.966,20.884,30.397,27.506h-79.534c15.601-7.641,27.293-16.809,35.088-27.506H159.979
	L159.979,109.624z M159.979,109.624"/>
</svg>
