<?xml version="1.0" encoding="utf-8"?>
<!-- Generator: Adobe Illustrator 16.0.0, SVG Export Plug-In . SVG Version: 6.00 Build 0)  -->
<!DOCTYPE svg PUBLIC "-//W3C//DTD SVG 1.1//EN" "http://www.w3.org/Graphics/SVG/1.1/DTD/svg11.dtd">
<svg version="1.1" id="图层_1" xmlns="http://www.w3.org/2000/svg" xmlns:xlink="http://www.w3.org/1999/xlink" x="0px" y="0px"
	 width="300px" height="300px" viewBox="0 0 300 300" enable-background="new 0 0 300 300" xml:space="preserve">
<g>
	<g>
		<path d="M150.507,2.003c-82.014,0-148.5,66.482-148.5,148.497c0,82.014,66.486,148.5,148.5,148.5
			C232.515,299,299,232.514,299,150.5C299,68.486,232.515,2.003,150.507,2.003z M245.916,245.909
			c-12.396,12.403-26.822,22.13-42.893,28.93c-16.625,7.027-34.3,10.599-52.517,10.599c-18.223,0-35.893-3.571-52.523-10.599
			c-16.063-6.8-30.49-16.526-42.893-28.93c-12.396-12.39-22.126-26.829-28.92-42.893c-7.033-16.624-10.601-34.294-10.601-52.517
			c0-18.224,3.568-35.892,10.601-52.517c6.794-16.064,16.524-30.497,28.92-42.896C67.493,42.691,81.92,32.961,97.983,26.163
			c16.631-7.029,34.3-10.597,52.523-10.597c18.217,0,35.892,3.568,52.517,10.597c16.07,6.798,30.497,16.528,42.893,28.924
			c12.396,12.399,22.129,26.832,28.924,42.896c7.032,16.625,10.598,34.293,10.598,52.517c0,18.223-3.565,35.893-10.598,52.517
			C268.045,219.08,258.312,233.52,245.916,245.909z M94.542,103.823l13.163-12.969c-9.295-10.456-20.131-20.583-32.515-30.391
			L62.414,72.47C76.221,83.563,86.922,94.012,94.542,103.823z M143.313,119.114h62.14c-4.267,11.745-9.875,22.517-16.844,32.322
			c-9.546-7.743-19.873-15.42-30.974-23.033l-10.835,12.97c10.835,7.483,21.098,15.418,30.781,23.805
			c-11.102,12.132-24.521,22.394-40.263,30.773l11.229,14.903c16.515-9.288,30.646-20.511,42.391-33.674
			c10.442,9.811,19.931,20.06,28.446,30.773l12.389-14.71c-9.288-10.713-19.228-20.77-29.807-30.193
			c9.289-13.55,16.451-29.034,21.485-46.451v-12.777h-79.938l-0.2-17.811c30.587-1.031,58.131-4.577,82.652-10.643l-9.096-15.681
			c-25.036,6.069-55.23,9.486-90.587,10.259v44.71c-0.645,34.712-6.704,61.619-18.191,80.712l16.644,8.329
			C136.093,184.6,142.282,156.405,143.313,119.114z M183.382,217.057c-11.223,0-24.069-0.13-38.516-0.394
			c-10.836-0.387-19.229-1.998-25.159-4.841c-4.912-2.578-9.489-6.446-13.743-11.61l-2.714-2.713v-73.357H59.894v17.037h26.132
			v54.773c-7.742,3.875-16.457,13.68-26.132,29.421l13.55,12.582c9.933-17.416,16.843-26.132,20.711-26.132
			c2.321,0,4.706,1.618,7.162,4.841c6.066,6.839,12.77,11.352,20.131,13.55c8.251,2.063,18.384,3.165,30.387,3.294
			c16.258,0.258,27.616,0.387,34.062,0.387h44.324l4.461-18.197c-6.46,0.521-13.937,0.845-22.458,0.967
			C199.06,216.927,189.447,217.057,183.382,217.057z"/>
	</g>
</g>
</svg>
