<?xml version="1.0" encoding="utf-8"?>
<!-- Generator: Adobe Illustrator 16.0.0, SVG Export Plug-In . SVG Version: 6.00 Build 0)  -->
<!DOCTYPE svg PUBLIC "-//W3C//DTD SVG 1.1//EN" "http://www.w3.org/Graphics/SVG/1.1/DTD/svg11.dtd">
<svg version="1.1" id="图层_1" xmlns="http://www.w3.org/2000/svg" xmlns:xlink="http://www.w3.org/1999/xlink" x="0px" y="0px"
	 width="300px" height="300px" viewBox="0 0 300 300" enable-background="new 0 0 300 300" xml:space="preserve">
<g>
	<g>
		<path fill-rule="evenodd" clip-rule="evenodd" fill="#555555" d="M214.194,299.018h9.31c-0.124-0.014-0.264-0.024-0.393-0.037
			h-4.57L214.194,299.018z M260.743,56.967h-18.62V38.348c0-21.946-21.51-37.375-43.457-37.375H39.729
			C17.792,0.973,0,18.765,0,40.712v218.531c0,21.937,17.792,39.737,39.729,39.737h158.937c7.09,0,18.226-0.625,24.445,0h35.159
			c21.946,0,39.729-17.801,39.729-39.737V100.306C298,78.368,282.689,56.967,260.743,56.967z M223.504,243.16
			c0,19.019-18.22,37.239-37.238,37.239H46.622c-19.02,0-27.93-18.221-27.93-37.239V56.967c0-19.019,18.22-37.239,37.239-37.239
			h130.335c19.019,0,37.238,18.22,37.238,37.239V243.16z M279.362,252.47c0,19.019-18.219,27.93-37.239,27.93h-9.309
			c3.382-5.847,9.309-11.383,9.309-18.62V75.586h9.31c19.021,0,27.93,8.909,27.93,27.929V252.47z M176.956,75.586H65.24
			c-5.146,0-9.309,4.164-9.309,9.31c0,5.146,4.164,9.309,9.309,9.309h111.716c5.146,0,9.31-4.164,9.31-9.309
			C186.266,79.75,182.102,75.586,176.956,75.586z M176.956,140.753H65.24c-5.146,0-9.309,4.165-9.309,9.311
			c0,5.145,4.164,9.309,9.309,9.309h111.716c5.146,0,9.31-4.164,9.31-9.309C186.266,144.918,182.102,140.753,176.956,140.753z
			 M176.956,205.921H65.24c-5.146,0-9.309,4.165-9.309,9.311s4.164,9.309,9.309,9.309h111.716c5.146,0,9.31-4.163,9.31-9.309
			S182.102,205.921,176.956,205.921z"/>
	</g>
</g>
</svg>
