<?xml version="1.0" encoding="utf-8"?>
<!-- Generator: Adobe Illustrator 16.0.0, SVG Export Plug-In . SVG Version: 6.00 Build 0)  -->
<!DOCTYPE svg PUBLIC "-//W3C//DTD SVG 1.1//EN" "http://www.w3.org/Graphics/SVG/1.1/DTD/svg11.dtd">
<svg version="1.1" id="图层_1" xmlns="http://www.w3.org/2000/svg" xmlns:xlink="http://www.w3.org/1999/xlink" x="0px" y="0px"
	 width="300px" height="300px" viewBox="0 0 300 300" enable-background="new 0 0 300 300" xml:space="preserve">
<g>
	<path fill="#666666" d="M118.072,144.584h-69.15v13.771h61.943C112.875,153.536,115.289,148.931,118.072,144.584L118.072,144.584z
		 M48.922,185.894v13.769h55.34c-0.172-2.271-0.261-4.565-0.261-6.883s0.089-4.615,0.261-6.886H48.922L48.922,185.894z
		 M122.955,247.857H28.268c-7.605,0-13.771-6.165-13.771-13.77V27.541c0-7.605,6.167-13.771,13.771-13.771h123.928v61.966
		c0,15.207,12.332,27.539,27.541,27.539h55.078v10.089c4.871,2.539,9.478,5.507,13.769,8.863V96.389l-2.434-2.434l0.419-2.434
		L161.584,0h-19.25h-7.114h-3.678H28.268C13.058,0,0.727,12.331,0.727,27.541v206.547c0,15.209,12.331,27.54,27.541,27.54h108.049
		C131.388,257.527,126.903,252.912,122.955,247.857L122.955,247.857z M165.965,25.207l60.28,64.297h-46.509
		c-7.605,0-13.77-6.166-13.77-13.771V25.207H165.965z M48.922,117.043h68.848v-13.769H48.922V117.043L48.922,117.043z
		 M297.269,286.808l-35.834-35.844c-3,3.497-6.247,6.746-9.742,9.742l35.842,35.836c2.682,2.69,7.046,2.69,9.734,0
		C299.958,293.854,299.958,289.496,297.269,286.808L297.269,286.808z M193.506,117.043c-41.828,0-75.736,33.908-75.736,75.735
		c0,41.828,33.908,75.734,75.736,75.734c41.827,0,75.734-33.906,75.734-75.734C269.24,150.951,235.333,117.043,193.506,117.043
		L193.506,117.043z M193.506,254.744c-34.224,0-61.965-27.742-61.965-61.966s27.741-61.964,61.965-61.964
		s61.964,27.74,61.964,61.964C255.47,227.002,227.729,254.744,193.506,254.744L193.506,254.744z M117.77,61.964H48.922v13.769
		h68.848V61.964L117.77,61.964z M145.311,192.779c0,2.346,0.223,4.632,0.543,6.883h54.536v-13.769h-54.536
		C145.534,188.146,145.311,190.432,145.311,192.779L145.311,192.779z M159.807,158.354h40.584v-13.22
		c-2.253-0.331-4.538-0.551-6.885-0.551C180.382,144.584,168.5,149.848,159.807,158.354L159.807,158.354z M159.807,158.354"/>
</g>
</svg>
