<?xml version="1.0" encoding="utf-8"?>
<!-- Generator: Adobe Illustrator 16.0.0, SVG Export Plug-In . SVG Version: 6.00 Build 0)  -->
<!DOCTYPE svg PUBLIC "-//W3C//DTD SVG 1.1//EN" "http://www.w3.org/Graphics/SVG/1.1/DTD/svg11.dtd">
<svg version="1.1" id="图层_1" xmlns="http://www.w3.org/2000/svg" xmlns:xlink="http://www.w3.org/1999/xlink" x="0px" y="0px"
	 width="300px" height="300px" viewBox="0 0 300 300" enable-background="new 0 0 300 300" xml:space="preserve">
<path d="M216.711,73.894h-0.012h-80.632c-7.428,0-13.439,6.018-13.439,13.438s6.011,13.445,13.439,13.445h48.189L72.805,212.229
	c-5.245,5.245-5.245,13.758,0,19.003c2.629,2.623,6.063,3.931,9.501,3.931c3.44,0,6.886-1.308,9.501-3.931L203.267,119.78v48.19
	c0,7.421,6.017,13.438,13.438,13.438c7.421,0,13.438-6.018,13.438-13.438V73.894H216.711L216.711,73.894L216.711,73.894
	L216.711,73.894z M149.506,16.93c18.038,0,35.529,3.532,51.992,10.494c15.902,6.726,30.183,16.357,42.461,28.628
	c12.271,12.271,21.899,26.559,28.625,42.466c6.969,16.457,10.497,33.947,10.497,51.986c0,18.04-3.528,35.523-10.497,51.987
	c-6.726,15.901-16.354,30.189-28.625,42.46c-12.278,12.276-26.559,21.906-42.461,28.632c-16.463,6.961-33.954,10.497-51.992,10.497
	c-18.033,0-35.53-3.536-51.987-10.497c-15.909-6.726-30.189-16.355-42.466-28.632c-12.268-12.271-21.9-26.559-28.625-42.46
	c-6.962-16.464-10.494-33.947-10.494-51.987c0-18.039,3.532-35.529,10.494-51.986c6.726-15.908,16.357-30.195,28.625-42.466
	C67.33,43.781,81.61,34.149,97.519,27.424C113.976,20.461,131.473,16.93,149.506,16.93 M149.506,3.507
	C68.325,3.507,2.511,69.319,2.511,150.505c0,81.188,65.814,146.995,146.995,146.995c81.187,0,146.994-65.808,146.994-146.995
	C296.5,69.319,230.692,3.507,149.506,3.507L149.506,3.507L149.506,3.507z M149.506,3.507"/>
</svg>
