<?xml version="1.0" encoding="utf-8"?>
<!-- Generator: Adobe Illustrator 16.0.0, SVG Export Plug-In . SVG Version: 6.00 Build 0)  -->
<!DOCTYPE svg PUBLIC "-//W3C//DTD SVG 1.1//EN" "http://www.w3.org/Graphics/SVG/1.1/DTD/svg11.dtd">
<svg version="1.1" id="图层_1" xmlns="http://www.w3.org/2000/svg" xmlns:xlink="http://www.w3.org/1999/xlink" x="0px" y="0px"
	 width="300px" height="300px" viewBox="0 0 300 300" enable-background="new 0 0 300 300" xml:space="preserve">
<path fill-rule="evenodd" clip-rule="evenodd" fill="#555555" d="M217.991,58.528c-6.594-2.217-13.382-4.003-19.747-6.752
	c-10.855-4.678-21.885-9.251-31.936-15.371c-3.779-2.3-5.011-8.775-7.401-13.348c5.015-1.788,10.321-5.65,14.978-4.979
	c14.024,2.03,28.274,4.457,41.547,9.209c25.659,9.192,50.802,19.857,75.911,30.505c3.635,1.538,5.882,6.339,8.773,9.63
	c-4.559,1.758-8.994,4.403-13.716,5.104c-12.235,1.82-25.576,0.325-36.706,4.676c-17.119,6.687-34.982,13.492-47.323,28.897
	c-1.447,1.812-8.753,2.01-9.463,0.749c-1.947-3.408-3.864-10.04-2.138-11.782c7.169-7.258,15.697-13.187,25.736-21.213
	c-10.771,2.717-19.418,4.463-27.781,7.104c-14.537,4.59-29.29,8.84-43.247,14.868c-16.67,7.199-32.541,16.247-48.881,24.252
	c-15.846,7.762-27.582,19.559-34.606,35.624c-6.721,15.371-1.646,29.485,9.738,39.532c12.319,10.873,27.026,19.041,40.764,28.288
	c9.797,6.58,20.458,12.111,29.379,19.704c10.449,8.905,4.313,29.681-9.04,32.998c-31.474,7.833-63.333,9.311-95.562,6.081
	c-8.562-0.858-17.419,1.009-25.917-0.102c-5.87-0.762-11.753-3.693-11.393-12.077c0.406-9.607,2.484-11.067,11.972-9.633
	c21.182,3.204,42.415,7.482,63.707,7.998c17.652,0.428,35.449-3.707,53.097-6.357c2.441-0.366,6.534-4.384,6.179-5.738
	c-0.833-3.168-3.343-6.678-6.179-8.409c-15.63-9.539-32.152-17.736-47.235-28.037c-16.341-11.151-25.012-28.08-28.419-47.37
	c-2.79-15.857,11.447-43.231,25.299-51.7c14.072-8.602,26.798-19.957,41.678-26.565c23.138-10.276,47.565-17.682,71.541-26.039
	c8.426-2.937,17.114-5.086,25.685-7.597C217.522,59.959,217.755,59.244,217.991,58.528 M242.939,49.476
	c-11.108-6.731-61.323-19.312-65.458-16.396C190.741,44.808,228.03,54.152,242.939,49.476"/>
</svg>
