<?xml version="1.0" encoding="utf-8"?>
<!-- Generator: Adobe Illustrator 16.0.0, SVG Export Plug-In . SVG Version: 6.00 Build 0)  -->
<!DOCTYPE svg PUBLIC "-//W3C//DTD SVG 1.1//EN" "http://www.w3.org/Graphics/SVG/1.1/DTD/svg11.dtd">
<svg version="1.1" id="图层_1" xmlns="http://www.w3.org/2000/svg" xmlns:xlink="http://www.w3.org/1999/xlink" x="0px" y="0px"
	 width="300px" height="300px" viewBox="0 0 300 300" enable-background="new 0 0 300 300" xml:space="preserve">
<path fill="#666666" d="M223.959,292.581c-3.149,0-6.23-1.611-8.006-4.562c-2.718-4.485-1.352-10.384,3.08-13.155
	c39.178-24.563,62.554-67.169,62.554-113.958c0-73.767-58.933-133.776-131.391-133.776c-72.45,0-131.391,60.009-131.391,133.776
	c0,46.341,23.044,88.723,61.643,113.387c4.408,2.818,5.735,8.716,2.964,13.186c-2.756,4.471-8.554,5.854-12.946,3.02
	C26.34,262.321,0,213.879,0,160.906C0,76.598,67.378,8,150.196,8c82.81,0,150.196,68.598,150.196,152.906
	c0,53.475-26.726,102.187-71.508,130.256C227.348,292.127,225.649,292.581,223.959,292.581L223.959,292.581z M288.102,170.625
	H270.91c-5.195,0-9.402-4.285-9.402-9.572c0-5.284,4.207-9.568,9.402-9.568h17.191c5.187,0,9.386,4.284,9.386,9.568
	C297.487,166.34,293.288,170.625,288.102,170.625L288.102,170.625z M29.598,170.323H12.421c-5.188,0-9.402-4.283-9.402-9.564
	c0-5.292,4.214-9.573,9.402-9.573h17.177c5.203,0,9.403,4.281,9.403,9.573C39,166.04,34.8,170.323,29.598,170.323L29.598,170.323z
	 M149.988,49.02c-5.188,0-9.403-4.277-9.403-9.573V21.962c0-5.289,4.215-9.569,9.403-9.569c5.196,0,9.402,4.281,9.402,9.569v17.485
	C159.39,44.746,155.184,49.02,149.988,49.02L149.988,49.02z M90.452,63.984c-3.257,0-6.407-1.718-8.152-4.786l-8.6-15.15
	c-2.594-4.578-1.05-10.425,3.451-13.074c4.47-2.64,10.237-1.081,12.83,3.505l8.6,15.146c2.594,4.579,1.058,10.429-3.451,13.078
	C93.665,63.567,92.05,63.984,90.452,63.984L90.452,63.984z M269.621,239.995c-1.599,0-3.212-0.417-4.693-1.282l-14.893-8.746
	c-4.5-2.647-6.028-8.492-3.442-13.069c2.594-4.569,8.36-6.146,12.846-3.505l14.892,8.739c4.501,2.655,6.036,8.491,3.443,13.077
	C276.013,238.273,272.879,239.995,269.621,239.995L269.621,239.995z M46.411,108.801c-1.606,0-3.219-0.409-4.701-1.274l-14.876-8.75
	c-4.492-2.648-6.044-8.496-3.442-13.074c2.602-4.567,8.345-6.145,12.837-3.505l14.884,8.747c4.509,2.647,6.045,8.491,3.451,13.073
	C52.819,107.083,49.653,108.801,46.411,108.801L46.411,108.801z M31.55,239.995c-3.25,0-6.415-1.714-8.159-4.786
	c-2.594-4.586-1.05-10.422,3.451-13.077l14.868-8.739c4.493-2.641,10.245-1.08,12.853,3.505c2.594,4.577,1.058,10.422-3.451,13.069
	l-14.868,8.746C34.762,239.578,33.149,239.995,31.55,239.995L31.55,239.995z M254.761,108.801c-3.258,0-6.407-1.706-8.152-4.782
	c-2.602-4.582-1.058-10.426,3.442-13.073l14.877-8.747c4.484-2.64,10.235-1.084,12.846,3.505c2.602,4.578,1.058,10.426-3.443,13.074
	l-14.892,8.75C257.972,108.392,256.358,108.801,254.761,108.801L254.761,108.801z M210.711,63.984c-1.598,0-3.227-0.417-4.686-1.281
	c-4.508-2.648-6.052-8.499-3.451-13.078l8.592-15.146c2.602-4.586,8.346-6.145,12.839-3.505c4.501,2.649,6.045,8.496,3.442,13.074
	l-8.592,15.15C217.11,62.266,213.954,63.984,210.711,63.984L210.711,63.984z M131.159,161.053c0,10.537,8.392,19.091,18.744,19.091
	c10.353,0,18.759-8.554,18.759-19.091c0-10.53-8.406-19.083-18.759-19.083C139.55,141.969,131.159,150.526,131.159,161.053
	L131.159,161.053z M222.993,118.007c2.594,4.569,1.05,10.425-3.451,13.07l-65.108,38.267c-4.5,2.647-10.251,1.08-12.845-3.49
	c-2.593-4.585-1.042-10.437,3.443-13.076l65.124-38.279C214.648,111.862,220.392,113.43,222.993,118.007L222.993,118.007z
	 M222.993,118.007"/>
</svg>
