<?xml version="1.0" encoding="utf-8"?>
<!-- Generator: Adobe Illustrator 16.0.0, SVG Export Plug-In . SVG Version: 6.00 Build 0)  -->
<!DOCTYPE svg PUBLIC "-//W3C//DTD SVG 1.1//EN" "http://www.w3.org/Graphics/SVG/1.1/DTD/svg11.dtd">
<svg version="1.1" id="图层_1" xmlns="http://www.w3.org/2000/svg" xmlns:xlink="http://www.w3.org/1999/xlink" x="0px" y="0px"
	 width="300px" height="300px" viewBox="0 0 300 300" enable-background="new 0 0 300 300" xml:space="preserve">
<g>
	<g>
		<path fill="#666666" d="M206.705,49.946H42.901C32.444,49.946,24,58.314,24,68.677v212.286c0,10.362,8.444,18.73,18.901,18.73
			h163.804c10.462,0,18.904-8.368,18.904-18.73V68.677C225.609,58.314,217.167,49.946,206.705,49.946z M150.007,231.016H49.202
			v-12.492h100.805V231.016z M200.413,181.062H49.202v-12.484h151.211V181.062z M200.413,131.116H49.202v-12.484h151.211V131.116z
			 M257.11,0H93.302c-10.459,0-18.9,8.367-18.9,18.731v18.731H219.31c10.464,0,18.896,8.367,18.896,18.73v193.555h18.904
			c10.456,0,18.904-8.367,18.904-18.731V18.731C276.015,8.367,267.566,0,257.11,0z"/>
	</g>
</g>
</svg>
