<?xml version="1.0" encoding="utf-8"?>
<!-- Generator: Adobe Illustrator 16.0.0, SVG Export Plug-In . SVG Version: 6.00 Build 0)  -->
<!DOCTYPE svg PUBLIC "-//W3C//DTD SVG 1.1//EN" "http://www.w3.org/Graphics/SVG/1.1/DTD/svg11.dtd">
<svg version="1.1" id="图层_1" xmlns="http://www.w3.org/2000/svg" xmlns:xlink="http://www.w3.org/1999/xlink" x="0px" y="0px"
	 width="300px" height="300px" viewBox="0 0 300 300" enable-background="new 0 0 300 300" xml:space="preserve">
<path d="M164.226,234.686c-0.091,0-0.188,0-0.28,0c-19.482-0.79-38.137-3.122-53.938-6.753c-3.588-0.837-5.842-4.417-5.014-8.036
	c0.828-3.62,4.413-5.883,7.987-5.041c15.015,3.449,32.831,5.671,51.508,6.427c3.684,0.161,6.542,3.271,6.393,6.971
	C170.733,231.855,167.789,234.686,164.226,234.686z M198.765,238.632c-3.522,0-6.444-2.749-6.656-6.317
	c-0.224-3.689,2.589-6.879,6.272-7.079c56.348-3.328,86.366-18.891,86.366-28.84c0-3.7,2.985-6.7,6.667-6.7
	c3.678,0,6.668,3,6.668,6.7c0,25.127-49.688,39.321-98.917,42.219C199.016,238.632,198.896,238.632,198.765,238.632z
	 M177.853,207.496c-14.571,0-28.868-0.854-42.497-2.571c-3.651-0.459-6.24-3.809-5.788-7.48c0.456-3.678,3.763-6.329,7.443-5.837
	c29.254,3.66,62.315,3.22,90.087-1.169c3.614-0.48,7.04,1.937,7.618,5.597c0.572,3.644-1.936,7.079-5.563,7.652
	C213.141,206.207,195.871,207.496,177.853,207.496z M257.599,197.095c-2.841,0-5.47-1.839-6.375-4.708
	c-1.094-3.539,0.854-7.297,4.37-8.409c21.496-6.758,29.137-14.65,29.137-19.358c0-11.409-40.162-28.627-103.087-29.632
	c-3.683-0.051-6.615-3.11-6.563-6.81c0.068-3.7,3.15-6.865,6.776-6.595c57.751,0.925,116.226,16.009,116.226,43.038
	c0,9.158-6.685,22.166-38.484,32.166C258.928,197.009,258.252,197.095,257.599,197.095z M46.6,271.199
	c-4.479,0.011-8.548-1.249-11.922-4.198c-2.787-2.429-3.079-6.661-0.679-9.456c2.414-2.802,6.626-3.094,9.402-0.683
	c3.666,3.18,19.508-0.79,46.523-24.846c15.777-13.953,32.338-32.013,47.926-52.231c45.032-58.553,60.982-106.981,52.179-114.612
	c-2.79-2.412-3.11-6.65-0.71-9.451c2.417-2.789,6.604-3.125,9.404-0.71c20.472,17.71-9.828,80.299-50.34,132.977
	c-16.095,20.888-33.255,39.577-49.63,54.074C85.285,254.073,63.15,271.199,46.6,271.199z M23.638,251.112
	c-5.974,0-9.869-2.211-12.174-4.198c-20.497-17.738,9.814-80.284,50.337-132.911c36.525-47.422,76.29-80.806,98.943-83.085
	c7.445-0.765,12.125,1.81,14.749,4.075c9.736,8.379,8.935,26.479-2.469,53.806c-1.409,3.419-5.293,5.026-8.718,3.594
	c-3.386-1.423-5.001-5.35-3.574-8.77c10.602-25.437,8.603-36.268,6.065-38.453c-0.957-0.845-2.543-1.125-4.748-0.913
	c-15.986,1.609-51.936,28.907-89.727,77.953c-45.044,58.485-60.993,106.912-52.19,114.542c0.945,0.818,2.546,1.123,4.757,0.882
	c16.017-1.62,51.967-28.918,89.692-77.947c10-12.981,19.096-26.172,27.014-39.206c1.922-3.179,6.025-4.159,9.165-2.24
	c3.145,1.93,4.146,6.06,2.223,9.21c-8.171,13.475-17.547,27.081-27.854,40.438c-36.457,47.385-76.195,80.782-98.891,83.091
	C25.345,251.072,24.478,251.112,23.638,251.112z M40.452,269.612c-1.532,0-3.064-0.521-4.333-1.608l-23.87-20.482
	c-2.798-2.4-3.133-6.628-0.744-9.439c2.414-2.83,6.612-3.15,9.398-0.756l23.871,20.487c2.801,2.4,3.133,6.627,0.747,9.439
	C44.201,268.811,42.333,269.612,40.452,269.612z M196.163,67.776c-1.534,0-3.081-0.536-4.335-1.609l-23.799-20.5
	c-2.801-2.414-3.122-6.65-0.739-9.454c2.418-2.815,6.627-3.124,9.405-0.736L200.5,55.977c2.794,2.415,3.115,6.65,0.733,9.454
	C199.91,66.982,198.031,67.776,196.163,67.776z M291.316,240.493c-3.676,0-6.666-3.008-6.666-6.701l-0.052-67.094
	c0-3.7,2.989-6.707,6.667-6.707l0,0c3.684,0,6.667,3.007,6.667,6.707l0.058,67.094C297.984,237.475,295.012,240.493,291.316,240.493
	L291.316,240.493z M177.909,271.222c-37.874,0-73.648-5.95-95.717-15.928c-3.362-1.513-4.854-5.482-3.348-8.86
	c1.506-3.38,5.427-4.921,8.814-3.369c20.428,9.228,54.178,14.755,90.25,14.755c65.244,0,106.879-17.446,106.879-29.445
	c0-3.7,2.983-6.702,6.667-6.702c3.677,0,6.667,3.002,6.667,6.702C298.122,256.502,237.649,271.222,177.909,271.222z"/>
</svg>
