<?xml version="1.0" encoding="utf-8"?>
<!-- Generator: Adobe Illustrator 15.0.0, SVG Export Plug-In . SVG Version: 6.00 Build 0)  -->
<!DOCTYPE svg PUBLIC "-//W3C//DTD SVG 1.1//EN" "http://www.w3.org/Graphics/SVG/1.1/DTD/svg11.dtd">
<svg version="1.1" id="图层_1" xmlns="http://www.w3.org/2000/svg" xmlns:xlink="http://www.w3.org/1999/xlink" x="0px" y="0px"
	 width="300px" height="300px" viewBox="0 0 300 300" enable-background="new 0 0 300 300" xml:space="preserve">
<path fill="#555555" d="M110.035,148.116c0-4.971,1.052-9.951,3.079-14.543c2.026-4.6,5.019-8.821,8.762-12.335
	c3.742-3.514,8.226-6.343,13.098-8.249c4.89-1.897,10.167-2.898,15.462-2.898c5.295,0,10.571,0.992,15.461,2.898
	c4.89,1.905,9.374,4.725,13.1,8.249c3.742,3.514,6.734,7.735,8.762,12.335c2.018,4.601,3.078,9.572,3.078,14.543
	c0,4.967-1.053,9.952-3.078,14.54c-2.027,4.604-5.02,8.83-8.762,12.34c-3.742,3.527-8.228,6.339-13.1,8.252
	c-4.89,1.897-10.166,2.897-15.461,2.897c-5.295,0-10.573-1-15.462-2.897c-4.889-1.913-9.373-4.725-13.098-8.252
	c-3.743-3.51-6.744-7.735-8.762-12.34C111.086,158.068,110.035,153.083,110.035,148.116L110.035,148.116z M147.399,55.397
	c-95.431,0-147.081,92.642-147.081,92.642s67.039,92.796,151.187,92.796c84.146,0,149.046-93.603,149.046-93.603
	S242.845,55.397,147.399,55.397L147.399,55.397z M150.436,215.862c-39.754,0-71.989-30.337-71.989-67.746
	c0-37.412,32.234-67.745,71.989-67.745c39.754,0,71.988,30.333,71.988,67.745C222.424,185.525,190.189,215.862,150.436,215.862
	L150.436,215.862z"/>
</svg>
