<?xml version="1.0" encoding="utf-8"?>
<!-- Generator: Adobe Illustrator 16.0.0, SVG Export Plug-In . SVG Version: 6.00 Build 0)  -->
<!DOCTYPE svg PUBLIC "-//W3C//DTD SVG 1.1//EN" "http://www.w3.org/Graphics/SVG/1.1/DTD/svg11.dtd">
<svg version="1.1" id="图层_1" xmlns="http://www.w3.org/2000/svg" xmlns:xlink="http://www.w3.org/1999/xlink" x="0px" y="0px"
	 width="300px" height="300px" viewBox="0 0 300 300" enable-background="new 0 0 300 300" xml:space="preserve">
<g>
	<g>
		<path d="M63.466,190.241v20.011l46.675-40.021l-46.675-40.017v20.011l17.79,13.343H3.464v13.337h77.78L63.466,190.241z
			 M276.83,136.888v-46.69c0-21.611-18.411-40.021-40.002-40.021h-31.173L189.912,3.491L36.802,50.176v0.642
			C18.213,54.346,3.464,72.185,3.464,91.531v51.819l13.327,0.206v-46.69c0-18.667,14.686-33.348,33.337-33.348h180.026
			c18.662,0,33.338,14.681,33.338,33.348v40.021h-53.338c-10.801,0-20.232,10.302-20.232,21.103v33.378
			c0,10.812,9.432,18.884,20.232,18.884h53.338v40.021c0,18.662-14.676,33.348-33.338,33.348H50.128
			c-18.652,0-33.337-14.686-33.337-33.348v-46.685H3.464v54.244c0,21.611,17.504,39.125,39.105,39.125h194.259
			c21.591,0,40.002-18.399,40.002-40.021v-46.685c10.8,0,20-8.072,20-18.884V157.99C296.83,147.19,287.63,136.888,276.83,136.888z
			 M93.147,50.176l86.588-26.855l11.411,26.855H93.147z M283.493,183.578c0,8.626-4.711,13.337-13.327,13.337h-53.349
			c-8.616,0-13.327-4.711-13.327-13.337v-20.011c0-8.637,4.711-13.343,13.327-13.343h53.349c8.616,0,13.327,4.706,13.327,13.343
			V183.578z M223.491,163.567c-5.718,0-10.73,4.247-10.73,9.965c0,5.717,5.013,10.046,10.73,10.046
			c5.707,0,9.965-4.329,9.965-10.046C233.456,167.814,229.198,163.567,223.491,163.567z"/>
	</g>
</g>
</svg>
