<?xml version="1.0" encoding="utf-8"?>
<!-- Generator: Adobe Illustrator 16.0.0, SVG Export Plug-In . SVG Version: 6.00 Build 0)  -->
<!DOCTYPE svg PUBLIC "-//W3C//DTD SVG 1.1//EN" "http://www.w3.org/Graphics/SVG/1.1/DTD/svg11.dtd">
<svg version="1.1" id="图层_1" xmlns="http://www.w3.org/2000/svg" xmlns:xlink="http://www.w3.org/1999/xlink" x="0px" y="0px"
	 width="300px" height="300px" viewBox="0 0 300 300" enable-background="new 0 0 300 300" xml:space="preserve">
<path fill="#666666" d="M278.498,213.431c-2.669-14.717-7.867-27.806-14.627-36.87c-8.365-11.237-21.309-13.031-32.795-13.833
	c-1.873-0.124-3.93-0.19-6.468-0.19c-2.063,0-4.142,0.044-6.374,0.081c-2.172,0.043-4.412,0.087-6.592,0.087
	c-4.878,0-11.048-0.196-15.518-1.698c-1.116-0.372-2.713-1.232-3.748-4.361c-0.817-2.443-1.079-5.674-0.773-9.13
	c0.562-0.54,1.108-1.086,1.663-1.656c8.677-9.021,14.38-20.382,16.685-32.712c3.93-2.756,7.307-6.396,9.655-10.458
	c2.888-5.01,4.112-10.436,3.441-15.299c-0.583-4.142-2.99-11.127-12.368-14.84c0-10.231,0.328-19.448-2.902-29.358
	c-2.968-9.115-7.977-17.582-14.628-24.487C181.569,6.68,166.197,0,149.746,0h-0.117c-16.437,0-31.877,6.687-43.458,18.72
	l-9.287-2.633l-5.378,13.461l-13.4-7.387c-1.346,5.381,10.085,45.497,10.085,45.497c-0.008,1.37-0.015,2.989-0.022,4.754
	c-9.666,3.675-12.126,10.785-12.706,14.978c-0.671,4.864,0.547,10.289,3.431,15.299c2.509,4.332,6.191,8.204,10.468,11.011
	c2.435,12.04,8.186,23.095,16.695,31.933c0.558,0.583,1.123,1.145,1.696,1.699c0.332,3.522,0.069,6.818-0.759,9.312
	c-1.036,3.129-2.632,3.989-3.744,4.361c-4.478,1.502-10.647,1.698-15.521,1.698c-2.181,0-4.42-0.044-6.589-0.087
	c-2.107-0.037-4.288-0.081-6.363-0.081c-2.544,0-4.601,0.066-6.479,0.19c-11.481,0.802-24.429,2.596-32.797,13.833
	c-6.756,9.064-11.956,22.153-14.632,36.87c-2.677,14.693-2.476,28.965,0.58,40.188c0.215,0.795,0.565,1.539,1.024,2.202
	c0.324,0.46,8.139,11.442,27.868,22.073c11.263,6.076,24.265,10.901,38.638,14.351c17.775,4.259,37.734,6.419,59.337,6.419
	c0.453,0,0.919-0.044,1.371-0.147c0.452,0.104,0.904,0.147,1.371,0.147c21.6,0,41.565-2.16,59.337-6.419
	c14.373-3.449,27.375-8.274,38.636-14.351c15.75-8.48,24.924-17.873,27.869-22.073c0.46-0.671,0.811-1.407,1.029-2.202
	C280.978,242.396,281.182,228.124,278.498,213.431z M210.563,82.585c2.589,1.875,3.544,4.171,3.807,6.082
	c0.511,3.675-0.847,7.956-3.807,11.697V82.585z M88.049,100.655c-2.968-3.807-4.562-8.211-4.036-11.988
	c0.267-1.976,1.273-4.383,4.109-6.293C88.09,90.381,88.054,98.343,88.049,100.655z M101.715,100.517V71.282
	c1.112-0.161,18.096-2.523,29.888-15.444l-2.469,15.365l20.532-15.409L146.64,71.18l23.627-15.401c0,0,15.489,10.18,26.223,14.118
	v30.62c0,28.039-20.798,50.85-47.385,50.856C122.516,151.366,101.715,128.556,101.715,100.517z M166.767,213.088l-6.345-25.005
	h-0.016l10.086-18.144H131.69l10.092,18.144h-0.015l-6.446,25.369L114.82,169.51c2.118-2.218,3.766-5.003,4.878-8.357
	c0.452-1.356,0.787-2.72,1.039-4.084c8.652,4.915,18.318,7.649,28.337,7.73c0.227,0.064,0.962,0.072,1.197,0.015
	c10.048-0.081,19.732-2.742,28.389-7.613c0.247,1.319,0.575,2.661,1.014,3.981c1.407,4.244,3.675,7.562,6.665,9.961L166.767,213.088
	z"/>
</svg>
