<?xml version="1.0" encoding="utf-8"?>
<!-- Generator: Adobe Illustrator 16.0.0, SVG Export Plug-In . SVG Version: 6.00 Build 0)  -->
<!DOCTYPE svg PUBLIC "-//W3C//DTD SVG 1.1//EN" "http://www.w3.org/Graphics/SVG/1.1/DTD/svg11.dtd">
<svg version="1.1" id="图层_1" xmlns="http://www.w3.org/2000/svg" xmlns:xlink="http://www.w3.org/1999/xlink" x="0px" y="0px"
	 width="300px" height="300px" viewBox="0 0 300 300" enable-background="new 0 0 300 300" xml:space="preserve">
<path fill="#555555" d="M149,0C66.716,0,0,66.703,0,149c0,82.297,66.716,149,149,149c82.285,0,149-66.703,149-149
	C298,66.716,231.285,0,149,0L149,0z M199.685,205.589l-5.263,5.276c-2.91,2.899-7.638,2.899-10.548,0l-48.309-48.319
	c-1.674-1.675-1.468-5.034-1.468-8.331V59.598c0-4.11,3.335-7.446,7.458-7.446H149c4.11,0,7.445,3.335,7.445,7.446v92.228
	l43.239,43.228C202.595,197.963,202.595,202.679,199.685,205.589L199.685,205.589z M199.685,205.589"/>
</svg>
