<?xml version="1.0" encoding="utf-8"?>
<!-- Generator: Adobe Illustrator 15.0.0, SVG Export Plug-In . SVG Version: 6.00 Build 0)  -->
<!DOCTYPE svg PUBLIC "-//W3C//DTD SVG 1.1//EN" "http://www.w3.org/Graphics/SVG/1.1/DTD/svg11.dtd">
<svg version="1.1" id="图层_1" xmlns="http://www.w3.org/2000/svg" xmlns:xlink="http://www.w3.org/1999/xlink" x="0px" y="0px"
	 width="300px" height="300px" viewBox="0 0 300 300" enable-background="new 0 0 300 300" xml:space="preserve">
<path fill="#555555" d="M163.701,220.702v-44.654c19.681-0.279,17.272-3.632,34.085-11.153l22.714,33.477l22.728-11.153
	l-22.736-33.477c16.641-10.514,14.801-6.788,33.305-21.668l23.492,32.83L300,142.572l-26.632-29.845l0,0
	c8.354-10.164,13.032-18.947,13.032-23.772c0-8.636-15.395-1.356-40.897,19.206c-23.773,19.158-56.384,36.321-92.397,36.321
	c-39.296,0-75.188-20.577-100.376-41.06C30.057,84.98,16.045,81.051,16.045,88.955c0,7.396,6.801,15.994,22.725,31.286l-34.081,33.5
	l22.716,22.322l34.081-33.483c15.476,6.766,4.189,1.513,22.712,11.161l-22.72,44.646l22.72,11.153l22.717-44.646
	c13.282,5.004,19.147,10.421,34.081,11.153v44.654"/>
</svg>
