<?xml version="1.0" encoding="utf-8"?>
<!-- Generator: Adobe Illustrator 16.0.0, SVG Export Plug-In . SVG Version: 6.00 Build 0)  -->
<!DOCTYPE svg PUBLIC "-//W3C//DTD SVG 1.1//EN" "http://www.w3.org/Graphics/SVG/1.1/DTD/svg11.dtd">
<svg version="1.1" id="图层_1" xmlns="http://www.w3.org/2000/svg" xmlns:xlink="http://www.w3.org/1999/xlink" x="0px" y="0px"
	 width="300px" height="300px" viewBox="0 0 300 300" enable-background="new 0 0 300 300" xml:space="preserve">
<path fill="#D01C1B" d="M150.663,82.759c19.101,0,40.186-3.381,76.396-25.466c23.273-14.191,47.676-32.758,61.538-44.563
	C282.23,4.243,273.743,0,261.012,0H36.075C25.463,0,14.853,4.243,8.487,12.73c10.612,8.488,23.343,19.1,42.441,31.832
	C89.124,74.271,112.467,82.759,150.663,82.759"/>
<path fill="#D01C1B" d="M297.082,33.953c-12.729,10.609-36.072,29.708-65.783,46.685c-25.462,14.853-55.172,21.22-82.758,21.22
	c-31.83,0-59.417-4.244-97.613-29.71C27.587,55.173,6.366,38.197,0,33.953v2.121v227.058c0,19.099,14.854,33.95,36.075,33.95
	h227.057c19.099,0,36.072-14.852,36.072-36.074L297.082,33.953z"/>
<path fill="#FFFFFF" d="M107.667,217.838v11.552H63.843v-28.877c0.451-7.473,4.64-11.437,12.57-11.891h17.665v-9.851
	c-0.456-4.757-3.396-7.247-8.834-7.475H63.843v-12.23h30.235c8.833,0.228,13.361,4.305,13.589,12.23v18.345
	c-0.458,7.021-4.417,10.76-11.888,11.21H77.432v16.986H107.667z"/>
<path fill="#FFFFFF" d="M166.098,175.034v38.048c-0.228,10.648-5.777,16.077-16.648,16.308h-13.587
	c-10.647-0.458-16.195-5.547-16.646-15.287v-38.391c0.451-10.642,6.116-16.188,16.986-16.646h13.247
	C159.865,159.747,165.418,165.07,166.098,175.034 M152.509,211.723v-34.65c-0.229-3.62-2.267-5.548-6.117-5.775h-7.812
	c-3.626,0.228-5.554,2.155-5.775,5.775v34.989c0.221,3.627,2.149,5.555,5.775,5.776h7.472
	C150.13,217.616,152.279,215.576,152.509,211.723"/>
<path fill="#FFFFFF" d="M238.984,189.462v9.954h-11.837v23.943c-0.184,1.075,0.444,1.612,1.883,1.612h9.954v8.878h-16.409
	c-4.305,0-6.726-2.246-7.264-6.727v-21.249c0-4.305-2.335-6.458-6.997-6.458h-9.682l-8.879,34.159h-12.373l9.147-34.159h-12.646
	v-9.954H238.984z M177.113,169.286h58.911v9.954h-58.911V169.286z"/>
</svg>
