<?xml version="1.0" encoding="utf-8"?>
<!-- Generator: Adobe Illustrator 16.0.0, SVG Export Plug-In . SVG Version: 6.00 Build 0)  -->
<!DOCTYPE svg PUBLIC "-//W3C//DTD SVG 1.1//EN" "http://www.w3.org/Graphics/SVG/1.1/DTD/svg11.dtd">
<svg version="1.1" id="图层_1" xmlns="http://www.w3.org/2000/svg" xmlns:xlink="http://www.w3.org/1999/xlink" x="0px" y="0px"
	 width="300px" height="300px" viewBox="0 0 300 300" enable-background="new 0 0 300 300" xml:space="preserve">
<path fill-rule="evenodd" clip-rule="evenodd" fill="#555555" d="M294.188,163.935c-1.813,19.891-7.436,38.988-16.725,56.733
	c-9.287,17.756-21.691,33.114-36.854,45.632c-14.652,12.101-31.24,21.078-49.318,26.658c-18.076,5.583-36.729,7.509-55.452,5.717
	c-19.369-1.854-37.968-7.632-55.255-17.17c-17.286-9.54-32.23-22.275-44.434-37.844C24.372,228.614,15.635,211.578,10.2,193.01
	c-5.436-18.557-7.311-37.719-5.571-56.941c1.812-19.9,7.436-38.987,16.724-56.743c9.289-17.755,21.691-33.104,36.864-45.632
	c14.641-12.101,31.23-21.066,49.308-26.648c18.078-5.582,36.739-7.519,55.452-5.717c19.379,1.854,37.969,7.633,55.256,17.172
	c17.285,9.539,32.229,22.274,44.434,37.843c11.787,15.037,20.516,32.084,25.949,50.651
	C294.063,125.552,295.936,144.711,294.188,163.935z M213.004,28.487C147.752-7.523,66.151,17.688,31.079,84.699
	c-35.062,66.999-10.507,150.809,54.734,186.818c65.252,36.011,146.863,10.798,181.926-56.202
	C302.801,148.305,278.244,64.497,213.004,28.487z M187.043,169.392c-0.084,0.312-0.166,0.583-0.293,0.875
	c-0.25,0.541-0.582,0.998-0.967,1.436c-0.125,0.126-0.168,0.314-0.303,0.438l-79.466,72.001c-1.729,1.562-4.228,1.863-6.258,0.739
	c-2.042-1.115-3.177-3.426-2.854-5.778l8.748-64.482c0.417-3.102,3.208-5.27,6.227-4.832s5.124,3.292,4.708,6.394l-6.697,49.329
	l62.336-56.472L141.4,152.021c0-0.01-0.011,0-0.011-0.01l-27.013-14.903c-1.593-0.885-2.666-2.508-2.874-4.352
	s0.479-3.665,1.832-4.895l79.466-71.999c1.729-1.562,4.229-1.864,6.26-0.74c2.041,1.115,3.176,3.426,2.854,5.78l-14.621,107.768
	C187.262,168.935,187.115,169.142,187.043,169.392z M126.592,130.967l16.245,8.977l0,0l34.614,19.097l11.477-84.547L126.592,130.967
	z"/>
</svg>
