<?xml version="1.0" encoding="utf-8"?>
<!-- Generator: Adobe Illustrator 16.0.0, SVG Export Plug-In . SVG Version: 6.00 Build 0)  -->
<!DOCTYPE svg PUBLIC "-//W3C//DTD SVG 1.1//EN" "http://www.w3.org/Graphics/SVG/1.1/DTD/svg11.dtd">
<svg version="1.1" id="图层_1" xmlns="http://www.w3.org/2000/svg" xmlns:xlink="http://www.w3.org/1999/xlink" x="0px" y="0px"
	 width="300px" height="300px" viewBox="0 0 300 300" enable-background="new 0 0 300 300" xml:space="preserve">
<path fill="#333333" d="M253.877,300H47.233c-17.455,0-31.623-14.036-31.623-31.368V88.271l-0.11-0.105l94.979-84.978V3.123h0.062
	L110.668,3l0.114,0.123h143.095c17.473,0,31.623,14.054,31.623,31.377v234.132C285.5,285.964,271.35,300,253.877,300L253.877,300z
	 M114.5,30l-63,54h45c8.727,0,18-0.343,18-9V30L114.5,30z M267.5,39c0-8.657-9.272-18-18-18h-117v54c0,17.314-18.527,27-36,27h-63
	v162c0,8.657,9.273,18,18,18h198c8.728,0,18-9.343,18-18V39L267.5,39z M231.5,246h-153c-4.364,0-9-4.667-9-9s4.637-9,9-9h153
	c4.368,0,9,4.667,9,9s-5.977,9.255-10.345,9.255L231.5,246z M231.5,192h-153c-4.364,0-9-4.667-9-9.001c0-4.332,4.637-8.999,9-8.999
	h153c4.368,0,9,4.667,9,8.999C240.5,187.333,235.868,192,231.5,192L231.5,192z M231.5,138h-153c-4.364,0-9-4.676-9-9
	c0-4.325,4.637-9,9-9h153c4.368,0,9,4.675,9,9C240.5,133.324,235.868,138,231.5,138L231.5,138z M231.5,75h-81c-4.368,0-9-4.676-9-9
	s4.14-9.132,8.508-9.132h80.147c4.368,0,10.345,4.808,10.345,9.132S235.868,75,231.5,75L231.5,75z M231.5,75"/>
</svg>
