<?xml version="1.0" encoding="utf-8"?>
<!-- Generator: Adobe Illustrator 16.0.0, SVG Export Plug-In . SVG Version: 6.00 Build 0)  -->
<!DOCTYPE svg PUBLIC "-//W3C//DTD SVG 1.1//EN" "http://www.w3.org/Graphics/SVG/1.1/DTD/svg11.dtd">
<svg version="1.1" id="图层_1" xmlns="http://www.w3.org/2000/svg" xmlns:xlink="http://www.w3.org/1999/xlink" x="0px" y="0px"
	 width="300px" height="300px" viewBox="0 0 300 300" enable-background="new 0 0 300 300" xml:space="preserve">
<path d="M195.35,289L195.35,289c-5.333,0-10.515-2.208-13.868-5.881c-4.559-4.988-19.017-17.956-30.847-17.956
	c-11.745,0-26.423,13.035-30.636,17.602c-3.345,3.623-8.493,5.789-13.776,5.789c-2.511,0-4.887-0.48-7.052-1.433l-0.379-0.16
	l-35.961-20.054l-0.362-0.252c-6.547-4.567-9.041-13.498-5.789-20.778c0.017-0.059,3.312-7.634,3.312-14.534
	c0-20.955-17.096-38-38.118-38h-1.272c-0.076,0-0.16,0.009-0.236,0.009c-6.016,0-10.92-5.342-12.487-13.582
	c-0.126-0.666-3.067-16.313-3.067-28.647c0-12.336,2.94-27.99,3.067-28.647c1.584-8.358,6.597-13.726,12.723-13.583h1.272
	c21.022,0,38.118-17.045,38.118-38c0-6.901-3.286-14.476-3.32-14.543c-3.244-7.28-0.733-16.211,5.839-20.761l0.371-0.261
	l37.958-20.782l0.388-0.168c2.14-0.906,4.482-1.369,6.959-1.369c5.274,0,10.431,2.115,13.801,5.658
	c4.491,4.689,18.688,16.881,30.181,16.881c11.384,0,25.496-11.952,29.971-16.556c3.354-3.472,8.476-5.548,13.691-5.548
	c2.528,0,4.912,0.476,7.086,1.419l0.388,0.165l36.652,20.302l0.362,0.252c6.563,4.559,9.058,13.498,5.813,20.786
	c-0.025,0.051-3.32,7.625-3.32,14.526c0,20.955,17.104,38,38.118,38h1.28c6.117-0.135,11.131,5.224,12.715,13.583
	c0.126,0.657,3.075,16.312,3.075,28.647c0,12.326-2.949,27.981-3.075,28.647c-1.584,8.35-6.598,13.7-12.723,13.573h-1.272
	c-21.014,0-38.118,17.045-38.118,38c0,6.9,3.295,14.467,3.32,14.551c3.244,7.264,0.741,16.203-5.822,20.762l-0.371,0.252
	l-37.275,20.542l-0.388,0.169C200.145,288.528,197.811,289,195.35,289L195.35,289z M194.221,271.491
	c0.16,0.109,0.632,0.286,1.129,0.286c0.018,0,0.043,0,0.06,0l34.823-19.177c-0.843-1.954-4.685-11.399-4.685-21.258
	c0-29.473,23.288-53.63,52.483-55.138c0.421-2.309,2.696-15.326,2.696-25.083s-2.275-22.767-2.696-25.092
	c-29.195-1.508-52.483-25.665-52.483-55.138c0-9.867,3.851-19.329,4.685-21.258L195.974,30.66c-0.034,0-0.084-0.008-0.144-0.008
	c-0.581,0-1.129,0.219-1.306,0.337c-0.581,0.59-5.544,5.611-12.681,10.616c-10.558,7.398-20.542,11.156-29.676,11.156
	c-9.226,0-19.286-3.825-29.911-11.375c-7.178-5.106-12.167-10.221-12.748-10.819c-0.177-0.126-0.733-0.345-1.323-0.345
	c-0.042,0-0.084,0.008-0.118,0.008L72.579,49.66c0.851,1.972,4.676,11.4,4.676,21.233c0,29.473-23.28,53.629-52.475,55.138
	c-0.421,2.317-2.705,15.326-2.705,25.092c0,9.757,2.283,22.766,2.705,25.083c29.195,1.508,52.475,25.665,52.475,55.138
	c0,9.892-3.867,19.371-4.693,21.275l33.584,18.722c0.025,0,0.051,0,0.076,0c0.497,0,0.96-0.186,1.121-0.287
	c0.632-0.674,5.645-5.965,12.875-11.239c10.768-7.87,21.005-11.863,30.417-11.863c9.504,0,19.817,4.061,30.652,12.082
	C188.551,265.416,193.589,270.809,194.221,271.491L194.221,271.491z M150.761,201.532c-27.99,0-50.764-22.698-50.764-50.604
	c0-27.906,22.774-50.604,50.764-50.604c27.99,0,50.766,22.699,50.766,50.604C201.526,178.834,178.751,201.532,150.761,201.532
	L150.761,201.532z M150.761,117.537c-18.469,0-33.5,14.981-33.5,33.391c0,18.41,15.031,33.392,33.5,33.392
	c18.47,0,33.501-14.981,33.501-33.392C184.262,132.518,169.23,117.537,150.761,117.537L150.761,117.537z M150.761,117.537"/>
</svg>
