<?xml version="1.0" encoding="utf-8"?>
<!-- Generator: Adobe Illustrator 16.0.0, SVG Export Plug-In . SVG Version: 6.00 Build 0)  -->
<!DOCTYPE svg PUBLIC "-//W3C//DTD SVG 1.1//EN" "http://www.w3.org/Graphics/SVG/1.1/DTD/svg11.dtd">
<svg version="1.1" id="图层_1" xmlns="http://www.w3.org/2000/svg" xmlns:xlink="http://www.w3.org/1999/xlink" x="0px" y="0px"
	 width="300px" height="300px" viewBox="0 0 300 300" enable-background="new 0 0 300 300" xml:space="preserve">
<path fill="#555555" d="M148.5,297C66.479,297,0,230.521,0,148.5C0,66.479,66.479,0,148.5,0C230.521,0,297,66.479,297,148.5
	C297,230.521,230.521,297,148.5,297L148.5,297L148.5,297z M207.898,180.719c0-3.299-2.671-5.972-5.995-5.972h-41.945v-29.921h41.945
	c3.324,0,5.995-2.671,5.995-5.969v-5.983c0-3.298-2.671-5.97-5.995-5.97h-13.27l17.958-30.333c1.307-2.175-0.012-5.282-2.937-6.937
	l-5.269-2.973c-2.937-1.632-6.345-1.197-7.649,1.002l-23.238,39.24h-33.042l-23.264-39.24c-1.281-2.199-4.702-2.634-7.626-1.002
	l-5.292,2.973c-2.913,1.655-4.229,4.761-2.924,6.937l17.957,30.333H100.04c-3.312,0-5.994,2.672-5.994,5.97v5.983
	c0,3.298,2.682,5.969,5.994,5.969h41.935v29.921H100.04c-3.312,0-5.994,2.673-5.994,5.972v5.982c0,3.299,2.682,5.993,5.994,5.993
	h41.935v29.897c0,3.301,2.695,5.971,5.993,5.971h5.995c3.322,0,5.995-2.67,5.995-5.971v-29.897h41.945
	c3.324,0,5.995-2.694,5.995-5.993V180.719L207.898,180.719L207.898,180.719z M207.898,180.719"/>
</svg>
