<?xml version="1.0" encoding="utf-8"?>
<!-- Generator: Adobe Illustrator 16.0.0, SVG Export Plug-In . SVG Version: 6.00 Build 0)  -->
<!DOCTYPE svg PUBLIC "-//W3C//DTD SVG 1.1//EN" "http://www.w3.org/Graphics/SVG/1.1/DTD/svg11.dtd">
<svg version="1.1" id="图层_1" xmlns="http://www.w3.org/2000/svg" xmlns:xlink="http://www.w3.org/1999/xlink" x="0px" y="0px"
	 width="300px" height="300px" viewBox="0 0 300 300" enable-background="new 0 0 300 300" xml:space="preserve">
<path d="M215.371,2.84H84.628c-32.613,0-59.146,25.244-59.146,56.276v137.421c0,5.107,1.571,8.23,6.728,8.23
	c5.153,0,6.73-1.624,6.73-6.731V56.684c0-20.824,24.804-40.382,47.117-40.382h127.887c22.315,0,47.116,19.559,47.116,40.382v181.738
	c0,28.737-12.575,47.116-40.386,47.116H86.058c-28.179,0-47.117-18.004-47.117-47.116c0-5.114-1.577-6.731-6.73-6.731
	c-5.157,0-6.728,3.234-6.728,8.342c0,39.13,19.463,58.968,57.837,58.968h133.365c38.374,0,57.831-19.838,57.831-58.968V59.116
	C274.517,28.084,247.98,2.84,215.371,2.84z M227.406,49.953c-2.471-4.489-6.1-2.146-10.615,0.299
	c-63.688,29.49-131.17,0.233-131.847-0.112c-4.562-2.34-9.981-4.726-12.348-0.188c-2.366,4.549,2.149,11.119,6.731,13.465
	c2.067,1.062,31.199,13.458,74.04,13.458c22.164,0,42.87-0.188,67.309-13.458C225.205,60.96,229.885,54.439,227.406,49.953z
	 M193.752,184.574c5.153,0,6.731-1.623,6.731-6.73c0-5.114-1.578-6.731-6.731-6.731h-26.923l26.923-40.385
	c2.859-4.259,4.293-10.632,0-13.461c-4.299-2.833-10.596,2.478-13.462,6.728l-26.923,40.389l-26.924-40.389
	c-2.859-4.243-5.032-9.288-9.327-6.465c-4.296,2.833-6.994,8.939-4.135,13.199l26.924,40.385h-26.924
	c-5.157,0-6.399,1.795-6.399,6.902s1.242,6.56,6.399,6.56h33.654v20.193h-33.654c-5.157,0-6.399,2.241-6.399,7.349
	s1.242,6.112,6.399,6.112h33.654v26.924c0,5.107,1.575,6.731,6.731,6.731c5.153,0,6.73-1.624,6.73-6.731v-26.924h33.654
	c5.153,0,6.731-1.623,6.731-6.73c0-5.114-1.578-6.73-6.731-6.73h-33.654v-20.193H193.752z"/>
</svg>
