<?xml version="1.0" encoding="utf-8"?>
<!-- Generator: Adobe Illustrator 16.0.0, SVG Export Plug-In . SVG Version: 6.00 Build 0)  -->
<!DOCTYPE svg PUBLIC "-//W3C//DTD SVG 1.1//EN" "http://www.w3.org/Graphics/SVG/1.1/DTD/svg11.dtd">
<svg version="1.1" id="图层_1" xmlns="http://www.w3.org/2000/svg" xmlns:xlink="http://www.w3.org/1999/xlink" x="0px" y="0px"
	 width="300px" height="300px" viewBox="0 0 300 300" enable-background="new 0 0 300 300" xml:space="preserve">
<path d="M217.846,145.464c0-3.976-3.472-7.453-7.446-7.453h-46.186l36.748-56.152c2.481-3.478,1.493-7.948-1.984-10.433
	s-7.944-1.49-10.434,1.988l-37.736,57.639l-37.249-57.142c-2.482-3.48-6.952-4.473-10.43-1.987
	c-3.475,1.987-4.47,6.955-1.984,10.433l35.755,55.655H91.213c-3.975,0-7.45,3.478-7.45,7.453c0,3.975,3.475,7.453,7.45,7.453h51.647
	v25.345H91.213c-3.975,0-7.45,3.478-7.45,7.453s3.475,7.453,7.45,7.453h52.142v42.733c0,3.976,3.478,7.453,7.453,7.453
	c4.467,0,7.944-2.98,7.446-7.453v-42.733h52.146c3.975,0,7.446-3.478,7.446-7.453s-3.472-7.453-7.446-7.453h-52.643v-25.345h52.643
	C214.374,152.917,217.846,149.439,217.846,145.464z M283.403,83.846c-1.991-3.972-6.955-5.465-10.433-3.478
	c-3.969,1.988-5.463,6.958-3.478,10.436c26.818,52.177,16.89,114.788-24.331,156.028c-52.145,52.177-137.065,52.177-189.21,0
	c-52.145-52.171-52.145-137.146,0-189.32c52.145-52.174,137.065-52.174,189.21,0c2.98,2.98,7.944,2.98,10.925,0
	c2.979-2.983,2.979-7.951,0-10.934c-58.105-58.137-152.46-58.137-210.564,0c-58.102,58.141-58.102,152.55,0,210.694
	C74.326,286.585,112.567,301,150.808,301c38.234,0,75.978-14.415,105.279-43.729C302.271,211.552,313.195,141.488,283.403,83.846z"
	/>
</svg>
