<?xml version="1.0" encoding="utf-8"?>
<!-- Generator: Adobe Illustrator 16.0.0, SVG Export Plug-In . SVG Version: 6.00 Build 0)  -->
<!DOCTYPE svg PUBLIC "-//W3C//DTD SVG 1.1//EN" "http://www.w3.org/Graphics/SVG/1.1/DTD/svg11.dtd">
<svg version="1.1" id="图层_1" xmlns="http://www.w3.org/2000/svg" xmlns:xlink="http://www.w3.org/1999/xlink" x="0px" y="0px"
	 width="300px" height="300px" viewBox="0 0 300 300" enable-background="new 0 0 300 300" xml:space="preserve">
<g>
	<g>
		<path fill="#666666" d="M277.132,209.395l9.639-12.724c0.459-0.612,0.566-1.441,0.246-2.193c-0.33-0.721-1.007-1.202-1.79-1.249
			l-52.424-3.459c-0.705-0.038-1.38,0.268-1.812,0.836c-0.421,0.56-0.551,1.304-0.328,1.985l16.596,50.778
			c0.239,0.751,0.867,1.296,1.635,1.448c0.773,0.123,1.548-0.183,2.022-0.82l10.354-13.681c5.407,4.324,9.708,8.076,13.107,11.472
			c16.312,16.283,12.806,31.038,12.646,31.651c-0.223,0.844,0.101,1.726,0.761,2.246c0.097,0.077,0.22,0.17,0.343,0.239
			c0.899,0.437,1.986,0.176,2.594-0.629C311.703,247.587,283.879,216.289,277.132,209.395z M142.606,275.003
			c-65.885,0-123.387-58.101-123.387-125.22S76.722,24.079,142.606,24.079s123.395,58.584,123.395,125.704
			c0,1.472-0.028,2.937-0.082,4.395c-0.261,7.637-1.719,15.1-3.313,22.323l17.17,13.1c3.544-12.661,5.445-26.014,5.445-39.818
			C285.221,69.672,221.237,4.5,142.606,4.5C63.975,4.5,0,69.672,0,149.783s63.975,145.283,142.606,145.283
			c38.952,0,74.306-15.988,100.065-41.864c1.144-1.144,2.264-2.309,3.36-3.491l-16.183-12.775
			C208.308,258.324,174.993,275.003,142.606,275.003z M169.371,87.518l-16.28,26.465c-5.897,11.358-9.503,18.913-10.822,22.655
			h-0.375c-3.889-9.103-10.921-15.178-28.981-49.12H88.716l32.263,49.81H96.784v16.604h32.263v24.908H96.784v16.604h32.263v24.901
			h24.196v-24.901H185.5V178.84h-32.257v-24.908H185.5v-16.604h-24.196l32.264-49.81H169.371z"/>
	</g>
</g>
</svg>
