<?xml version="1.0" encoding="utf-8"?>
<!-- Generator: Adobe Illustrator 16.0.0, SVG Export Plug-In . SVG Version: 6.00 Build 0)  -->
<!DOCTYPE svg PUBLIC "-//W3C//DTD SVG 1.1//EN" "http://www.w3.org/Graphics/SVG/1.1/DTD/svg11.dtd">
<svg version="1.1" id="图层_1" xmlns="http://www.w3.org/2000/svg" xmlns:xlink="http://www.w3.org/1999/xlink" x="0px" y="0px"
	 width="300px" height="300px" viewBox="0 0 300 300" enable-background="new 0 0 300 300" xml:space="preserve">
<path fill-rule="evenodd" clip-rule="evenodd" fill="#666666" d="M70.761,258.922c9.201-8.476,41.17-41.577,66.139-67.448
	c24.792-25.692,42.961-39.099,33.076-50.599c-25.249-29.34-91.832-93.643-99.215-101.177c-7.509-7.663-7.509-25.464,0-33.724
	c8.26-9.091,25.084-8.151,33.064,0c9.377,9.556,77.447,78.979,115.758,118.04c31.538,32.174,2.707,48.07-16.417,67.575
	c-35.998,36.723-89.532,91.744-99.341,101.057c-7.815,7.421-24.677,9.036-33.064,0C63.061,284.361,63.099,265.987,70.761,258.922z"
	/>
</svg>
