<?xml version="1.0" encoding="utf-8"?>
<!-- Generator: Adobe Illustrator 16.0.0, SVG Export Plug-In . SVG Version: 6.00 Build 0)  -->
<!DOCTYPE svg PUBLIC "-//W3C//DTD SVG 1.1//EN" "http://www.w3.org/Graphics/SVG/1.1/DTD/svg11.dtd">
<svg version="1.1" id="图层_1" xmlns="http://www.w3.org/2000/svg" xmlns:xlink="http://www.w3.org/1999/xlink" x="0px" y="0px"
	 width="300px" height="300px" viewBox="0 0 300 300" enable-background="new 0 0 300 300" xml:space="preserve">
<path fill="#666666" d="M150.836,286.5c-33.731,0-61.082-10.754-61.082-24.02v14.382c0,13.475,27.773,23.304,62.026,23.304
	c34.262,0,62.162-10.505,62.162-22.075l-0.121-15.508C212.081,275.879,184.577,286.5,150.836,286.5L150.836,286.5z M150.836,259.981
	c-33.731,0-61.082-10.753-61.082-24.024v14.387c0,13.476,27.773,23.305,62.026,23.305c34.262,0,62.162-10.505,62.162-22.08
	l-0.121-15.503C212.081,249.362,184.577,259.981,150.836,259.981L150.836,259.981z M15.201,183.962v14.387
	c0,12.857,25.293,22.399,57.375,23.247c0.168-4.914,3.187-9.548,8.433-13.672c-1.56,0.044-3.133,0.069-4.721,0.069
	C42.549,207.993,15.201,197.232,15.201,183.962L15.201,183.962z M16.323,210.485v14.387c0,12.857,25.293,20.551,57.375,21.393
	v-13.641C41.689,231.864,16.323,223.266,16.323,210.485L16.323,210.485z M153.399,197.029c-34.779,0-62.972,11.092-62.972,24.771
	c0,13.68,28.193,24.771,62.972,24.771c34.778,0,62.965-11.091,62.965-24.771C216.364,208.121,188.178,197.029,153.399,197.029
	L153.399,197.029z M77.233,195.137c34.255,0,62.162-10.512,62.162-22.075l-0.127-15.502c-1.741,13.284-29.242,23.916-62.979,23.916
	c-33.74,0-61.088-10.759-61.088-24.031v14.381C15.201,185.301,42.973,195.137,77.233,195.137L77.233,195.137z M76.289,154.958
	c-33.74,0-61.088-10.762-61.088-24.03v14.383c0,13.472,27.772,23.302,62.032,23.302c34.255,0,62.162-10.506,62.162-22.072
	l-0.12-15.505C137.527,144.326,110.025,154.958,76.289,154.958L76.289,154.958z M223.146,180.431
	c-33.732,0-61.066-11.129-61.078-24.031v14.381c0,13.475,27.767,23.304,62.021,23.304c34.264,0,60.251-10.288,62.163-22.067
	l-0.121-15.509C286.368,168.473,256.887,180.431,223.146,180.431L223.146,180.431z M145.916,57.69v41.633
	c0,3.93,3.226,7.117,7.204,7.117h27.052c3.983,0,7.209-3.19,7.209-7.117V57.69h30.552c2.817-2.783,2.817-7.29,0-10.069
	L171.745,1.988c-2.817-2.779-7.381-2.779-10.192,0L115.36,47.622c-2.818,2.779-2.818,7.286,0,10.069H145.916L145.916,57.69z
	 M76.821,145.755c34.775,0,62.963-11.088,62.963-24.765c0-13.68-28.188-24.768-62.963-24.768s-62.969,11.088-62.969,24.768
	C13.852,134.667,42.046,145.755,76.821,145.755L76.821,145.755z M162.068,142.462c0,13.683,28.188,24.768,62.965,24.768
	c34.78,0,62.967-11.085,62.967-24.768c0-13.676-28.187-24.767-62.967-24.767C190.256,117.695,162.068,128.786,162.068,142.462
	L162.068,142.462z M225.085,207.993c-1.595,0-3.161-0.025-4.723-0.069c5.246,4.124,8.331,10.523,8.433,13.672
	c32.088-0.848,55.546-10.313,57.374-23.247v-14.387C285.017,197.623,258.818,207.993,225.085,207.993L225.085,207.993z
	 M227.839,232.624v13.641c32.082-0.842,57.369-8.535,57.369-21.393l0.484-13.756C285.36,223.444,259.845,231.864,227.839,232.624
	L227.839,232.624z M131.344,156.565"/>
</svg>
