<?xml version="1.0" encoding="utf-8"?>
<!-- Generator: Adobe Illustrator 16.0.0, SVG Export Plug-In . SVG Version: 6.00 Build 0)  -->
<!DOCTYPE svg PUBLIC "-//W3C//DTD SVG 1.1//EN" "http://www.w3.org/Graphics/SVG/1.1/DTD/svg11.dtd">
<svg version="1.1" id="图层_1" xmlns="http://www.w3.org/2000/svg" xmlns:xlink="http://www.w3.org/1999/xlink" x="0px" y="0px"
	 width="300px" height="300px" viewBox="0 0 300 300" enable-background="new 0 0 300 300" xml:space="preserve">
<g>
	<g>
		<path fill-rule="evenodd" clip-rule="evenodd" d="M292.15,276.642l-28.039,0.011v-109.63c0-21.002-16.429-38.472-35.046-38.472
			l-69.103,0.102h-21.926V90.279h21.926c0,0,0,11.514,0,21.926c0,4.395,2.597,5.481,5.481,5.481c3.426,0,5.481-1.384,5.481-5.481
			c0-12.657,0-21.926,0-21.926c0-6.255-5.412-10.963-10.963-10.963h-21.926c-7.952,0-10.963,3.68-10.963,10.963l0.091,38.271h-58.23
			c-18.615,0-35.046,17.469-35.046,38.472v109.63l-28.036-0.011c-2.813,0-4.853,2.061-4.853,5.229c0,3.175,2.294,5.76,5.107,5.76
			h285.787c2.81,0,5.106-2.585,5.106-5.76C297,278.702,294.961,276.642,292.15,276.642z M253.33,205.401
			c-0.061-0.002-0.12-0.009-0.182-0.009h-60.297c-3.029,0-5.481,2.452-5.481,5.482c0,3.024,2.452,5.481,5.481,5.481h60.297
			c0.062,0,0.121-0.007,0.182-0.009v60.294H44.672v-21.937c0,0,101.874,0,163.253,0c14.978,0,11.097,0,19.186,0
			c6.204,0,5.941-10.969-0.686-10.969c-7.911,0-3.361,0-17.472,0c-61.266,0-164.282,0-164.282,0v-27.429c0,0,106.72,0,114.605,0
			c7.463,0,7.329-10.968-0.342-10.968c-7.591,0-114.263,0-114.263,0v-32.91l2.554,3.73c8.059,8.501,20.697,8.501,28.791,0
			l0.035-0.043c4.167-4.384,10.695-4.384,14.865,0c8.091,8.506,20.732,8.506,28.823,0c4.167-4.384,10.664-4.384,14.831-0.037
			l0.035,0.037c8.091,8.506,20.732,8.506,28.826,0c4.165-4.384,10.695-4.384,14.86,0c8.094,8.506,20.737,8.506,28.794,0l0.031-0.037
			c4.171-4.347,10.701-4.347,14.866,0.037c4.03,4.271,9.201,6.392,14.41,6.392c5.176,0,10.353-2.12,14.415-6.392l2.521-3.688
			V205.401z M243.722,167.734c-4.165,4.39-10.695,4.39-14.865,0c-8.089-8.5-20.732-8.5-28.789,0l-0.037,0.038
			c-4.165,4.352-10.69,4.352-14.828-0.038c-8.088-8.5-20.732-8.5-28.826,0c-4.164,4.39-10.657,4.39-14.827,0.038l-0.035-0.038
			c-8.091-8.5-20.732-8.5-28.789,0c-4.167,4.39-10.698,4.39-14.865,0c-8.056-8.5-20.697-8.5-28.788-0.037l-0.038,0.037
			c-4.167,4.39-10.695,4.39-14.863,0l-9.499-6.273c3.161-10.503,13.913-21.942,24.263-21.942h160.13
			c10.347,0,21.133,11.439,24.265,21.942L243.722,167.734z M148.981,70.725c5.869,0,11.356-2.588,15.526-7.25
			c8.543-9.635,8.543-25.349,0-35.025l-11.91-13.441c-1.981-2.232-5.214-2.232-7.227,0l-11.91,13.441
			c-8.546,9.638-8.546,25.349,0,35.025C137.625,68.137,143.112,70.725,148.981,70.725z M140.682,36.597l8.3-9.362l8.3,9.362
			c4.587,5.174,4.587,13.557,0,18.73c-2.222,2.505-5.171,3.878-8.3,3.878c-3.124,0-6.079-1.373-8.3-3.878
			C136.099,50.153,136.099,41.73,140.682,36.597z"/>
	</g>
</g>
</svg>
