<?xml version="1.0" encoding="utf-8"?>
<!-- Generator: Adobe Illustrator 16.0.0, SVG Export Plug-In . SVG Version: 6.00 Build 0)  -->
<!DOCTYPE svg PUBLIC "-//W3C//DTD SVG 1.1//EN" "http://www.w3.org/Graphics/SVG/1.1/DTD/svg11.dtd">
<svg version="1.1" id="图层_1" xmlns="http://www.w3.org/2000/svg" xmlns:xlink="http://www.w3.org/1999/xlink" x="0px" y="0px"
	 width="300px" height="300px" viewBox="0 0 300 300" enable-background="new 0 0 300 300" xml:space="preserve">
<path d="M83.57,227.87h0.013h80.905c7.447,0,13.484-6.031,13.484-13.485c0-7.439-6.037-13.483-13.484-13.483h-48.354l111.83-111.831
	c5.264-5.263,5.264-13.804,0-19.067c-2.638-2.638-6.082-3.951-9.54-3.951c-3.444,0-6.902,1.313-9.527,3.951L97.06,181.834V133.48
	c0-7.453-6.038-13.484-13.484-13.484c-7.447,0-13.49,6.031-13.49,13.484v94.39H83.57L83.57,227.87L83.57,227.87L83.57,227.87z
	 M151.003,285.033c-18.1,0-35.65-3.547-52.169-10.525c-15.956-6.756-30.285-16.417-42.604-28.736
	c-12.313-12.306-21.978-26.647-28.726-42.604c-6.985-16.513-10.529-34.063-10.529-52.163s3.544-35.65,10.529-52.163
	C34.252,82.886,43.917,68.55,56.23,56.234c12.319-12.312,26.648-21.977,42.604-28.729c16.519-6.982,34.069-10.526,52.169-10.526
	c18.095,0,35.65,3.544,52.163,10.526c15.963,6.752,30.291,16.417,42.604,28.729c12.313,12.316,21.98,26.652,28.729,42.607
	c6.984,16.513,10.525,34.063,10.525,52.163s-3.541,35.65-10.525,52.163c-6.749,15.956-16.417,30.298-28.729,42.604
	c-12.313,12.319-26.642,21.98-42.604,28.736C186.653,281.486,169.098,285.033,151.003,285.033 M151.003,298.504
	c81.456,0,147.494-66.037,147.494-147.499c0-81.462-66.038-147.497-147.494-147.497C69.542,3.508,3.506,69.542,3.506,151.005
	C3.506,232.467,69.542,298.504,151.003,298.504L151.003,298.504L151.003,298.504z M151.003,298.504"/>
</svg>
