<?xml version="1.0" encoding="utf-8"?>
<!-- Generator: Adobe Illustrator 16.0.0, SVG Export Plug-In . SVG Version: 6.00 Build 0)  -->
<!DOCTYPE svg PUBLIC "-//W3C//DTD SVG 1.1//EN" "http://www.w3.org/Graphics/SVG/1.1/DTD/svg11.dtd">
<svg version="1.1" id="图层_1" xmlns="http://www.w3.org/2000/svg" xmlns:xlink="http://www.w3.org/1999/xlink" x="0px" y="0px"
	 width="300px" height="300px" viewBox="0 0 300 300" enable-background="new 0 0 300 300" xml:space="preserve">
<path fill="#555555" d="M209.805,0H87.755C39.285,0,0,39.294,0,87.771v122.041c0,48.479,39.285,87.765,87.755,87.765h122.049
	c48.479,0,87.779-39.286,87.779-87.765V87.771C297.584,39.294,258.283,0,209.805,0L209.805,0z M273.55,199.52
	c0,44.374-29.09,74.022-74.039,74.022H98.057c-44.949,0-74.022-30.239-74.022-74.022V98.073c0-45.532,26.751-74.031,74.022-74.031
	h101.454c47.281,0,74.039,30.231,74.039,74.031V199.52L273.55,199.52z M43.192,107.603v27.712l85.359,49.266l0.312-0.05
	c4.08,1.971,9.365,2.857,15.128,2.857c4.786,0,11.902-0.805,16.859-3.71h0.018l0.114-0.066c0.197-0.131,0.428-0.229,0.591-0.344
	l92.804-53.075V102.9l-110.172,63.015L43.192,107.603L43.192,107.603z M43.192,107.603"/>
</svg>
