<?xml version="1.0" encoding="utf-8"?>
<!-- Generator: Adobe Illustrator 16.0.0, SVG Export Plug-In . SVG Version: 6.00 Build 0)  -->
<!DOCTYPE svg PUBLIC "-//W3C//DTD SVG 1.1//EN" "http://www.w3.org/Graphics/SVG/1.1/DTD/svg11.dtd">
<svg version="1.1" id="图层_1" xmlns="http://www.w3.org/2000/svg" xmlns:xlink="http://www.w3.org/1999/xlink" x="0px" y="0px"
	 width="300px" height="300px" viewBox="0 0 300 300" enable-background="new 0 0 300 300" xml:space="preserve">
<path fill="#666666" d="M91.124,243.857c-50.188,0-90.873-22.398-91.101-50.07C0.023,204.355,0,213.596,0,213.596
	C0,241.396,40.802,263.9,91.124,263.9c50.352,0,91.131-22.504,91.131-50.305v-20.042
	C182.255,221.343,141.476,243.857,91.124,243.857L91.124,243.857z M91.124,278.846c-50.188,0-90.873-22.389-91.101-50.072
	C0.023,239.343,0,248.595,0,248.595c0,27.789,40.802,50.305,91.124,50.305c50.352,0,91.131-22.516,91.131-50.305v-20.042
	C182.255,256.34,141.476,278.846,91.124,278.846L91.124,278.846z M207.769,220.525c-2.916,0-5.81-0.093-8.68-0.233
	c-0.117,0.864-0.093,1.762-0.257,2.625c0.607,1.762,0.922,3.652,0.922,5.636v11.794c2.648,0.128,5.308,0.221,8.015,0.221
	c50.351,0,91.137-22.503,91.137-50.304v-20.043C298.893,198.01,258.119,220.525,207.769,220.525L207.769,220.525z M207.769,185.526
	c-2.916,0-5.81-0.093-8.68-0.233c-0.117,0.864-0.093,1.774-0.257,2.637c0.607,1.762,0.922,3.652,0.922,5.624v11.806
	c2.648,0.129,5.308,0.222,8.015,0.222c50.351,0,91.137-22.504,91.137-50.305v-20.048
	C298.893,163.023,258.119,185.526,207.769,185.526L207.769,185.526z M207.769,115.548c-50.188,0-90.874-22.394-91.101-50.078
	c0,10.57-0.024,19.821-0.024,19.821c0,11.87,7.496,22.761,19.955,31.371c12.6,3.442,23.805,8.295,33.15,14.308
	c11.596,2.94,24.44,4.626,38.02,4.626c50.351,0,91.137-22.51,91.137-50.305V65.243C298.893,93.038,258.119,115.548,207.769,115.548
	L207.769,115.548z M207.769,150.54c-6.125,0-12.098-0.344-17.884-0.98c4.631,6.393,7.746,13.358,9.064,20.778
	c2.916,0.163,5.856,0.256,8.819,0.256c50.351,0,91.137-22.515,91.137-50.31v-20.049C298.893,128.03,258.119,150.54,207.769,150.54
	L207.769,150.54z M207.769,0c-50.322,0-91.125,22.504-91.125,50.299s40.802,50.304,91.125,50.304
	c50.351,0,91.137-22.51,91.137-50.304S258.119,0,207.769,0L207.769,0z M91.124,128.305C40.802,128.305,0,150.814,0,178.609
	c0,27.789,40.802,50.292,91.124,50.292c50.352,0,91.131-22.503,91.131-50.292C182.255,150.814,141.476,128.305,91.124,128.305
	L91.124,128.305z M91.124,128.305"/>
</svg>
