<?xml version="1.0" encoding="utf-8"?>
<!-- Generator: Adobe Illustrator 16.0.0, SVG Export Plug-In . SVG Version: 6.00 Build 0)  -->
<!DOCTYPE svg PUBLIC "-//W3C//DTD SVG 1.1//EN" "http://www.w3.org/Graphics/SVG/1.1/DTD/svg11.dtd">
<svg version="1.1" id="图层_1" xmlns="http://www.w3.org/2000/svg" xmlns:xlink="http://www.w3.org/1999/xlink" x="0px" y="0px"
	 width="300px" height="300px" viewBox="0 0 300 300" enable-background="new 0 0 300 300" xml:space="preserve">
<g>
	<g>
		<path fill-rule="evenodd" clip-rule="evenodd" d="M214.135,195.954c16.542-20.408,26.459-46.402,26.459-74.714
			c0-65.605-53.19-118.777-118.794-118.777C56.194,2.463,3.005,55.635,3.005,121.24c0,65.588,53.189,118.768,118.794,118.768
			c28.279,0,54.246-9.888,74.645-26.384l83.884,83.913L298,279.856L214.135,195.954z M121.799,221.229
			c-55.241,0-100.023-44.773-100.023-99.988c0-55.232,44.782-99.992,100.023-99.992c55.241,0,100.023,44.76,100.023,99.992
			C221.822,176.455,177.04,221.229,121.799,221.229z"/>
	</g>
</g>
</svg>
