<?xml version="1.0" encoding="utf-8"?>
<!-- Generator: Adobe Illustrator 16.0.0, SVG Export Plug-In . SVG Version: 6.00 Build 0)  -->
<!DOCTYPE svg PUBLIC "-//W3C//DTD SVG 1.1//EN" "http://www.w3.org/Graphics/SVG/1.1/DTD/svg11.dtd">
<svg version="1.1" id="图层_1" xmlns="http://www.w3.org/2000/svg" xmlns:xlink="http://www.w3.org/1999/xlink" x="0px" y="0px"
	 width="300px" height="300px" viewBox="0 0 300 300" enable-background="new 0 0 300 300" xml:space="preserve">
<path d="M135.637,67.467c-15.557-10.597-16.329-30.851-5.37-42.623c10.907-11.715,29.123-11.783,40.11-0.215
	c11.106,11.696,10.518,32.045-5.159,42.837c19.896,22.109,39.761,44.195,59.704,66.352c0.757-0.486,1.449-0.912,2.126-1.361
	c18.423-12.293,36.847-24.578,55.254-36.902c2.643-1.763,5.397-2.52,8.479-1.576c4.435,1.361,7.11,5.78,6.361,10.509
	c-4.49,28.332-9.013,56.663-13.503,84.99c-4.132,26.051-8.232,52.108-12.348,78.167c-0.462,2.906-0.964,5.813-1.426,8.718
	c-0.892,5.669-4.315,8.623-10.047,8.639c-9.141,0-18.288,0-27.437,0c-63.629,0-127.266,0-190.899,0
	c-6.421,0-9.633-2.898-10.632-9.323c-2.277-14.673-4.61-29.347-6.971-44.012c-1.063-6.601,2.854-11.513,9.514-11.68
	c2.982-0.063,5.967-0.016,8.953-0.016c60.015,0.016,120.029,0.031,180.044,0.079c1.44,0,2.945,0.096,4.323,0.494
	c4.076,1.187,6.862,5.501,6.385,9.594c-0.541,4.617-3.846,8.129-8.296,8.352c-4.235,0.223-8.503,0.088-12.755,0.088
	c-55.444-0.032-110.885-0.064-166.326-0.104c-0.625,0-1.246,0-2.146,0c1.485,9.41,2.942,18.605,4.427,28.009
	c0.784,0,1.461,0,2.138,0c66.874,0,133.747,0,200.617,0.031c1.513,0,2.149-0.255,2.42-1.974c4.371-28.025,8.821-56.042,13.28-84.06
	c2.978-18.773,5.971-37.555,8.965-56.332c0.071-0.434,0.079-0.88,0.159-1.768c-0.86,0.545-1.465,0.908-2.055,1.298
	c-14.554,9.717-29.115,19.43-43.677,29.144c-5.661,3.79-9.729,3.265-14.26-1.768c-21.297-23.678-42.61-47.355-63.915-71.033
	c-0.383-0.422-0.725-0.884-1.179-1.457c-3.332,3.69-6.489,7.181-9.638,10.68c-18.276,20.314-36.543,40.625-54.819,60.938
	c-0.295,0.331-0.597,0.665-0.9,0.991c-4.423,4.849-8.571,5.383-13.973,1.775c-14.665-9.784-29.323-19.577-43.988-29.366
	c-0.573-0.382-1.154-0.748-2.026-1.31c0.872,5.51,1.688,10.668,2.508,15.828c2.552,16.123,5.135,32.252,7.644,48.383
	c0.764,4.888-2.831,9.458-7.89,10.286c-4.717,0.764-9.423-2.659-10.243-7.644c-1.7-10.286-3.304-20.604-4.944-30.906
	c-2.75-17.329-5.525-34.653-8.204-51.99c-0.307-1.982-0.474-4.164,0.028-6.055c1.62-6.087,8.555-8.475,13.964-4.924
	c7.13,4.677,14.2,9.454,21.293,14.188c12.122,8.089,24.247,16.182,36.583,24.418C95.801,111.733,115.709,89.604,135.637,67.467z
	 M150.497,53.056c5.063-0.028,9.212-4.291,9.132-9.363c-0.088-5.024-4.204-9.132-9.184-9.14c-5.087-0.012-9.188,4.14-9.172,9.291
	C141.293,49.02,145.362,53.088,150.497,53.056z"/>
</svg>
