<?xml version="1.0" encoding="utf-8"?>
<!-- Generator: Adobe Illustrator 16.0.0, SVG Export Plug-In . SVG Version: 6.00 Build 0)  -->
<!DOCTYPE svg PUBLIC "-//W3C//DTD SVG 1.1//EN" "http://www.w3.org/Graphics/SVG/1.1/DTD/svg11.dtd">
<svg version="1.1" id="图层_1" xmlns="http://www.w3.org/2000/svg" xmlns:xlink="http://www.w3.org/1999/xlink" x="0px" y="0px"
	 width="300px" height="300px" viewBox="0 0 300 300" enable-background="new 0 0 300 300" xml:space="preserve">
<image display="none" overflow="visible" width="15" height="15" xlink:href="C47F110E.jpg"  transform="matrix(10.0162 0 0 10.0162 76.7559 75.583)">
</image>
<path fill="#1E95D4" d="M149.331,0.442L0,149.705l149.331,149.332l149.242-149.332L149.331,0.442z M178.739,216.514
	c-21.044-5.218-42-16.268-58.905-33.086c-16.773-16.86-27.868-37.861-33.106-58.859c-5.195-20.89,3.302-39.997,13.824-42.924
	c2.684-0.771,13.559-1.981,29.937,27.23c4.666,8.43,1.145,8.011-9.333,25.115c-4.931,7.969,3.081,18.797,3.081,18.797
	s5.459,8.565,11.535,14.684c6.162,6.142,14.704,11.534,14.704,11.534s10.83,8.035,18.842,3.169
	c17.08-10.455,16.641-14.108,25.006-9.376c29.276,16.354,28.087,27.229,27.295,29.893
	C218.756,213.232,199.605,221.751,178.739,216.514"/>
</svg>
