<?xml version="1.0" encoding="utf-8"?>
<!-- Generator: Adobe Illustrator 16.0.0, SVG Export Plug-In . SVG Version: 6.00 Build 0)  -->
<!DOCTYPE svg PUBLIC "-//W3C//DTD SVG 1.1//EN" "http://www.w3.org/Graphics/SVG/1.1/DTD/svg11.dtd">
<svg version="1.1" id="图层_1" xmlns="http://www.w3.org/2000/svg" xmlns:xlink="http://www.w3.org/1999/xlink" x="0px" y="0px"
	 width="300px" height="300px" viewBox="0 0 300 300" enable-background="new 0 0 300 300" xml:space="preserve">
<g>
	<g>
		<path fill-rule="evenodd" clip-rule="evenodd" fill="#666666" d="M150.666,0C68.195,0,1.333,66.862,1.333,149.333
			c0,82.472,66.862,149.334,149.333,149.334c82.472,0,149.334-66.862,149.334-149.334C300,66.862,233.138,0,150.666,0z
			 M152.165,287.158c-50.732,0-86.77-31.081-87.284-31.594c8.213-4.784,41.918-11.346,49.811-16.311
			c8.738-5.501,5.927-35.571,5.927-35.571l-5.927-5.192c0,0-1.195-13.766-4.077-18.526c-4.935-8.138-11.859-29.639-11.859-29.639
			s-5.927-4.316-5.927-11.865c0-7.537,5.927-11.859,5.927-11.859s-4.632-20.988-4.632-35.571c0-33.163,25.224-47.425,59.78-47.425
			c34.568,0,53.794,16.788,53.794,47.425c0,14.583-2.222,35.571-2.222,35.571s5.927,4.323,5.927,11.859
			c0,7.549-5.927,11.865-5.927,11.865s-6.096,18.579-11.859,29.639c-2.572,4.93-4.077,18.526-4.077,18.526l-5.927,5.192
			c0,0-2.812,30.07,5.927,35.571c7.787,4.9,40.734,11.353,49.479,16.124C239.019,255.961,202.898,287.158,152.165,287.158z"/>
	</g>
</g>
</svg>
