<?xml version="1.0" encoding="utf-8"?>
<!-- Generator: Adobe Illustrator 16.0.0, SVG Export Plug-In . SVG Version: 6.00 Build 0)  -->
<!DOCTYPE svg PUBLIC "-//W3C//DTD SVG 1.1//EN" "http://www.w3.org/Graphics/SVG/1.1/DTD/svg11.dtd">
<svg version="1.1" id="图层_1" xmlns="http://www.w3.org/2000/svg" xmlns:xlink="http://www.w3.org/1999/xlink" x="0px" y="0px"
	 width="300px" height="300px" viewBox="0 0 300 300" enable-background="new 0 0 300 300" xml:space="preserve">
<path d="M287.994,210.826H34.868c2.972-21.15,11.045-75.275,20.536-103.621c17.715-52.917,56.083-77.817,91.428-78.274
	c0.305,0.051,0.625,0.077,0.947,0.077c0.328,0,0.641-0.025,0.953-0.077c32.771,0.457,70.429,24.825,89.192,76.602
	c5.378,14.811,8.959,44.634,13.493,74.246c0.574,3.824,4.872,5.902,8.611,4.889c3.732-1.014,5.404-4.762,4.897-8.604
	c-3.866-29.072-8.241-59.926-13.813-75.302c-19.7-54.353-59.123-82.411-96.317-85.543V8c0-3.863-3.134-7-7.017-7
	c-3.868,0-7.009,3.136-7.009,7v7.194c-51.929,3.986-86.582,51.465-98.665,87.57c-10.335,30.861-18.622,89.74-21.252,108.063H8.008
	c-3.872,0-7.008,3.143-7.008,7.01s3.137,7,7.008,7h17.433c0.464,0.092,0.933,0.143,1.397,0.143c0.464,0,0.929-0.051,1.376-0.143
	h259.78c3.868,0,7.009-3.133,7.009-7S291.862,210.826,287.994,210.826L287.994,210.826z M194.539,254.008
	c-3.344-1.941-7.633-0.811-9.584,2.533c-6.392,10.977-31.673,24.521-44.168,24.521c-12.506,0-28.388-10.023-34.789-21
	c-5.438-6.848-8.629-8.014-11.973-6.055c-3.344,1.941-3.901,5.953-2.533,9.574c6.172,16.416,25.871,31.918,49.294,31.488
	c25.601,0.869,47.487-16.381,56.286-31.488C199.031,260.238,197.892,255.949,194.539,254.008L194.539,254.008z M194.539,254.008"/>
</svg>
