<?xml version="1.0" encoding="utf-8"?>
<!-- Generator: Adobe Illustrator 16.0.0, SVG Export Plug-In . SVG Version: 6.00 Build 0)  -->
<!DOCTYPE svg PUBLIC "-//W3C//DTD SVG 1.1//EN" "http://www.w3.org/Graphics/SVG/1.1/DTD/svg11.dtd">
<svg version="1.1" id="图层_1" xmlns="http://www.w3.org/2000/svg" xmlns:xlink="http://www.w3.org/1999/xlink" x="0px" y="0px"
	 width="300px" height="300px" viewBox="0 0 300 300" enable-background="new 0 0 300 300" xml:space="preserve">
<g>
	<g>
		<path fill-rule="evenodd" clip-rule="evenodd" fill="#666666" d="M275.303,6H24.229C-1.86,6,0.03,30.578,0.03,30.578
			s-1.134,23.821,24.199,23.821h6.05v241.998l30.248-30.249h7.264l22.988,19.157v5.042l3.025-2.521l3.025,2.521v-5.042
			l22.987-19.157h8.475l22.986,19.156v5.043l3.025-2.521l3.025,2.521v-5.042l22.987-19.157h2.424l22.987,19.157v5.042l3.025-2.521
			l3.025,2.521v-5.042l22.987-19.157h7.264l30.248,30.249V54.399h3.026c26.433,0,25.25-23.821,25.25-23.821S302.526,6,275.303,6z
			 M30.28,42.716c-7.168,0.036-18.15-1.569-18.15-11.76c0-11.721,10.982-13.48,18.15-13.383V42.716z M66.579,72.549h127.048v12.1
			H66.579V72.549z M66.579,114.899h84.698v12.1H66.579V114.899z M187.578,211.697H66.579v-12.101h120.999V211.697z M199.678,169.348
			H66.579v-12.1h133.099V169.348z M272.276,42.617V17.663c7.14,0.493,15.649,3.194,15.649,13.293
			C287.926,39.738,279.416,42.142,272.276,42.617z"/>
	</g>
</g>
</svg>
