<?xml version="1.0" encoding="utf-8"?>
<!-- Generator: Adobe Illustrator 16.0.0, SVG Export Plug-In . SVG Version: 6.00 Build 0)  -->
<!DOCTYPE svg PUBLIC "-//W3C//DTD SVG 1.1//EN" "http://www.w3.org/Graphics/SVG/1.1/DTD/svg11.dtd">
<svg version="1.1" id="图层_1" xmlns="http://www.w3.org/2000/svg" xmlns:xlink="http://www.w3.org/1999/xlink" x="0px" y="0px"
	 width="300px" height="300px" viewBox="0 0 300 300" enable-background="new 0 0 300 300" xml:space="preserve">
<g>
	<g>
		<path fill-rule="evenodd" clip-rule="evenodd" fill="#666666" d="M273.352,6h-12.536v0.005H36.073V6H24.058
			C-1.847,6,0.03,30.41,0.03,30.41s-1.126,23.646,24.028,23.646h6.008v240.283l33.312-33.312l26.759,22.299v5.006l3.003-2.503
			l3.003,2.503v-5.006l27.032-22.526l27.031,22.525v5.007l3.004-2.503l3.004,2.503v-5.007l24.028-20.022l24.028,20.023v5.006
			l3.003-2.503l3.004,2.503v-5.006l26.759-22.299l33.312,33.312V54.056h3.004c26.245,0,25.073-23.646,25.073-23.646
			S300.383,6,273.352,6z M30.066,42.46c-7.117,0.035-18.022-1.56-18.022-11.675c0-11.642,10.905-13.39,18.022-13.294V42.46z
			 M258.334,264.304l-18.021-18.021v-6.007l-3.276,2.73l-2.73-2.73v5.007l-27.032,22.531l-21.024-17.524v-10.014l-6.007,5.007
			l-6.007-5.007v10.013l-21.025,17.524l-27.032-22.53v-5.007l-3.003,2.503l-3.003-2.503v5.007L93.14,267.813l-27.032-22.531v-5.007
			l-2.73,2.73l-3.276-2.73v6.007L42.08,264.304V18.02h216.254V264.304z M270.348,42.361V17.581c7.09,0.49,15.54,3.173,15.54,13.205
			C285.888,39.501,277.438,41.889,270.348,42.361z M192.256,72.083H66.108v12.014h126.148V72.083z M150.206,114.132H66.108v12.014
			h84.098V114.132z M198.264,156.182H66.108v12.015h132.156V156.182z M186.249,198.231H66.108v12.015h120.141V198.231z"/>
	</g>
</g>
</svg>
