<?xml version="1.0" encoding="utf-8"?>
<!-- Generator: Adobe Illustrator 16.0.0, SVG Export Plug-In . SVG Version: 6.00 Build 0)  -->
<!DOCTYPE svg PUBLIC "-//W3C//DTD SVG 1.1//EN" "http://www.w3.org/Graphics/SVG/1.1/DTD/svg11.dtd">
<svg version="1.1" id="图层_1" xmlns="http://www.w3.org/2000/svg" xmlns:xlink="http://www.w3.org/1999/xlink" x="0px" y="0px"
	 width="300px" height="300px" viewBox="0 0 300 300" enable-background="new 0 0 300 300" xml:space="preserve">
<g>
	<g>
		<path d="M149.496,2.004C67.482,2.004,1,68.486,1,150.5C1,232.516,67.482,299,149.496,299c82.009,0,148.494-66.484,148.494-148.5
			C297.99,68.486,231.505,2.004,149.496,2.004z M244.905,245.91c-12.396,12.402-26.821,22.129-42.893,28.93
			c-16.624,7.027-34.299,10.598-52.517,10.598c-18.223,0-35.892-3.57-52.522-10.598c-16.064-6.801-30.491-16.527-42.893-28.93
			c-12.396-12.391-22.126-26.83-28.92-42.893c-7.033-16.625-10.601-34.293-10.601-52.518c0-18.223,3.568-35.892,10.601-52.517
			c6.794-16.063,16.524-30.497,28.92-42.896C66.483,42.692,80.91,32.961,96.974,26.164c16.631-7.029,34.299-10.597,52.522-10.597
			c18.218,0,35.893,3.568,52.517,10.597c16.071,6.798,30.497,16.528,42.893,28.924c12.396,12.399,22.131,26.832,28.925,42.896
			c7.032,16.625,10.597,34.294,10.597,52.517c0,18.225-3.564,35.893-10.597,52.518C267.036,219.08,257.302,233.52,244.905,245.91z
			 M195.522,161.896c-4.358-2.57-8.935-4.826-13.757-6.645c14.735-9.792,24.431-26.353,24.431-45.169
			c0-30.49-25.591-55.328-57.009-55.328c-31.419,0-56.624,24.837-56.624,54.947c0,18.823,9.695,35.376,24.431,45.168
			c-33.353,12.795-56.623,41.598-56.623,78.107h19.803c0-36.137,24.405-63.803,60.478-67.941c0.387,0,10.082-0.756,18.23,0h0.773
			c6.42,0.883,12.557,2.604,18.326,5.002C183.177,166.57,189.114,163.838,195.522,161.896z M149.188,151.113
			c-23.658,0-42.661-18.449-42.661-41.411c0-22.955,19.003-41.397,42.661-41.397c23.657,0,42.661,18.442,42.661,41.397
			C191.849,132.664,172.845,151.113,149.188,151.113z M257.734,201.553l-46.136-35.646c-0.226-0.16-0.593-0.225-0.916-0.135
			c-0.322,0.09-0.534,0.283-0.534,0.502v24.059h-34.313c-2.753,0-5.105,1.707-5.983,4.092c-0.244,0.258-0.366,0.549-0.366,0.846
			v14.76c0,0.299,0.122,0.594,0.366,0.859c0.884,2.385,3.23,4.086,5.983,4.086h34.313v24.064c0,0.205,0.2,0.418,0.534,0.502
			c0.323,0.084,0.69,0.025,0.916-0.135l46.136-35.648c0.419-0.289,0.663-0.676,0.663-1.102
			C258.397,202.238,258.153,201.844,257.734,201.553z"/>
	</g>
</g>
</svg>
