<?xml version="1.0" encoding="utf-8"?>
<!-- Generator: Adobe Illustrator 16.0.0, SVG Export Plug-In . SVG Version: 6.00 Build 0)  -->
<!DOCTYPE svg PUBLIC "-//W3C//DTD SVG 1.1//EN" "http://www.w3.org/Graphics/SVG/1.1/DTD/svg11.dtd">
<svg version="1.1" id="图层_1" xmlns="http://www.w3.org/2000/svg" xmlns:xlink="http://www.w3.org/1999/xlink" x="0px" y="0px"
	 width="300px" height="300px" viewBox="0 0 300 300" enable-background="new 0 0 300 300" xml:space="preserve">
<g>
	<g>
		<path fill="#666666" d="M6.518,147.407l41.037,35.078c9.943,8.631,24.257,5.936,33.734-8.222l36.145-53.208l43.716,33.987
			c0.459,0.419,7.296,4.894,13.278,4.925c7.098,0.039,13.747-7.217,15.098-9.082L296.244,18.675
			c6.069-8.212,3.194-20.431-6.727-18.464c-12.923,2.569-84.832,18.898-90.318,20.14c-5.47,1.233-7.365,7.683-1.691,12.979
			c2.799,2.615,10.544,9.39,22.32,20.131c-18.273,22.052-39.897,44.752-53.604,58.719l-38.515-30.423
			c-11.611-10.394-23.261-7.453-28.81,1.131l-40.777,60.03l-28.042-23.964c-7.73-6.608-19.271-5.596-25.783,2.261
			C-2.209,129.069-1.213,140.799,6.518,147.407z M280.374,86.111c-21.295,22.037-93.339,113.24-99.117,120.518
			c-3.556,4.484-8.629,1.749-9.429,0.935c-0.798-0.807-25.601-25.197-43.092-40.01c-4.877-4.117-12.559-2.641-14.931,0.364
			c-1.866,2.362-45.392,57.863-47.107,60.037c-1.707,2.183-7.881,3.62-12.836-0.102c-10.014-7.518-27.822-23.626-41.725-35.27
			c-6.924-5.791-12.132-2.006-12.132,0.713s0,93.496,0,93.496s2.157,12.67,15.389,12.67h270.133c12.188,0,13.88-15.54,13.88-15.54
			V85.432C299.406,82.223,290.047,76.112,280.374,86.111z"/>
	</g>
</g>
</svg>
