<?xml version="1.0" encoding="utf-8"?>
<!-- Generator: Adobe Illustrator 16.0.0, SVG Export Plug-In . SVG Version: 6.00 Build 0)  -->
<!DOCTYPE svg PUBLIC "-//W3C//DTD SVG 1.1//EN" "http://www.w3.org/Graphics/SVG/1.1/DTD/svg11.dtd">
<svg version="1.1" id="图层_1" xmlns="http://www.w3.org/2000/svg" xmlns:xlink="http://www.w3.org/1999/xlink" x="0px" y="0px"
	 width="300px" height="300px" viewBox="0 0 300 300" enable-background="new 0 0 300 300" xml:space="preserve">
<path fill-rule="evenodd" clip-rule="evenodd" fill="#666666" d="M295.833,153.771l-14.004,8.09
	c-2.825,29.801-15.605,58.821-38.354,81.598c-22.153,22.159-50.755,35.523-81.559,38.423l-8.055,13.957
	c-0.947,1.648-2.708,2.669-4.614,2.669s-3.666-1.009-4.613-2.669l-8.066-13.957c-30.799-2.899-59.382-16.275-81.537-38.423
	c-22.737-22.766-35.523-51.792-38.354-81.581l-14.015-8.106C1.008,152.818,0,151.059,0,149.152s1.02-3.666,2.663-4.614l14.015-8.095
	c2.808-29.795,15.595-58.822,38.332-81.591c22.176-22.171,50.76-35.546,81.569-38.434l8.044-13.947c1.896-3.296,7.333-3.296,9.227,0
	l8.045,13.947c30.82,2.887,59.427,16.274,81.58,38.451c22.749,22.764,35.529,51.779,38.354,81.574l14.004,8.095
	c1.642,0.948,2.662,2.708,2.662,4.614S297.486,152.818,295.833,153.771z M228.12,70.246c-0.526-0.526-1.222-0.796-1.911-0.796
	c-0.364,0-0.729,0.079-1.06,0.225l0.034-0.029l-96.839,58.137l-58.569,97.681c-0.247,0.896-0.118,1.917,0.611,2.617
	c0.504,0.494,1.16,0.729,1.811,0.729c0.235,0,0.464-0.034,0.689-0.09l97.725-58.665l58.121-96.934
	C229.097,72.179,228.883,71.03,228.12,70.246z M136.343,135.8l0.012-0.011l26.246,26.262l-65.615,39.392L136.343,135.8z"/>
</svg>
