<?xml version="1.0" encoding="utf-8"?>
<!-- Generator: Adobe Illustrator 16.0.0, SVG Export Plug-In . SVG Version: 6.00 Build 0)  -->
<!DOCTYPE svg PUBLIC "-//W3C//DTD SVG 1.1//EN" "http://www.w3.org/Graphics/SVG/1.1/DTD/svg11.dtd">
<svg version="1.1" id="图层_1" xmlns="http://www.w3.org/2000/svg" xmlns:xlink="http://www.w3.org/1999/xlink" x="0px" y="0px"
	 width="300px" height="300px" viewBox="0 0 300 300" enable-background="new 0 0 300 300" xml:space="preserve">
<path fill="#666666" d="M1.334,150.667C1.334,233.17,68.16,300,150.667,300C233.178,300,300,233.17,300,150.667
	C300,68.156,233.178,1.334,150.667,1.334C68.16,1.334,1.334,68.156,1.334,150.667L1.334,150.667z M132,57.334
	c0-15.497,12.511-28,28-28c15.489,0,28,12.503,28,28c0,15.497-12.511,28-28,28C144.511,85.334,132,72.831,132,57.334L132,57.334z
	 M104,244v-9.333L127.702,132h-14.369v-18.667H132h28h18.667l-25.851,111.907C150.667,233.822,154.213,244,160,244l18.667-28h18.667
	L160,272h-18.667H132C116.508,272,104,259.497,104,244L104,244z M104,244"/>
</svg>
