<?xml version="1.0" encoding="utf-8"?>
<!-- Generator: Adobe Illustrator 16.0.0, SVG Export Plug-In . SVG Version: 6.00 Build 0)  -->
<!DOCTYPE svg PUBLIC "-//W3C//DTD SVG 1.1//EN" "http://www.w3.org/Graphics/SVG/1.1/DTD/svg11.dtd">
<svg version="1.1" id="图层_1" xmlns="http://www.w3.org/2000/svg" xmlns:xlink="http://www.w3.org/1999/xlink" x="0px" y="0px"
	 width="300px" height="300px" viewBox="0 0 300 300" enable-background="new 0 0 300 300" xml:space="preserve">
<path fill="#666666" d="M145.363,246.902L39.766,137.838l27.07-22.032l61.054,48.632c25.021-30.219,80.577-90.18,157.217-137.857
	l6.454,15.102C221.211,107.312,163.615,199.687,145.363,246.902L145.363,246.902L145.363,246.902z M277.666,118.599
	c2.42,9.992,3.708,20.422,3.708,31.151c0,72.973-59.151,132.124-132.124,132.124c-72.965,0-132.125-59.159-132.125-132.124
	c0-72.973,59.159-132.125,132.125-132.125c18.146,0,35.442,3.661,51.184,10.284V9.504C184.465,3.683,167.227,0.5,149.25,0.5
	C66.819,0.5,0,67.319,0,149.75S66.819,299,149.25,299S298.5,232.181,298.5,149.75c0-10.681-1.126-21.102-3.256-31.151H277.666
	L277.666,118.599z M277.666,118.599"/>
</svg>
