<?xml version="1.0" encoding="utf-8"?>
<!-- Generator: Adobe Illustrator 16.0.0, SVG Export Plug-In . SVG Version: 6.00 Build 0)  -->
<!DOCTYPE svg PUBLIC "-//W3C//DTD SVG 1.1//EN" "http://www.w3.org/Graphics/SVG/1.1/DTD/svg11.dtd">
<svg version="1.1" id="图层_1" xmlns="http://www.w3.org/2000/svg" xmlns:xlink="http://www.w3.org/1999/xlink" x="0px" y="0px"
	 width="300px" height="300px" viewBox="0 0 300 300" enable-background="new 0 0 300 300" xml:space="preserve">
<image display="none" overflow="visible" width="15" height="15" xlink:href="2EE621CE.jpg"  transform="matrix(10.0162 0 0 10.0162 76.7559 75.583)">
</image>
<path fill="#1E95D4" d="M149.692,0L0,149.671l149.692,149.647l149.648-149.647L149.692,0z M126.74,92.795v0.044
	c4.038-11.103,10.665-21.351,19.88-29.887l0.043,0.088c0.088-0.131,0.175-0.219,0.308-0.307c7.943-7.153,20.187-6.517,27.341,1.426
	c7.197,7.965,6.582,20.187-1.36,27.384c-1.36,1.208-2.854,2.195-4.433,2.962c0,0-2.371,0.987-3.599,1.514
	c-3.511,1.58-6.759,3.466-9.787,5.859c-2.063,1.47-4.125,3.226-6.056,4.98c-8.865,8.009-14.219,18.388-16.062,29.249
	c1.931-3.291,4.652-6.011,7.724-7.898c-3.731,4.696-5.793,10.664-5.442,17.071c0.132,2.151,0.571,4.301,1.185,6.232
	c0.132,0.438,0.615,1.668,0.922,2.369c0.35,0.702,0.789,1.58,0.921,1.844c1.492,2.721,3.73,5.091,6.626,6.626
	c2.414,1.317,5.003,1.932,7.504,1.976c-0.044,0.044-0.087,0-0.132,0.044c-0.131,0-1.536,0.219-3.116,0.307
	c-2.062,0-3.554-0.307-3.554-0.307c-5.837-1.009-11.234-0.308-16.413,2.238l-2.238-3.247c3.862-1.844,8.47-1.712,12.902-0.923
	c-0.614-0.263-1.229-0.482-1.799-0.789c-2.676-1.668-6.363-4.959-9.655-11.366c0,0-0.043-0.087-0.088-0.175
	c-0.088-0.176-0.176-0.264-0.263-0.439c-0.043-0.088-0.088-0.264-0.131-0.351C125.731,144.229,116.471,120.531,126.74,92.795
	 M180.017,160.992c-3.599-2.457-5.88-6.582-7.461-10.882c0.088,0.789,0.221,1.58,0.221,2.37c-0.088,3.071-1.054,7.943-4.959,13.955
	c0,0-0.045,0.088-0.088,0.264c-0.133,0.088-0.176,0.263-0.308,0.351c-0.132,0.176-0.176,0.263-0.264,0.308
	c-3.248,4.476-19.177,24.312-48.317,29.271c-11.629,2.02-23.83,1.405-35.81-2.369v-0.044c-0.132-0.044-0.22-0.087-0.352-0.132
	c-10.181-3.247-15.71-14.218-12.419-24.399c3.292-10.182,14.219-15.8,24.4-12.464c1.755,0.526,3.335,1.361,4.784,2.37
	c0,0,1.36,1.009,2.018,1.491c3.468,2.678,7.065,4.871,11.015,6.452c2.37,1.009,4.916,1.931,7.417,2.764
	c11.279,3.687,22.952,3.116,33.309-0.701c-3.862-0.044-7.504-1.054-10.708-2.722c5.88,0.835,12.156-0.351,17.555-3.861
	c1.843-1.185,3.378-2.589,4.783-4.125c0.264-0.307,1.141-1.405,1.624-2.019c0.438-0.571,0.921-1.405,1.14-1.668
	c1.581-2.633,2.502-5.705,2.414-9.041c-0.088-2.765-0.833-5.354-2.019-7.548l0.044,0.088l-0.044-0.088c0,0,0.965,1.229,1.888,2.633
	c1.053,1.756,1.579,3.16,1.579,3.16c2.107,5.53,5.442,9.875,10.182,13.078L180.017,160.992z M214.73,207.204
	c-10.488,2.237-20.758-4.432-23.041-14.921c-0.35-1.756-0.482-3.555-0.35-5.311c0,0,0.131-1.01,0.131-1.053
	c0.702-4.828,0.922-9.566,0.219-14.219c-0.307-2.546-0.745-5.179-1.272-7.768c-2.545-11.63-8.819-21.46-17.29-28.482
	c1.931,3.335,2.853,6.934,2.984,10.621c-2.195-5.529-6.363-10.357-12.068-13.253c-1.976-0.966-3.95-1.668-6.013-2.151
	c-0.439-0.043-1.712-0.263-2.545-0.351c-0.746-0.088-1.712-0.131-2.019-0.131c-3.116-0.044-6.231,0.701-9.084,2.457
	c-2.282,1.405-4.169,3.335-5.486,5.486c0.132-0.351,0.351-0.659,0.527-1.009c-0.176,0.263-0.264,0.438-0.264,0.438
	s0.658-1.448,1.493-2.896c1.053-1.755,2.106-2.852,2.106-2.852c3.994-4.367,6.364-9.26,6.978-15.009l3.95-0.153
	c-0.482,3.927-2.721,7.459-5.441,10.576c0.088-0.044,0.131-0.132,0.219-0.176c2.765-1.448,7.46-3.028,14.614-2.699
	c0,0,0.088,0,0.264,0c0.132,0.043,0.308,0.043,0.526,0.043c0.131,0,0.219,0.044,0.352,0.044c5.485,0.57,30.632,4.499,49.502,27.253
	c7.548,8.952,13.121,19.88,15.887,32.123h-0.045c0.045,0.176,0.088,0.264,0.088,0.396
	C231.889,194.696,225.175,204.966,214.73,207.204"/>
</svg>
