<?xml version="1.0" encoding="utf-8"?>
<!-- Generator: Adobe Illustrator 15.0.0, SVG Export Plug-In . SVG Version: 6.00 Build 0)  -->
<!DOCTYPE svg PUBLIC "-//W3C//DTD SVG 1.1//EN" "http://www.w3.org/Graphics/SVG/1.1/DTD/svg11.dtd">
<svg version="1.1" id="图层_1" xmlns="http://www.w3.org/2000/svg" xmlns:xlink="http://www.w3.org/1999/xlink" x="0px" y="0px"
	 width="300px" height="300px" viewBox="0 0 300 300" enable-background="new 0 0 300 300" xml:space="preserve">
<g>
	<path fill="#808080" d="M237.581,2.395H64.114c-11.969,0-21.678,9.803-21.678,21.883v251.695c0,12.081,9.709,21.882,21.678,21.882
		h173.467c11.969,0,21.677-9.801,21.677-21.882V24.278C259.261,12.198,249.551,2.395,237.581,2.395L237.581,2.395z M156.278,286.924
		c-8.987,0-16.27-7.355-16.27-16.417c0-9.06,7.282-16.415,16.27-16.415c8.985,0,16.267,7.355,16.267,16.415
		C172.545,279.568,165.246,286.924,156.278,286.924L156.278,286.924z M237.581,210.326c0,12.08-9.709,21.883-21.678,21.883H85.794
		c-11.97,0-21.68-9.803-21.68-21.883V46.159c0-12.08,9.71-21.881,21.68-21.881h130.109c11.969,0,21.678,9.801,21.678,21.881V210.326
		L237.581,210.326z"/>
</g>
</svg>
