<?xml version="1.0" encoding="utf-8"?>
<!-- Generator: Adobe Illustrator 16.0.0, SVG Export Plug-In . SVG Version: 6.00 Build 0)  -->
<!DOCTYPE svg PUBLIC "-//W3C//DTD SVG 1.1//EN" "http://www.w3.org/Graphics/SVG/1.1/DTD/svg11.dtd">
<svg version="1.1" id="图层_1" xmlns="http://www.w3.org/2000/svg" xmlns:xlink="http://www.w3.org/1999/xlink" x="0px" y="0px"
	 width="300px" height="300px" viewBox="0 0 300 300" enable-background="new 0 0 300 300" xml:space="preserve">
<path d="M269.317,42.111c-3.562-3.257-8.246-5.051-13.102-5.051c-0.439,0-0.891,0.012-1.33,0.037
	c-0.27,0.024-3.354,0.208-8.186,0.208c-8.002,0-23.604-0.524-38.401-4.087c-19.104-4.586-41.136-25.85-47.552-30.045
	C157.526,1.062,153.794,0,150.072,0c-3.72,0-7.441,1.062-10.661,3.159c-0.768,0.513-23.849,24.642-46.441,30.058
	c-14.761,3.563-30.693,4.087-38.67,4.087c-4.831,0-7.905-0.183-8.21-0.208c-0.427-0.024-0.841-0.037-1.268-0.037
	c-4.868,0-9.576,1.805-13.139,5.063c-3.879,3.562-6.099,8.515-6.099,13.712v46.941c0,173.518,116.158,195.865,121.098,196.742
	c1.123,0.186,2.257,0.283,3.391,0.283c1.136,0,2.281-0.098,3.404-0.283c4.929-0.877,121.94-23.225,121.94-196.742V55.834
	C275.417,50.625,273.197,45.66,269.317,42.111L269.317,42.111z M153.403,167.467l0.317,0.328l-14.688,12.98l-51.089-55.249
	l14.7-12.979l37.487,40.563l80.464-74.341l13.297,14.321L153.403,167.467L153.403,167.467z M153.403,167.467"/>
</svg>
