<?xml version="1.0" encoding="utf-8"?>
<!-- Generator: Adobe Illustrator 16.0.0, SVG Export Plug-In . SVG Version: 6.00 Build 0)  -->
<!DOCTYPE svg PUBLIC "-//W3C//DTD SVG 1.1//EN" "http://www.w3.org/Graphics/SVG/1.1/DTD/svg11.dtd">
<svg version="1.1" id="图层_1" xmlns="http://www.w3.org/2000/svg" xmlns:xlink="http://www.w3.org/1999/xlink" x="0px" y="0px"
	 width="300px" height="300px" viewBox="0 0 300 300" enable-background="new 0 0 300 300" xml:space="preserve">
<g>
	<g>
		<path fill="#666666" d="M55.862,27.735c0.94,1.621,2.093,3.025,3.457,4.22c1.367,1.194,3.457,3.236,6.273,6.141
			c2.815,2.897,5.675,5.875,8.572,8.949c3.243,3.576,6.829,7.417,10.754,11.508h76.798c3.752-4.091,7.335-7.932,10.754-11.508
			c2.897-3.073,5.755-6.052,8.577-8.949c2.809-2.904,4.905-4.946,6.269-6.141c1.194-1.194,2.307-2.599,3.325-4.22
			c1.023-1.615,1.709-3.325,2.049-5.116s0.34-3.576,0-5.366c-0.34-1.792-1.194-3.455-2.558-4.987
			c-1.54-1.534-2.897-2.219-4.099-2.049c-1.193,0.169-2.518,0.597-3.97,1.282c-1.451,0.679-3.154,1.445-5.115,2.3
			c-1.96,0.856-4.479,1.276-7.551,1.276c-2.904,0-5.164-0.766-6.785-2.3c-1.622-1.534-3.114-3.196-4.479-4.987
			c-1.364-1.792-2.904-3.454-4.606-4.987c-1.71-1.533-4.018-2.3-6.914-2.3c-2.897,0-5.245,0.767-7.043,2.3
			c-1.784,1.534-3.453,3.196-4.987,4.987c-1.541,1.791-3.118,3.413-4.74,4.857c-1.621,1.452-3.711,2.179-6.272,2.179
			c-3.074,0-5.502-0.727-7.294-2.179c-1.794-1.445-3.373-3.066-4.736-4.857c-1.367-1.792-2.86-3.454-4.482-4.987
			c-1.621-1.533-3.88-2.3-6.781-2.3c-2.904,0-5.207,0.767-6.915,2.3c-1.706,1.534-3.287,3.196-4.735,4.987
			c-1.449,1.791-2.986,3.453-4.608,4.987c-1.621,1.534-3.796,2.3-6.53,2.3c-3.071,0-5.628-0.42-7.677-1.276
			c-2.049-0.854-3.796-1.621-5.248-2.3c-1.452-0.685-2.771-1.112-3.969-1.282c-1.194-0.17-2.558,0.515-4.095,2.049
			c-1.368,1.533-2.263,3.196-2.69,4.987c-0.428,1.791-0.428,3.575,0,5.366C54.24,24.41,54.925,26.12,55.862,27.735z
			 M170.611,180.863c-0.149-0.998-0.435-3.209-1.004-7.742c-2.145-17.24,1.432-31.665,1.432-31.665
			c3.86-22.52,33.66-31.184,43.606-33.463c-3.42-4.167-6.854-8.034-10.272-11.596c-10.245-10.225-21.848-19.011-34.82-26.338H76.885
			c-13.139,7.327-24.829,16.113-35.068,26.338c-4.441,4.431-8.705,9.336-12.799,14.703c-4.098,5.373-7.81,11.337-11.138,17.906
			c-3.329,6.561-5.974,13.637-7.935,21.223C7.98,157.814,7,165.957,7,174.647c0,14.492,2.219,27.452,6.657,38.871
			c4.437,11.426,11.392,21.142,20.863,29.155c9.472,8.012,21.545,14.152,36.225,18.414c8.111,2.354,17.118,4.057,27.003,5.109
			v-32.194c-0.712-13.021,2.504-17.947,2.504-17.947C112.859,180.558,168.324,180.843,170.611,180.863z M164.749,196.326
			c-30.79,0-55.754,13.583-55.754,30.349c0,16.771,24.964,30.355,55.754,30.355c30.804,0,55.745-13.584,55.745-30.355
			C220.494,209.909,195.553,196.326,164.749,196.326z M236.105,251.969c-1.784,0-3.548-0.055-5.313-0.143
			c-0.067,0.522-0.054,1.065-0.148,1.588c0.359,1.052,0.556,2.205,0.556,3.392v7.119c1.614,0.079,3.243,0.141,4.905,0.141
			c30.805,0,55.752-13.583,55.752-30.348V221.62C291.857,238.386,266.91,251.969,236.105,251.969z M164.749,266.041
			c-30.708,0-55.603-13.51-55.741-30.207c0,6.371-0.014,11.955-0.014,11.955c0,16.765,24.964,30.349,55.754,30.349
			c30.804,0,55.745-13.584,55.745-30.349v-12.098C220.494,252.464,195.553,266.041,164.749,266.041z M164.749,287.155
			c-30.708,0-55.603-13.509-55.741-30.213c0,6.378-0.014,11.961-0.014,11.961c0,16.766,24.964,30.35,55.754,30.35
			c30.804,0,55.745-13.584,55.745-30.35v-12.098C220.494,273.578,195.553,287.155,164.749,287.155z M236.105,188.632
			c-30.701,0-55.595-13.517-55.737-30.213c0,6.378-0.014,11.955-0.014,11.955c0,7.164,4.586,13.732,12.213,18.93
			c7.708,2.076,14.56,5,20.28,8.63c7.09,1.777,14.954,2.789,23.258,2.789c30.805,0,55.752-13.577,55.752-30.349v-12.092
			C291.857,175.049,266.91,188.632,236.105,188.632z M180.354,149.259c0,16.772,24.969,30.355,55.751,30.355
			c30.805,0,55.752-13.583,55.752-30.355c0-16.765-24.947-30.349-55.752-30.349C205.323,118.91,180.354,132.494,180.354,149.259z
			 M236.105,209.746c-3.752,0-7.402-0.21-10.943-0.597c2.836,3.86,4.742,8.053,5.55,12.538c1.784,0.096,3.582,0.149,5.394,0.149
			c30.805,0,55.752-13.576,55.752-30.35v-12.097C291.857,196.162,266.91,209.746,236.105,209.746z M236.105,230.854
			c-1.784,0-3.548-0.054-5.313-0.142c-0.067,0.521-0.054,1.064-0.148,1.587c0.359,1.065,0.556,2.205,0.556,3.393v7.124
			c1.614,0.082,3.243,0.136,4.905,0.136c30.805,0,55.752-13.583,55.752-30.349v-12.098
			C291.857,217.277,266.91,230.854,236.105,230.854z"/>
	</g>
</g>
</svg>
