<?xml version="1.0" encoding="utf-8"?>
<!-- Generator: Adobe Illustrator 16.0.0, SVG Export Plug-In . SVG Version: 6.00 Build 0)  -->
<!DOCTYPE svg PUBLIC "-//W3C//DTD SVG 1.1//EN" "http://www.w3.org/Graphics/SVG/1.1/DTD/svg11.dtd">
<svg version="1.1" id="图层_1" xmlns="http://www.w3.org/2000/svg" xmlns:xlink="http://www.w3.org/1999/xlink" x="0px" y="0px"
	 width="300px" height="300px" viewBox="0 0 300 300" enable-background="new 0 0 300 300" xml:space="preserve">
<g>
	<g>
		<path d="M150.993-1L18.507,76.041v147.918L150.993,301l132.479-77.041V76.041L150.993-1z M271.236,214.714L150.993,282.51
			L30.869,214.714V85.286L150.993,17.49l120.243,67.796V214.714z M74.012,128.429l6.163,12.326
			c10.112-5.579,16.383-9.371,24.75-15.417l-0.096,9.254h92.449v-6.163c8.132,5.814,14.776,6.981,24.653,12.326l6.163-12.326
			c-32.983-11.61-45.713-36.76-67.796-61.633h-18.49C121.467,90.272,109.598,113.767,74.012,128.429z M191.921,122.199
			l-80.929,0.066c15.923-11.736,28.044-31.042,39.785-45.454C162.747,91.341,176.458,110.58,191.921,122.199z M98.665,220.878
			h12.327v-6.164h80.123v6.164h12.326v-67.796H98.665V220.878z M110.992,165.408h80.123v36.979h-80.123V165.408z"/>
	</g>
</g>
</svg>
