<?xml version="1.0" encoding="utf-8"?>
<!-- Generator: Adobe Illustrator 16.0.0, SVG Export Plug-In . SVG Version: 6.00 Build 0)  -->
<!DOCTYPE svg PUBLIC "-//W3C//DTD SVG 1.1//EN" "http://www.w3.org/Graphics/SVG/1.1/DTD/svg11.dtd">
<svg version="1.1" id="图层_1" xmlns="http://www.w3.org/2000/svg" xmlns:xlink="http://www.w3.org/1999/xlink" x="0px" y="0px"
	 width="300px" height="300px" viewBox="0 0 300 300" enable-background="new 0 0 300 300" xml:space="preserve">
<path fill="#555555" d="M149.103,0C66.884,0,0,66.886,0,149.103c0,82.219,66.884,149.102,149.103,149.102
	s149.103-66.883,149.103-149.102C298.205,66.886,231.321,0,149.103,0 M137.741,137.741l22.723,22.724l-70.431,47.708
	L137.741,137.741z M40.262,225.033l4.3-2.871c-1.028-1.453-1.99-2.934-2.945-4.438l-4.3,2.87c-3.717-5.792-7.031-11.87-9.825-18.234
	l14.614-6.049c-0.721-1.628-1.357-3.28-1.992-4.943l-14.614,6.056c-2.509-6.385-4.575-12.991-6.078-19.813l5.116-1.016
	c-0.392-1.715-0.679-3.474-0.996-5.222l-5.104,1.005c-1.196-6.713-1.896-13.597-2.034-20.615h15.842
	c-0.021-0.892-0.136-1.771-0.136-2.66c0-0.89,0.115-1.757,0.136-2.658H16.402c0.138-7.021,0.838-13.902,2.034-20.626l5.104,1.016
	c0.317-1.749,0.604-3.494,0.996-5.22l-5.116-1.019c1.503-6.818,3.569-13.429,6.078-19.813l14.614,6.059
	c0.635-1.662,1.271-3.314,1.992-4.945l-14.614-6.046c2.794-6.365,6.108-12.443,9.836-18.247l4.289,2.87
	c0.955-1.494,1.917-2.978,2.945-4.417l-4.3-2.879c3.96-5.677,8.377-11.002,13.164-15.989l11.161,11.17
	c1.228-1.291,2.478-2.543,3.758-3.759L57.183,53.427c4.989-4.788,10.314-9.202,15.993-13.165l2.868,4.292
	c1.452-1.03,2.957-1.982,4.448-2.944l-2.869-4.291c5.792-3.715,11.871-7.031,18.236-9.827l6.044,14.614
	c1.62-0.719,3.274-1.345,4.936-1.991l-6.057-14.614c6.385-2.509,12.994-4.575,19.813-6.078l1.016,5.116
	c1.728-0.393,3.475-0.68,5.22-0.984l-1.015-5.106c6.726-1.208,13.608-1.907,20.628-2.043v15.854c0.889-0.022,1.769-0.14,2.658-0.14
	c0.89,0,1.769,0.118,2.657,0.14V16.405c7.034,0.136,13.916,0.835,20.641,2.043l-1.017,5.104c1.736,0.307,3.492,0.594,5.221,0.985
	l1.015-5.116c6.823,1.505,13.416,3.569,19.805,6.08l-6.046,14.612c1.659,0.646,3.303,1.294,4.934,2.002l6.056-14.626
	c6.368,2.81,12.435,6.122,18.233,9.84l-2.866,4.29c1.492,0.953,2.977,1.927,4.427,2.943l2.869-4.3
	c5.677,3.971,11.014,8.375,15.99,13.163l-3.909,3.907l-107.176,72.604l-72.604,107.18l-3.906,3.909
	C48.639,236.044,44.232,230.707,40.262,225.033 M244.782,241.024l-11.173-11.165c-1.217,1.281-2.469,2.53-3.759,3.761l11.16,11.173
	c-4.979,4.775-10.304,9.182-15.98,13.149l-2.869-4.297c-1.45,1.026-2.935,1.98-4.427,2.944l2.866,4.287
	c-5.799,3.729-11.877,7.043-18.255,9.839l-6.055-14.615c-1.61,0.724-3.262,1.356-4.927,1.991l6.048,14.614
	c-6.387,2.509-12.981,4.577-19.801,6.078l-1.019-5.103c-1.725,0.383-3.473,0.667-5.22,0.986l1.016,5.092
	c-6.723,1.207-13.606,1.905-20.629,2.046v-15.843c-0.889,0.02-1.768,0.137-2.657,0.137c-0.889,0-1.769-0.117-2.658-0.137v15.843
	c-7.021-0.141-13.903-0.839-20.628-2.046l1.015-5.092c-1.746-0.309-3.492-0.604-5.22-0.986l-1.016,5.103
	c-6.819-1.501-13.428-3.569-19.813-6.078l6.057-14.614c-1.662-0.635-3.314-1.283-4.936-1.991l-6.044,14.615
	c-6.375-2.796-12.444-6.11-18.247-9.828l2.87-4.298c-1.493-0.953-2.986-1.908-4.438-2.926l-2.868,4.278
	c-5.666-3.957-11.003-8.374-15.993-13.16l3.908-3.909l107.178-72.603l72.604-107.177l3.909-3.908c4.784,4.987,9.2,10.324,13.173,16
	l-4.302,2.87c1.008,1.453,1.983,2.934,2.934,4.427l4.302-2.868c3.714,5.792,7.031,11.87,9.825,18.245l-14.614,6.059
	c0.721,1.61,1.347,3.262,1.992,4.924l14.614-6.059c2.51,6.384,4.577,12.995,6.077,19.813l-5.113,1.019
	c0.391,1.726,0.676,3.472,0.981,5.22l5.117-1.016c1.198,6.724,1.896,13.605,2.032,20.626h-15.843c0.012,0.901,0.13,1.769,0.13,2.658
	c0,0.889-0.118,1.771-0.13,2.66h15.843c-0.136,7.019-0.834,13.891-2.032,20.607l-5.117-1.019c-0.294,1.758-0.591,3.507-0.974,5.231
	l5.105,1.006c-1.504,6.832-3.567,13.431-6.067,19.825l-14.624-6.059c-0.646,1.664-1.271,3.325-1.992,4.943l14.614,6.051
	c-2.796,6.374-6.111,12.452-9.829,18.244l-4.298-2.87c-0.953,1.491-1.928,2.985-2.934,4.438l4.289,2.871
	C253.972,230.707,249.566,236.044,244.782,241.024"/>
</svg>
