<?xml version="1.0" standalone="no"?>
<!DOCTYPE svg PUBLIC "-//W3C//DTD SVG 1.1//EN" "http://www.w3.org/Graphics/SVG/1.1/DTD/svg11.dtd">
<svg xmlns="http://www.w3.org/2000/svg">
<metadata>Copyright (C) 2017 by original authors @ fontello.com</metadata>
<defs>
<font id="fontello" horiz-adv-x="1000" >
<font-face font-family="fontello" font-weight="400" font-stretch="normal" units-per-em="1000" ascent="850" descent="-150" />
<missing-glyph horiz-adv-x="1000" />
<glyph glyph-name="megaphone" unicode="&#xe800;" d="M929 493q29 0 50-21t21-51-21-50-50-21v-214q0-29-22-50t-50-22q-233 194-453 212-32-10-51-36t-17-57 22-51q-11-19-13-37t4-32 19-31 26-28 35-28q-17-32-63-46t-94-7-73 31q-4 13-17 49t-18 53-12 50-9 56 2 55 12 62h-68q-36 0-63 26t-26 63v107q0 37 26 63t63 26h268q243 0 500 215 29 0 50-22t22-50v-214z m-72-337v532q-220-168-428-191v-151q210-23 428-190z" horiz-adv-x="1000" />

<glyph glyph-name="i-ico01" unicode="&#xe801;" d="M741-71l-401 422 397 419c17 17 17 46 0 64-16 17-44 17-61 0l-418-441c-7-8-12-19-12-30-8-17-5-38 9-52l424-447c17-18 45-18 62 0 17 18 17 47 0 65l0 0z" horiz-adv-x="1000" />

<glyph glyph-name="i-ico02" unicode="&#xe802;" d="M367 356c0 17 3 33 10 49 7 15 17 29 29 41 13 12 28 21 44 27 16 7 34 10 52 10 17 0 35-3 51-10 16-6 31-15 44-27 12-12 22-26 29-41 7-16 10-32 10-49 0-16-3-33-10-48-7-15-17-30-29-41-13-12-28-21-44-28-16-6-34-9-51-9-18 0-36 3-52 9-16 7-31 16-44 28-12 11-22 26-29 41-7 15-10 32-10 48l0 0z m124 309c-318 0-490-308-490-308s224-310 504-310c281 0 497 312 497 312s-192 306-511 306l0 0z m11-534c-133 0-240 101-240 225 0 125 107 226 240 226 132 0 239-101 239-226 0-124-107-225-239-225l0 0z" horiz-adv-x="1000" />

<glyph glyph-name="i-ico03" unicode="&#xe803;" d="M546 114v149c65 1 57 12 113 37l76-111 76 37-76 112c55 35 49 22 111 72l78-110 76 75-89 99 0 0c28 34 44 63 44 80 0 28-52 4-137-64-79-64-188-122-308-122-131 0-250 69-334 137-76 62-122 75-122 49 0-25 22-54 75-105l-113-111 75-75 114 112c52-23 14-5 76-37l-76-149 76-37 75 148c45-16 64-34 114-37v-149" horiz-adv-x="1000" />

<glyph glyph-name="i-ico04" unicode="&#xe804;" d="M792 842h-578c-40 0-72-33-72-73v-839c0-40 32-73 72-73h578c40 0 72 33 72 73v839c0 40-32 73-72 73l0 0z m-271-948c-30 0-54 24-54 54 0 30 24 55 54 55 30 0 54-25 54-55 0-30-24-54-54-54l0 0z m271 255c0-40-32-73-72-73h-434c-40 0-72 33-72 73v547c0 40 32 73 72 73h434c40 0 72-33 72-73v-547l0 0z" horiz-adv-x="1000" />

<glyph glyph-name="i-ico05" unicode="&#xe805;" d="M507 561c62 0 130 11 248 82 75 46 154 106 199 144-21 28-48 42-89 42h-729c-34 0-69-14-89-42 34-27 75-62 137-103 124-96 200-123 323-123l0 0z m474 158c-41-35-116-97-213-152-82-48-178-68-268-68-103 0-192 13-316 96-75 55-144 110-165 124v-7-736c0-62 48-110 117-110h736c61 0 116 48 116 117l-7 736 0 0 0 0z m-302-509c0-7-7-14-14-14h-137v-61h137c7 0 14-7 14-14v-28c0-7-7-13-14-13h-137v-76c0-7-7-14-14-14h-27c-7 0-14 7-14 14v69h-137c-7 0-14 6-14 13v28c0 7 7 14 14 14h137v61h-137c-7 0-14 7-14 14v35c0 6 7 13 14 13h75l-82 138c-7 7 0 13 7 20l27 14c7 7 14 0 21-7l96-165h55l89 165c7 7 14 7 21 7l27-14c7-7 7-13 7-20l-82-138h68c7 0 14-7 14-13v-28l0 0z" horiz-adv-x="1000" />

<glyph glyph-name="i-ico06" unicode="&#xe806;" d="M503-105c-113 0-204 36-204 80v-48c0-45 93-78 207-78 114 0 207 35 207 74l0 52c-6-45-98-80-210-80l0 0z m0 88c-113 0-204 36-204 81v-48c0-45 93-78 207-78 114 0 207 35 207 73l0 52c-6-44-98-80-210-80l0 0z m-452 254v-48c0-43 84-75 191-78 1 17 11 32 28 46-5 0-10 0-16 0-112 0-203 36-203 80l0 0z m3-89v-48c0-42 85-68 192-71v46c-107 2-192 31-192 73l0 0z m457 45c-116 0-210-37-210-82 0-46 94-83 210-83 116 0 210 37 210 83 0 45-94 82-210 82l0 0z m-254 7c115 0 208 35 208 73l-1 52c-6-44-97-80-210-80-112 0-203 36-203 80v-48c0-45 92-77 206-77l0 0z m-3 134c-112 0-203 35-203 80v-48c0-45 92-78 206-78 115 0 208 35 208 74l-1 51c-6-44-97-79-210-79l0 0z m490-85c-113 0-204 37-204 80v-48c0-45 93-78 207-78 114 0 201 34 207 74l0 51c1-40-98-79-210-79l0 0z m-258 409v-139c0-13 11-24 24-24h91c13 0 24 11 24 24v139h101c10 9 10 24 0 33l-153 152c-10 10-25 10-34 0l-154-152c-10-9-10-24 0-33h101l0 0z m-230-294c116 0 210 37 210 83 0 45-94 82-210 82s-210-37-210-82c0-46 94-83 210-83l0 0z m284 11c0-45 94-82 210-82 116 0 210 37 210 82 0 46-94 83-210 83-116 0-210-37-210-83l0 0z m210-218c-5 0-10 0-15 0 17-14 27-35 28-46 107 3 185 35 191 78v48c-4-46-91-80-204-80l0 0z m10-82v-46c106 3 191 29 191 71l1 46c-1-41-86-69-192-71l0 0z m-322 253" horiz-adv-x="1000" />

<glyph glyph-name="i-ico07" unicode="&#xe807;" d="M22 359l137-117c33-29 80-20 112 27l120 178 146-114c2-1 25-16 44-16 24 0 46 24 51 30l356 441c20 27 10 68-23 61-43-8-283-63-301-67-18-4-25-25-6-43 10-9 36-31 75-67-61-74-133-149-179-196l-128 102c-39 34-78 24-96-4l-136-200-94 80c-25 22-64 18-86-8-21-26-18-65 8-87z m913 204c-71-73-311-377-331-402-12-15-29-6-31-3-3 3-86 84-144 134-16 13-42 8-50-2-6-8-151-193-157-200-5-7-26-12-42 1-34 25-93 78-139 117-24 19-41 7-41-2s0-312 0-312 7-42 51-42h901c40 0 46 52 46 52v661c0 11-31 31-63-2z" horiz-adv-x="1000" />

<glyph glyph-name="i-ico08" unicode="&#xe808;" d="M689 684h-546c-35 0-63-28-63-63v-708c0-34 28-62 63-62h546c35 0 63 28 63 62v708c0 35-28 63-63 63z m-189-604h-336v42h336v-42z m168 167h-504v41h504v-41z m0 166h-504v42h504v-42z m189 437h-546c-35 0-63-28-63-62v-63h483c35 0 63-28 63-62v-645h63c35 0 63 27 63 62v708c0 34-28 62-63 62z" horiz-adv-x="1000" />

<glyph glyph-name="i-ico09" unicode="&#xe809;" d="M188 482v159c0 9-6 15-18 15h-61c-11 0-23-6-23-15v-159c0-9 12-18 23-18h61c12 0 18 9 18 18z m706 368h-791c-29 0-53-22-53-52v-773c0-29 24-54 53-54h8v-76c0-23 24-43 56-43h45c31 0 57 20 57 43v76h471v-76c0-23 25-43 57-43h45c31 0 59 20 59 43v77c24 3 47 26 47 53v773c0 30-24 52-54 52z m-19-746c0-39-32-71-72-71h-611c-40 0-71 32-71 71v41h-12c-18 0-39 16-39 35v159c0 20 20 33 39 33h12v75h-12c-18 0-39 15-39 35v159c0 19 20 32 39 32h12v42c0 40 31 71 71 71h611c40 0 72-31 72-71v-611z m-687 76v159c0 10-6 16-18 16h-61c-11 0-23-6-23-16v-159c0-9 12-18 23-18h61c12 0 18 9 18 18z m303 231c0 44-36 79-80 79-44 0-80-35-80-79 0-43 36-78 80-78 44 0 80 35 80 78z m-80 92c13 0 23 11 23 24 0 12-10 23-23 23-13 0-24-11-24-23 0-13 11-24 24-24z m89-58c0-12 10-23 23-23 13 0 23 11 23 23 0 13-10 24-23 24-13 0-23-11-23-24z m-200 24c-13 0-23-11-23-24 0-12 10-23 23-23 13 0 24 11 24 23 0 13-11 24-24 24z m42-128c-13 0-23-10-23-23 0-13 10-23 23-23 13 0 24 10 24 23 0 13-11 23-24 23z m139 0c-13 0-23-10-23-23 0-13 10-23 23-23 13 0 24 10 24 23 0 13-11 23-24 23z m322 408h-611c-20 0-34-15-34-34v-42h12c21 0 36-14 36-32v-159c0-20-16-35-36-35h-12v-75h12c21 0 36-14 36-33v-159c0-19-16-35-36-35h-12v-41c0-19 14-36 34-36h611c19 0 35 17 35 36v611c0 19-16 34-35 34z m-392-491c-86 0-155 69-155 153 0 85 69 154 155 154 85 0 155-69 155-154 0-84-70-153-155-153z m357-35c0-9-7-17-16-17h-30c-9 0-17 8-17 17v371c0 9 8 17 17 17h30c9 0 16-8 16-17v-371z" horiz-adv-x="1000" />

<glyph glyph-name="i-ico10" unicode="&#xe80a;" d="M928 139c-9 49-26 92-48 123-28 37-71 43-110 46-6 0-13 0-21 0-7 0-14 0-22 0-7 0-14 0-21 0-17 0-37 0-52 5-4 2-9 4-13 15-2 8-3 19-2 30 2 2 3 4 5 6 29 30 48 68 56 109 13 9 24 21 32 35 10 16 14 35 12 51-2 14-10 37-42 49 0 34 1 65-9 98-10 30-27 59-49 82-39 40-90 62-145 62h0c-55 0-106-22-145-62l-31 8-18-44-45 24c-4-18 34-151 34-151 0-5 0-10 0-16-32-13-40-36-42-50-3-16 1-35 11-51 8-15 21-28 35-37 8-40 27-77 56-106 1-2 3-4 5-6 1-12 0-23-2-31-4-11-9-13-13-15-15-5-35-5-52-5-7 0-14 0-21 0-8 0-15 0-22 0-8 0-15 0-21 0-39-3-82-9-110-46-22-31-39-74-48-123-9-49-9-97 2-134 0-3 1-6 3-8 1-1 27-38 93-73 37-21 81-37 129-48 59-14 125-22 197-22 2 0 3 1 5 1 2 0 3-1 5-1 72 0 138 8 197 22 48 11 92 27 129 48 53 28 83 59 93 73 2 2 3 5 3 8 11 37 11 85 2 134z m-226 436c9-6 12-14 13-21 1-12-3-26-13-38v59z m-408-60c-10 12-16 27-14 39 1 7 4 15 14 21 0-26 0-53 0-60z m45 0v97c4 1 60 9 100 52l-9-51 69 51-10-51 79 51c0 0 51-34 87-47v-102c0-93-69-170-158-170-89 0-158 77-158 170z m217-375l-21 83h0l33 61h-129l34-61h0l-22-84-68 146c7 7 12 17 16 28 2 4 3 9 4 13 28-16 61-25 94-25 1 0 3-1 4 0 33 0 66 9 95 25 0-4 1-9 3-13 5-14 12-25 22-33l-65-140z" horiz-adv-x="1000" />

<glyph glyph-name="i-ico11" unicode="&#xe80b;" d="M186 758c3-6 7-10 12-14 4-4 11-11 21-21 9-10 19-20 28-30 11-12 23-24 36-38h256c13 14 25 26 36 38 10 10 19 20 29 30 9 10 16 17 20 21 4 4 8 8 12 14 3 5 5 11 6 17s1 12 0 18c-1 6-4 11-8 16-5 5-10 8-14 7-4-1-8-2-13-4-5-3-11-5-17-8-7-3-15-4-25-4-10 0-18 2-23 7-5 6-10 11-15 17-4 6-10 12-15 17-6 5-14 7-23 7-10 0-18-2-24-7-6-5-11-11-16-17-5-6-11-11-16-16-6-5-13-7-21-7-10 0-18 2-24 7-6 5-12 10-16 16-5 6-10 12-15 17-5 5-13 7-23 7-9 0-17-2-23-7-5-5-11-11-16-17-4-6-9-11-15-17-5-5-13-7-22-7-10 0-18 1-25 4-7 3-13 5-18 8-5 2-9 3-13 4-4 1-8-2-14-7-4-5-7-10-9-16-1-6-1-12 0-18 2-6 4-12 7-17z m383-511c-1 3-2 11-4 26-7 57 5 106 5 106 13 75 112 103 146 111-12 14-23 27-35 39-34 34-73 63-116 88h-309c-43-25-82-54-117-88-14-15-29-31-42-49-14-18-26-38-37-60-11-22-20-45-27-71-6-25-10-52-10-81 0-48 8-92 23-130 14-38 38-70 69-97 32-27 72-47 121-61 27-8 57-14 90-17v107c-2 43 8 60 8 60 42 118 227 117 235 117z m-20-51c-102 0-186-46-186-102 0-55 84-101 186-101 103 0 186 46 186 101 0 56-83 102-186 102z m238-186c-6 0-12 0-18 1 0-2 0-4 0-6 1-3 2-7 2-11v-24c5 0 11 0 16 0 103 0 186 45 186 101v40c0-56-83-101-186-101z m-238-47c-102 0-185 45-186 101 0-21 0-40 0-40 0-56 84-101 186-101 103 0 186 45 186 101v40c0-55-83-101-186-101z m0-70c-102 0-185 45-186 100 0-21 0-39 0-39 0-56 84-102 186-102 103 0 186 46 186 102v40c0-56-83-101-186-101z m238 328c-102 0-185 45-186 101 0-21 0-40 0-40 0-24 16-46 41-63 26-7 48-17 68-29 23-6 49-9 77-9 103 0 186 45 186 101v40c0-55-83-101-186-101z m-186 132c0-56 83-102 186-102 103 0 186 46 186 102 0 55-83 101-186 101-103 0-186-46-186-101z m186-202c-12 0-25 1-36 2 9-13 15-27 18-42 6 0 12 0 18 0 103 0 186 45 186 101v40c0-56-83-101-186-101z m0-70c-6 0-12 0-18 0 0-2 0-4 0-5 1-4 2-8 2-12v-23c5-1 11-1 16-1 103 0 186 45 186 101v41c0-56-83-101-186-101z" horiz-adv-x="1000" />

<glyph glyph-name="i-ico12" unicode="&#xe80c;" d="M4 348c0-275 223-498 498-498 275 0 498 223 498 498 0 275-223 498-498 498-275 0-498-223-498-498l0 0z m436 311c0 52 42 93 93 93 52 0 94-41 94-93 0-52-42-93-94-93-51 0-93 41-93 93l0 0z m-93-622v31l79 342h-48v62h62 93 63l-87-373c-7-28 5-62 24-62l63 93h62l-125-187h-62-31c-52 0-93 42-93 94l0 0z m0 0" horiz-adv-x="1000" />

<glyph glyph-name="i-ico13" unicode="&#xe80d;" d="M236-13c31 28 137 139 220 225 83 85 144 130 111 168-85 98-306 313-331 338-25 25-25 85 0 112 27 30 84 27 110 0 31-32 258-263 386-393 105-108 9-161-55-226-120-122-298-305-331-337-26-24-82-30-110 0-26 28-26 89 0 113z" horiz-adv-x="1000" />

<glyph glyph-name="i-ico14" unicode="&#xe80e;" d="M911 830h-42v0h-749v0h-40c-86 0-80-81-80-81s-4-79 80-79h20v-801l111 111 90-74v-17l10 8 10-8v17l90 75 90-75v-17l10 8 10-8v17l80 66 80-66v-17l10 8 10-8v17l89 74 111-111v801h10c88 0 84 79 84 79s6 81-84 81z m-811-121c-23-1-60 5-60 38 0 39 37 45 60 45v-83z m761-740l-60 60v20l-11-9-9 9v-17l-90-75-70 59v33l-20-17-20 17v-33l-70-59-90 75v17l-10-8-10 8v-17l-90-75-91 75v17l-9-9-11 9v-20l-60-60v821h721v-821z m40 740v82c24-1 52-10 52-44 0-29-28-37-52-38z m-260-99h-421v-40h421v40z m-140-140h-281v-40h281v40z m160-141h-441v-40h441v40z m-40-140h-401v-40h401v40z" horiz-adv-x="1000" />

<glyph glyph-name="i-ico15" unicode="&#xe80f;" d="M525 226h-29l-96 126h-66l127-168h-65v-42h83v-83h-83v-41h83v-84h62v84h84v41h-84v83h84v42h-65l127 168h-66l-96-126z m348-8c-49 129-184 269-213 296l0 0c0 1 0 1-1 1-3 3-7 7-11 10-3 3-6 6-9 9 9-8 20-12 33-12 19 0 36 11 45 27 29-5 106-22 116-64 3-9 12-16 21-16 2 0 4 0 6 1 11 2 18 14 16 26-13 52-71 76-116 88 21 19 40 43 42 61 2 11-6 21-18 23-11 2-22-6-25-18-2-11-30-38-46-50-9 13-24 22-41 22-16 0-29-7-38-17 5 7 11 13 14 15 2 2 5 5 10 9 56 43 109 79 119 112 3 9 6 15 7 19 2 6 8 24-8 32-3 3-9 7-18 7-8 0-15-2-25-5-15-5-37-11-51-6-12 5-23 13-35 22-23 15-48 33-83 35-28 2-51-7-73-16-19-8-37-16-62-16h0c-24 1-50 4-73 7-22 3-41 6-56 6-6 0-11-1-15-2-2 2-6 6-10 13-4 5-9 13-20 13-7 0-13-3-16-8-7-8-7-10 4-48l2-6c0-1 1-3 1-6 4-22 13-64 38-90 3-4 7-8 11-13 19-23 43-52 55-84-6-1-12-2-18-3-11-3-18-13-15-24 2-10 13-17 24-15 5 2 11 2 16 4 0-11-3-21-8-31-3-5-6-8-9-11-101-84-173-190-214-297-40-106-43-149-43-185 1-48 3-177 236-180 207-3 233-2 362-1 232 3 234 132 235 181 1 36-2 79-43 185z m-547 477c-4 5-8 9-12 15-16 17-24 56-28 75 2 0 4 0 5 0 2 1 4 1 9 1 13 0 31-2 51-5 24-3 51-7 77-7l3 0c31 0 55 10 76 19 19 8 35 14 54 13 24-2 43-15 62-28 14-10 27-19 43-26 23-9 53-4 74 2 0 0-1-1-1-1-5-17-41-43-105-93-6-5-10-8-12-10-7-5-23-18-33-41-59 9-127 8-199-3-14 40-43 64-64 89z m304-151c-4 4-6 8-7 14 0 0 0 0 0 0 2-5 4-10 7-14z m246-510c-1-49-2-137-195-139-113-1-128-2-362 1-193 3-195 89-195 138-1 32 2 71 40 170 38 101 106 201 202 281 6 5 12 12 17 20 1 0 1 1 2 2 9 19 13 38 12 57 67 9 131 10 185 2 0-1 0-3 0-4 2-30 14-42 27-55 3-3 7-6 10-10 1 0 2-1 2-2 4-3 8-6 11-9 16-15 157-157 204-282 38-99 40-138 40-170z" horiz-adv-x="1000" />

<glyph glyph-name="i-ico16" unicode="&#xe810;" d="M989 368l-47 27c-9 100-52 197-128 273-74 74-170 119-273 128l-27 47c-6 11-24 11-31 0l-26-47c-103-9-199-54-273-128-76-76-119-173-128-273l-47-27c-6-3-9-9-9-15 0-7 3-13 9-16l47-27c9-100 52-197 128-273 74-74 170-118 273-128l27-47c3-5 9-9 15-9 6 0 12 4 15 9l27 47c103 10 199 54 273 128 76 77 119 174 128 273l47 27c5 3 9 9 9 16 0 6-4 12-9 15l0 0z m-202-304c-77-77-179-120-288-120-109 0-212 43-289 120-159 159-159 418 0 577 77 78 180 120 289 120 109 0 211-43 288-120 160-159 160-418 0-577l0 0z m-31 555c-1 0-2 0-3-1l0 0-324-194-196-326c-1-3 0-7 2-9 2-2 4-3 6-3 1 0 2 0 3 1l326 196 195 324c1 3 0 7-2 9-2 2-5 3-7 3l0 0z m-300-222l0 0 88-87-220-132 132 219 0 0z m0 0" horiz-adv-x="1000" />

<glyph glyph-name="i-ico17" unicode="&#xe811;" d="M497 850c-274 0-497-222-497-497 0-274 223-497 497-497 274 0 497 223 497 497 0 275-223 497-497 497z m0-41c251 0 456-205 456-456 0-110-40-212-106-291-45 19-152 56-219 76-5 2-6 2-6 26 0 19 8 39 15 55 9 18 19 49 23 76 10 11 23 34 32 78 8 39 4 53-1 66 0 2-1 3-1 5-2 9 0 56 7 92 5 26-1 79-36 123-22 28-63 62-140 67l-42 0c-75-5-116-39-138-67-35-44-41-97-36-123 7-36 9-83 7-92 0-2-1-3-1-5-5-13-9-27-1-66 9-44 22-67 33-78 3-27 13-58 22-76 6-13 9-31 9-56 0-24-1-24-6-26-69-20-178-59-219-77-67 79-108 181-108 293 0 251 205 456 456 456z m-318-782c47 19 140 53 201 71 35 11 35 41 35 65 0 20-1 49-13 74-8 17-17 46-19 69 0 5-3 10-7 14-6 5-18 24-25 62-6 30-4 36-1 42 1 3 2 6 2 9 5 18 0 78-6 111-3 14 1 55 27 90 25 30 61 48 108 51l39 0c48-3 84-20 109-51 27-35 30-76 27-90-6-33-11-93-6-111 1-3 1-6 3-9 2-6 5-12-1-42-8-38-20-57-26-62-4-4-6-9-7-14-2-23-11-52-19-69-9-20-20-46-20-73 0-24 0-54 36-66 59-17 152-49 201-68-82-82-195-133-320-133-124 0-236 50-318 130z" horiz-adv-x="1000" />

<glyph glyph-name="i-ico18" unicode="&#xe812;" d="M918 830h-837c-87 0-81-82-81-82s-4-79 81-79h20v-807l101 101h24l77-64v-17l10 9 10-9v17l76 64h29l76-64v-17l10 9 10-9v17l77 64h8l77-64v-17l10 9 10-9v17l77 64h24l101-101v807h10c88 0 84 79 84 79s6 82-84 82z m-817-122c-24 0-61 5-61 39 0 39 37 45 61 44v-83z m121-100h423v-40h-423v40z m0-141h282v-40h-282v40z m403-323h-403v41h403v-41z m41 142h-444v40h444v-40z m242 422v83c23-1 52-10 52-44 0-29-29-37-52-39z" horiz-adv-x="1000" />

<glyph glyph-name="i-ico19" unicode="&#xe813;" d="M860 471c-1 0-3-1-5-1-10 0-19 7-21 17-10 41-87 58-116 63-8-16-25-27-45-27-12 0-23 4-32 12 3-3 5-6 8-9 4-3 8-6 11-9 1-1 1-1 2-1l0 0c4-5 11-12 20-21 12-5 21-15 25-27 53-58 132-156 167-248 40-105 43-149 42-184 0-49-2-178-233-180-129-2-155-3-362 1-231 3-233 131-234 179-1 35 2 79 42 184 41 107 113 212 214 297 3 2 6 5 9 10 5 10 7 20 7 31-5-2-10-2-16-4-11-2-21 5-24 15-2 11 5 21 15 24 6 1 12 2 18 3-12 31-36 61-55 83-4 5-7 10-11 14-24 26-33 68-37 89-1 3-1 5-1 7l-2 5c-11 38-11 40-5 48 4 5 10 8 16 8 12 0 17-8 20-13 5-7 8-11 11-13 3 1 9 2 15 2 15 0 34-3 55-6 23-3 49-6 73-7 0 0 0 0 0 0 25 0 43 8 62 16 22 9 45 18 73 16 35-2 60-20 82-35 12-9 23-16 35-21 14-6 36 0 51 5 10 3 17 6 25 6 9 0 15-5 18-8 16-8 10-26 8-32-1-4-4-10-7-19-10-33-63-69-118-111-5-4-9-7-11-9-3-2-9-8-14-16 9 11 23 18 38 18 17 0 32-9 42-22 16 11 43 39 45 50 3 11 14 19 25 17 12-2 20-11 18-23-2-17-21-41-42-61 44-11 103-35 115-87 3-12-4-23-16-26z m-47-549c2 1 3 2 5 3-3 3-5 7-5 12v-15z m-83-21v1c0-1-1-1-1-1 0 0 1 0 1 0z m-563 36c2-1 3-2 4-3 0 1 0 2 1 3h-5z m464-39c0 0-1 1-1 2-2-1-3-2-5-2 2 0 4 0 6 0z m-24 0c-2 0-4 1-5 2-1-1-1-2-2-3 2 1 5 1 7 1z m19 693c0 6-5 10-10 10h-42-166-20c-6 0-11-4-11-10v-21c0-6 5-10 11-10h11c0 0 0 0 0 0 6 0 13 0 20 0h145c7 0 14 0 20-1 0 1 0 1 0 1h32c5 0 10 4 10 10v21z m-1-32c0 0-1 0-1 0 1-6 3-10 7-14-3 4-5 9-6 14z m-2-205l-100-131h-22l-99 131h-66l124-168h-62v-41h83v-83h-83v-42h83v-83h62v83h83v42h-83v83h83v41h-62l125 168h-66z" horiz-adv-x="1000" />

<glyph glyph-name="i-ico20" unicode="&#xe814;" d="M986 337l-47-26c-9-100-52-197-127-272-74-74-170-119-272-129l-27-46c-3-6-9-9-15-9s-13 3-16 9l-27 46c-102 10-198 55-272 129-75 75-118 172-127 271l-47 27c-6 4-9 10-9 16s3 12 9 15l47 27c9 100 52 196 127 272 74 74 170 119 272 128l27 47c6 11 25 11 31 0l27-47c102-9 198-54 272-128 75-76 118-172 127-272l47-27c6-3 9-9 9-15s-3-12-9-16z m-226 279c-1 2-4 3-6 3-1 0-2-1-3-1l0 0-323-194-195-325c-1-3-1-7 2-9 1-2 4-3 6-3 0 0 1 0 2 1l326 195 193 323c2 3 1 7-2 10z m-305-219l0 0 87-87-219-131 132 218z" horiz-adv-x="1000" />

<glyph glyph-name="i-ico21" unicode="&#xe815;" d="M502 850c-275 0-498-223-498-498 0-275 223-498 498-498 275 0 498 223 498 498 0 275-223 498-498 498z m5-957c-169 0-289 103-291 105 28 16 140 38 166 55 29 18 20 118 20 118l-20 17c0 0-4 46-13 62-17 27-40 99-40 99s-20 14-20 40c0 25 20 39 20 39s-15 70-15 119c0 110 84 158 199 158 115 0 179-56 179-158 0-49-7-119-7-119s20-14 20-39c0-26-20-40-20-40s-20-62-40-99c-8-16-13-62-13-62l-20-17c0 0-9-100 20-118 26-17 136-38 165-54 0-2-121-106-290-106z" horiz-adv-x="1000" />

<glyph glyph-name="i-ico22" unicode="&#xe816;" d="M747-125c-11 0-21 5-27 15-9 15-5 34 10 44 131 82 209 224 209 380 0 246-197 446-438 446-242 0-438-200-438-446 0-155 77-296 205-378 15-10 19-29 10-44-9-15-28-20-43-10-147 94-235 255-235 432 0 281 225 509 501 509 276 0 500-228 500-509 0-179-89-341-238-435-5-3-11-4-16-4l0 0z m213 406h-57c-17 0-31 15-31 32 0 18 14 32 31 32h57c18 0 32-14 32-32 0-17-14-32-32-32l0 0z m-861 1h-58c-17 0-31 15-31 32 0 18 14 32 31 32h58c17 0 31-14 31-32 0-17-14-32-31-32l0 0z m401 405c-17 0-31 14-31 32v58c0 17 14 32 31 32 17 0 31-15 31-32v-58c0-18-14-32-31-32l0 0z m-198-50c-11 0-22 5-28 16l-28 50c-9 15-4 35 11 44 15 9 34 3 43-12l29-50c8-16 3-35-12-44-5-3-10-4-15-4l0 0z m597-587c-6 0-11 1-16 4l-49 29c-15 9-21 29-12 44 9 15 28 21 43 12l49-29c15-9 21-29 12-44-6-10-16-16-27-16l0 0z m-744 437c-6 0-11 2-16 5l-50 29c-14 9-20 28-11 43 9 16 28 21 43 12l49-29c15-9 21-28 12-44-6-10-16-16-27-16l0 0z m-50-437c-11 0-21 6-27 16-9 15-3 35 12 44l49 29c15 9 34 3 43-12 9-15 3-35-12-44l-49-29c-5-3-10-4-16-4l0 0z m744 437c-11 0-21 6-27 16-9 16-3 35 12 44l49 29c15 9 34 4 43-12 9-15 3-34-12-43l-49-29c-5-3-10-5-16-5l0 0z m-147 150c-5 0-10 1-15 4-15 9-20 28-12 44l29 50c9 15 28 21 43 12 15-9 20-29 11-44l-28-50c-6-11-17-16-28-16l0 0z m-265-324c0-35 28-63 63-63 34 0 62 28 62 63 0 35-28 64-62 64-35 0-63-29-63-64l0 0z m306 144c9-16 4-35-11-44l-217-127c-15-9-34-4-43 11-9 15-3 35 11 44l218 127c15 9 34 4 42-11l0 0z m0 0" horiz-adv-x="1000" />

<glyph glyph-name="i-ico23" unicode="&#xe817;" d="M924 152l32 42c1 3 2 5 1 8-1 2-4 4-6 4l-175 11c-2 1-5 0-6-2-1-2-2-5-1-7l55-169c1-3 3-5 6-5 2 0 5 1 6 3l35 45c18-14 32-27 44-38 54-54 42-103 42-106-1-2 0-5 2-7 1 0 1-1 1-1 3-1 7 0 9 2 70 93-23 197-45 220z m-449-219c-219 0-411 194-411 418s192 419 411 419 412-195 412-419c0-5 0-10-1-15 0-25-5-50-11-74l58-44c11 42 18 87 18 133 0 267-213 484-476 484-262 0-475-217-475-484s213-485 475-485c130 0 248 54 334 140 4 4 8 8 11 12l-54 42c-72-71-183-127-291-127z m90 625l-55-88c-19-38-31-63-36-75h-1c-13 30-36 50-97 163h-80l107-166h-80v-55h107v-83h-107v-55h107v-83h81v83h107v55h-107v83h107v55h-80l107 166h-80z" horiz-adv-x="1000" />

<glyph glyph-name="i-ico24" unicode="&#xe818;" d="M394 368h-231v-46h207c6 16 14 32 24 46l0 0z m-231-138v-45h185c-1 7-1 15-1 22s0 16 1 23h-185l0 0z m247-206h-316c-25 0-46 20-46 46v688c0 26 21 46 46 46h413v-206c0-51 41-92 92-92h184v-34c16-8 31-18 46-29v86l-8 8 1 8-283 305h-65-23-12-345c-50 0-92-41-92-92v-688c0-51 42-92 92-92h360c-16 14-31 29-44 46l0 0z m143 742l201-214h-155c-25 0-46 20-46 46v168h0z m-390-306h230v46h-230v-46l0 0z m828-566l-119 120c-10-12-21-23-33-33l120-120c8-8 23-8 32 0 9 9 9 24 0 33l0 0z m-346 566c-139 0-252-113-252-253 0-139 113-252 252-252 139 0 253 113 253 252 0 140-114 253-253 253l0 0z m0-459c-114 0-206 92-206 206s92 207 206 207 207-92 207-207c0-114-93-206-207-206l0 0z m-252 643h-230v-46h230v46l0 0z m91-437c0-7 1-15 2-22h182v45h-182c-1-7-2-15-2-23l0 0z m49 115h135v44c-7 1-15 2-23 2-44 0-83-17-112-46l0 0z m0 0" horiz-adv-x="1000" />

<glyph glyph-name="i-ico25" unicode="&#xe819;" d="M485 27l-352 364 90 73 203-162c84 101 269 301 524 459l22-50c-235-219-427-527-487-684l0 0 0 0z m441 428c8-34 12-68 12-104 0-243-197-441-440-441-244 0-441 198-441 441 0 243 197 440 441 440 60 0 118-12 170-34v61c-53 20-111 30-170 30-275 0-498-222-498-497s223-498 498-498 497 223 497 498c0 35-4 70-11 104h-58l0 0z m0 0" horiz-adv-x="1000" />

<glyph glyph-name="i-ico26" unicode="&#xe81a;" d="M304 37c-167 0-303 75-304 167 0-35 0-66 0-66 0-93 136-168 304-168 168 0 304 75 304 168v67c0-93-136-168-304-168l0 0z m0-117c-167 0-303 75-304 167 0-35 0-66 0-66 0-92 136-167 304-167 168 0 304 75 304 167v67c0-93-136-168-304-168l0 0z m389 195c-10 0-20 0-29 1-1-3-1-6-1-9 2-6 3-12 3-19v-39c9-1 18-1 27-1 167 0 303 75 303 168v67c0-93-136-168-303-168l0 0z m0 117c-10 0-20 0-29 0-1-2-1-6-1-8 2-6 3-13 3-19v-39c9-1 18-1 27-1 167 0 303 75 303 167v67c0-92-136-167-303-167l0 0z m0 233c-168 0-303 75-304 167 0-35 0-66 0-66 0-40 25-76 66-105 42-11 80-27 111-48 39-9 81-15 127-15 167 0 303 75 303 168v67c0-93-136-168-303-168l0 0z m0-117c-21 0-41 1-60 4 15-22 26-45 30-70 10 0 20-1 30-1 167 0 303 75 303 168v67c0-93-136-168-303-168l0 0z m0 502c-168 0-304-75-304-168s136-167 304-167c167 0 303 75 303 167s-136 168-303 168l0 0z m-389-428c-168 0-304-75-304-167 0-93 136-168 304-168 168 0 304 75 304 168 0 92-136 167-304 167l0 0z m0 0" horiz-adv-x="1000" />

<glyph glyph-name="i-ico27" unicode="&#xe81b;" d="M699 850h-406c-162 0-293-131-293-293v-406c0-162 131-293 293-293h406c162 0 293 131 293 293v406c0 162-131 293-293 293l0 0z m213-665c0-148-97-247-247-247h-338c-150 0-247 101-247 247v338c0 152 89 247 247 247h338c158 0 247-101 247-247v-338l0 0z m-768 306v-92l285-164 1 0c13-7 31-10 50-10 16 0 40 3 56 13h0l1 0c0 0 1 1 2 1l309 177v91l-367-210-337 194 0 0z m0 0" horiz-adv-x="1000" />

<glyph glyph-name="i-ico28" unicode="&#xe81c;" d="M894-6c0 79-63 143-140 143-34 0-65-13-90-34l-277 180c11 21 17 43 17 68 0 22-5 43-14 62l278 183c24-19 53-31 86-31 77 0 140 64 140 142 0 79-63 143-140 143-77 0-140-64-140-143 0-19 4-38 11-54l-279-184 3-5c-24 18-53 29-85 29-77 0-140-63-140-142 0-79 63-143 140-143 27 0 53 8 74 22l285-186c-5-15-9-32-9-50 0-79 63-142 140-142 77 0 140 63 140 142l0 0 0 0z m-179 654l-28 45-1 0c-1 4-2 9-2 14 0 40 31 72 70 72 39 0 70-32 70-72 0-39-31-71-70-71-14 0-28 5-39 12l0 0h0z m-521-297c0 39 32 71 70 71 39 0 70-32 70-71 0-40-31-71-70-71-38 0-70 31-70 71l0 0 0 0z m490-357c0 40 31 72 70 72 39 0 70-32 70-72 0-39-31-71-70-71-39 0-70 32-70 71l0 0 0 0z m0 0" horiz-adv-x="1000" />

<glyph glyph-name="i-ico29" unicode="&#xe81d;" d="M714-147h31c0 0-1 0-1 0h-15l-15 0z m155 807h-62v62c0 73-72 125-145 125h-530c-73 0-132-60-132-133v-728c0-73 59-133 132-133h530c24 0 61 2 82 0h117c73 0 132 60 132 133v530c0 73-51 144-124 144z m-124-620c0-64-61-125-124-125h-466c-63 0-93 61-93 125v620c0 64 61 124 124 124h435c63 0 124-60 124-124v-620z m186-32c0-63-60-93-124-93h-31c11 20 31 38 31 62v621h31c64 0 93-30 93-93v-497z m-341 590h-372c-18 0-32-14-32-31 0-17 14-31 32-31h372c17 0 31 14 31 31 0 17-14 31-31 31z m0-217h-372c-18 0-32-14-32-31 0-17 14-31 32-31h372c17 0 31 14 31 31 0 17-14 31-31 31z m0-217h-372c-18 0-32-14-32-31s14-31 32-31h372c17 0 31 13 31 31s-14 31-31 31z" horiz-adv-x="1000" />

<glyph glyph-name="i-ico30" unicode="&#xe81e;" d="M496 850c-274 0-496-222-496-496 0-274 222-496 496-496 274 0 496 222 496 496 0 274-222 496-496 496z m14-935c-246 0-453 178-453 425 0 246 178 453 425 453 246 0 453-207 453-453 0-247-178-425-425-425z m227 623h-482c-16 0-28-13-28-28 0-16 12-29 28-29h482c15 0 28 13 28 29 0 15-13 28-28 28z m0-170h-482c-16 0-28-13-28-28 0-16 12-29 28-29h482c15 0 28 13 28 29 0 15-13 28-28 28z m0-170h-482c-16 0-28-13-28-28 0-16 12-29 28-29h482c15 0 28 13 28 29 0 15-13 28-28 28z" horiz-adv-x="1000" />

<glyph glyph-name="i-ico31" unicode="&#xe81f;" d="M502 850c-277 0-502-225-502-502 0-277 225-501 502-501 277 0 501 224 501 501 0 277-224 502-501 502z m0-944c-225 0-443 217-443 442 0 225 218 443 443 443 225 0 442-218 442-443 0-225-217-442-442-442z m0 657c23 0 43 20 43 43 0 24-20 43-43 43-24 0-43-19-43-43 0-23 19-43 43-43z m0-57c-24 0-43-19-43-43v-373c0-23 19-43 43-43 24 0 43 20 43 43v373c0 24-19 43-43 43z" horiz-adv-x="1000" />

<glyph glyph-name="i-ico32" unicode="&#xe820;" d="M502 574c64 0 134 11 255 85 77 47 159 109 205 149-21 28-49 42-92 42h-750c-35 0-70-14-92-42 36-29 78-64 142-106 127-100 205-128 332-128m488 163c-42-35-120-99-219-156-85-49-184-70-276-70-106 0-198 14-325 99-78 56-149 113-170 127v-7-757c0-64 50-113 120-113h757c64 0 120 49 120 120l-7 757z m-631-613v-39h-146v97c1 25 15 38 42 39h59v33c-2 16-12 24-30 25h-71v41h101c29-1 44-15 45-41v-61c-2-23-15-36-40-37h-61v-57h101z m195 143v-127c-1-36-20-54-56-55h-45c-36 2-54 19-56 51v128c2 36 21 54 57 56h44c35-2 53-20 56-53m-46-123v116c0 12-7 18-20 19h-26c-12-1-19-7-19-19v-117c0-12 7-18 19-19h25c13 1 21 7 21 20m289 75v-34h-40v-79c0-4 2-6 6-6h34v-29h-55c-14 0-22 7-24 22v71c0 14-8 21-24 21h-32l-29-114h-42l31 114h-42v34h217z m-207 67h197v-33h-197v33z" horiz-adv-x="1000" />

<glyph glyph-name="i-ico33" unicode="&#xe821;" d="M505 573c64 0 134 11 256 85 77 48 159 110 206 149-22 29-50 43-93 43h-753c-36 0-71-14-93-43 36-28 79-64 143-106 128-100 206-128 334-128m490 163c-43-35-121-99-220-156-86-50-185-71-277-71-107 0-199 14-327 99-79 57-150 114-171 128v-7-760c0-64 50-114 121-114h760c64 0 121 50 121 121l-7 760z m-635-419v-41h-101v-49h54c29 0 45-14 47-42v-61c-1-27-18-41-49-42h-97v38h100v40c-2 16-13 25-32 26h-68v131h146z m196-53v-128c0-35-19-53-55-54h-46c-36 1-54 18-56 51v129c2 35 21 54 57 55h45c34-2 53-20 55-53m-45-123v116c-1 12-8 19-21 19h-26c-12 0-18-7-19-19v-117c1-12 7-19 19-20h25c14 1 21 8 22 21m289 74v-33h-39v-80c-1-4 1-5 6-5h33v-30h-54c-15 0-23 7-25 22v72c0 14-8 21-23 21h-33l-29-114h-42l31 114h-43v33h218z m-207 68h198v-33h-198v33z" horiz-adv-x="1000" />

<glyph glyph-name="i-ico34" unicode="&#xe822;" d="M505 573c64 0 134 11 256 85 77 48 159 110 206 149-22 29-50 43-93 43h-753c-36 0-71-14-93-43 36-28 79-64 143-106 128-100 206-128 334-128m-118-303h-24c-11-1-17-7-18-18v-107c1-12 7-17 18-18h23c13 1 19 7 20 19v106c-1 11-7 17-19 18z m175 0h-24c-11-1-17-7-17-18v-107c0-12 6-17 17-18h23c13 1 20 7 20 19v106c0 11-7 17-19 18z m433 466c-43-35-121-99-220-156-86-50-185-71-277-71-107 0-199 14-327 99-79 57-150 114-171 128v-7-760c0-64 50-114 121-114h760c64 0 121 50 121 121l-7 760z m-334-460h168v-29h-168v29z m-439-185h-42v216h42v-216z m226 50c-1-32-18-49-51-50h-42c-33 2-50 17-51 47v118c1 33 19 50 52 51h41c32-2 49-18 51-49v-117z m175 0c-1-32-18-49-51-50h-42c-33 2-50 17-51 47v118c1 33 19 50 52 51h41c32-2 49-18 51-49v-117z m215 48h-34v-68c-1-3 1-5 5-5h29v-25h-47c-13 0-20 6-21 19v61c0 12-7 18-20 18h-28l-25-98h-36l26 98h-36v29h187v-29z" horiz-adv-x="1000" />

<glyph glyph-name="i-ico35" unicode="&#xe823;" d="M498 849l-498-498 498-498 497 498-497 498z m98-721c-70 18-140 55-197 111-55 56-92 126-110 196-17 69 11 133 46 143 9 2 45 7 100-91 16-28 4-27-31-84-17-26 10-62 10-62s18-29 39-49c20-21 49-39 49-39s36-26 62-10c57 35 56 47 84 31 97-54 93-91 91-100-10-35-74-63-143-46" horiz-adv-x="1000" />

<glyph glyph-name="i-ico36" unicode="&#xe824;" d="M499 850l-499-499 499-499 499 499-499 499z m-76-309v0c13 37 35 71 66 99l0 0c0 0 1 1 1 1 26 24 67 22 91-5 24-26 22-67-4-91-5-4-10-7-15-10 0 0-8-3-12-5-12-5-23-12-33-20-7-4-14-10-20-16-30-27-47-61-54-98 7 11 16 20 26 27-12-16-19-36-18-57 0-7 2-15 4-21 0-1 2-6 3-8 1-2 3-5 3-6 5-9 13-17 22-22 8-5 17-7 25-7 0 0 0 0 0 0-1 0-5-1-11-1-6 0-11 1-11 1-20 4-38 1-55-7l-8 11c13 6 29 5 43 3-2 0-4 1-6 2-9 6-21 17-32 38 0 0 0 0 0 1 0 0-1 1-1 1 0 0 0 1 0 1-8 17-39 96-4 189m177-228c-12 9-19 22-25 37 1-3 1-6 1-8 0-10-4-27-17-47 0 0 0 0 0-1 0 0 0 0-1-1 0 0 0-1-1-1-11-15-64-81-161-97-39-7-79-5-119 8v0c-1 0-1 0-1 0-34 11-53 47-42 81 11 34 48 53 82 42 5-2 11-5 16-8 0 0 4-3 6-5 12-9 24-16 37-21 8-4 16-7 25-10 37-12 76-10 111 3-13 0-25 3-36 9 20-3 41 1 59 13 6 4 11 8 15 13 1 1 4 5 6 7 1 2 3 5 4 6 5 8 8 19 8 30-1 9-3 18-7 25l0 0 0 0c0 0 3-4 6-9 4-6 6-10 6-10 7-19 18-33 34-44l-6-12z m116-154c-35-7-69 15-77 50-1 6-2 12-1 18 0 0 0 3 0 3 3 16 3 32 1 48-1 8-2 17-4 26-9 38-30 71-58 95 7-12 10-24 10-36-7 19-21 35-40 44-7 4-13 6-20 7-2 1-6 1-9 2-2 0-5 0-6 0-11 0-21-2-31-8-7-5-14-11-18-18 0 1 1 2 2 3-1-1-1-1-1-1s2 4 5 9c3 6 7 10 7 10 13 14 21 31 23 50l13 0c-1-13-9-25-18-35 0 0 1 0 1 1 9 4 25 10 49 9 0 0 0 0 1 0 0-1 1-1 1-1 1 0 1 0 1 0 19-2 103-15 165-91 26-29 44-66 53-107h0c0 0 1-1 1-1 7-35-15-69-50-77" horiz-adv-x="1000" />

<glyph glyph-name="i-ico37" unicode="&#xe825;" d="M497 850c-274 0-497-223-497-497 0-274 223-497 497-497s497 223 497 497c0 274-223 497-497 497m-38-459l76-76-235-159 159 235z m-325-291l15 10c-4 4-7 9-10 14l-15-9c-12 19-23 39-32 61l48 20c-2 5-4 11-6 16l-49-20c-8 21-15 43-20 66l17 3c-1 6-2 12-3 18l-17-4c-4 23-7 46-7 69h53c-1 3-1 6-1 9 0 3 0 6 1 9h-53c0 23 3 46 7 69l17-4c1 6 2 12 3 18l-17 3c5 23 12 45 20 66l49-20c2 5 4 11 6 16l-48 21c9 21 20 41 32 60l15-9c3 5 6 10 10 15l-15 9c13 19 28 37 44 53l37-37c4 4 9 9 13 13l-37 37c16 16 34 31 53 44l10-14c4 3 9 6 14 9l-9 15c19 12 39 23 61 32l20-48c5 2 11 4 16 6l-20 49c21 8 43 15 66 20l3-17c6 2 12 3 18 4l-4 17c23 4 46 6 69 6v-52c3 0 6 0 9 0 3 0 6 0 9 0v52c23 0 46-2 69-6l-4-17c6-1 12-2 18-4l3 17c23-5 45-12 66-20l-20-49c6-2 11-4 16-6l21 48c21-9 41-20 60-32l-9-15c5-3 10-6 15-9l9 14c19-13 37-28 53-44l-13-13-357-242-242-357-13-13c-16 16-31 34-44 53m682-53l-37 37c-4-4-8-9-13-13l37-37c-16-16-34-31-53-44l-9 15c-5-4-10-7-15-10l9-15c-19-12-39-23-60-32l-21 48c-5-2-11-4-16-6l20-49c-21-8-43-15-66-20l-3 17c-6-2-12-3-18-4l4-17c-23-4-46-6-69-6v52c-3 0-6 0-9 0-3 0-6 0-9 0v-52c-23 0-46 2-69 6l4 17c-6 1-12 2-18 4l-3-17c-23 5-45 12-66 20l20 49c-5 2-11 4-16 6l-20-48c-22 9-42 20-61 32l9 15c-5 3-10 6-14 10l-10-15c-19 13-37 28-53 44l13 13 357 242 242 357 13 13c16-16 31-34 44-53l-14-9c3-5 6-10 9-15l15 9c12-19 23-39 32-60l-48-21c2-5 4-11 6-16l49 20c8-21 15-43 20-66l-17-3c2-6 3-12 4-18l17 4c4-23 6-46 6-69h-52c0-3 0-6 0-9 0-3 0-6 0-9h52c0-23-2-46-6-69l-17 4c-1-6-2-12-4-18l17-3c-5-23-12-45-20-66l-49 20c-2-5-4-11-6-16l48-20c-9-22-20-42-32-61l-15 9c-3-5-6-10-9-14l14-10c-13-19-28-37-44-53" horiz-adv-x="1000" />

<glyph glyph-name="i-ico38" unicode="&#xe826;" d="M727 655c-22 7-45 13-66 22-36 16-73 31-107 52-12 7-16 29-24 44 16 6 34 19 50 17 46-7 94-15 138-31 86-31 169-66 253-102 12-5 20-21 29-32-15-6-30-14-45-17-41-6-86-1-123-15-57-23-116-45-157-97-5-6-30-6-32-2-6 11-13 33-7 39 24 24 52 44 86 71-36-9-65-15-93-24-48-15-97-29-144-49-56-24-108-55-163-81-53-26-92-65-115-119-23-51-6-98 32-132 41-36 90-63 136-94 33-22 68-40 98-66 35-29 14-99-30-110-105-26-211-31-319-20-28 3-58-3-86 0-20 3-39 13-38 41 1 32 8 36 40 32 70-11 141-25 212-27 59-1 118 12 177 21 8 1 22 15 21 19-3 11-11 23-21 28-52 32-107 60-157 94-55 37-84 93-95 158-9 53 38 144 84 172 47 29 90 67 139 89 77 34 159 59 239 86 28 10 57 17 85 26 1 2 2 5 3 7m83 30c-37 23-205 65-218 55 44-39 168-70 218-55" horiz-adv-x="1000" />

<glyph glyph-name="i-ico39" unicode="&#xe827;" d="M846-150h-689c-58 0-105 47-105 105v601l0 0 316 283v1h1l0 0 0 0h477c59 0 106-47 106-105v-780c0-58-47-105-106-105l0 0z m-464 900l-210-180h150c29 0 60 1 60 30v150l0 0z m510-30c0 29-31 60-60 60h-390v-180c0-58-62-90-120-90h-210v-540c0-29 31-60 60-60h660c29 0 60 31 60 60v750l0 0z m-120-690h-510c-15 0-30 16-30 30s15 30 30 30h510c14 0 30-16 30-30s-20-31-35-31l5 1z m0 180h-510c-15 0-30 16-30 30 0 14 15 30 30 30h510c14 0 30-16 30-30 0-14-16-30-30-30l0 0z m0 180h-510c-15 0-30 16-30 30 0 14 15 30 30 30h510c14 0 30-16 30-30 0-14-16-30-30-30l0 0z m0 210h-270c-15 0-30 16-30 30s14 30 28 30h267c15 0 35-16 35-30s-16-30-30-30l0 0z m0 0" horiz-adv-x="1000" />

<glyph glyph-name="i-ico40" unicode="&#xe828;" d="M502 574c64 0 134 11 255 85 77 47 159 109 205 149-21 28-49 42-92 42h-750c-35 0-70-14-92-42 36-29 78-64 142-106 127-100 205-128 332-128m488 163c-42-35-120-99-219-156-85-49-184-70-276-70-106 0-198 14-325 99-78 56-149 113-170 127v-7-757c0-64 50-113 120-113h757c64 0 120 49 120 120l-7 757z m-436-470v-127c-1-36-20-54-56-55h-45c-36 2-54 19-56 51v128c2 36 21 54 57 56h44c35-2 53-20 56-53m-46-123v116c0 12-7 18-20 19h-26c-12-1-19-7-19-19v-117c0-12 7-18 19-19h25c13 1 21 7 21 20m289 75v-34h-40v-79c0-4 2-6 6-6h34v-29h-55c-14 0-22 7-24 22v71c0 14-8 21-24 21h-32l-29-114h-42l31 114h-42v34l217 0 0 0z m-207 67h197v-33h-197v33z m-307 28h59v-229h-39v188h-43l23 41z" horiz-adv-x="1000" />

<glyph glyph-name="i-ico41" unicode="&#xe829;" d="M981 304c-6-67-25-130-56-190-31-59-72-110-123-152-49-40-104-70-164-89-61-18-123-25-185-19-65 7-127 26-184 58-58 31-108 74-148 126-40 50-69 107-87 169-18 62-24 125-19 189 7 67 25 130 56 190 31 59 73 110 123 152 49 40 104 70 164 89 61 18 123 25 185 19 65-7 127-26 184-58 58-31 108-74 149-126 39-50 68-107 86-169 18-61 25-125 19-189z m-271 451c-217 120-489 36-606-187-117-224-35-503 182-623 218-120 490-36 607 187 116 224 35 503-183 623z m-86-470c-1-1-1-2-1-3-1-1-2-3-4-4 0-1 0-1-1-2l-265-240c-5-5-14-6-20-2-7 3-11 11-10 19l29 215c2 10 11 18 21 16s17-11 16-21l-23-165 208 189-103 56c0 0 0 0 0 0l-90 50c-5 3-9 8-9 15s1 12 6 16l265 240c5 5 14 6 21 2 6-3 10-11 9-19l-49-359c0-1 0-2 0-3z m-202 128l54-29 0 0 116-64 38 282-208-189z" horiz-adv-x="1000" />

<glyph glyph-name="i-ico42" unicode="&#xe82a;" d="M497 850c-275 0-497-222-497-497 0-274 222-496 497-496 274 0 496 222 496 496 0 275-222 497-496 497l0 0z m169-685l-18-18c-10-9-25-9-35 0l-161 161c-6 6-5 17-5 28v315c0 14 11 25 25 25h25c13 0 25-11 25-25v-307l144-144c9-10 9-26 0-35l0 0z m0 0" horiz-adv-x="1000" />

<glyph glyph-name="i-ico43" unicode="&#xe82b;" d="M495-140c-273 0-495 222-495 495 0 273 222 495 495 495 273 0 495-222 495-495 0-273-222-495-495-495l0 0 0 0z m198 388c0 11-9 20-20 20h-140v99h140c11 0 20 9 20 20v20c0 11-9 20-20 20h-44l60 101c4 7 0 18-10 23l-18 10c-9 6-21 4-25-3l-78-131h-110l-77 131c-5 7-16 9-26 3l-17-10c-10-5-14-16-10-23l60-101h-44c-12 0-20-9-20-20v-20c0-11 8-20 20-20h139v-99h-139c-12 0-20-9-20-20v-20c0-11 8-20 20-20h139v-100c0-11 9-20 20-20h20c11 0 20 9 20 20v100h140c11 0 20 9 20 20v20l0 0 0 0z m0 0" horiz-adv-x="1000" />

<glyph glyph-name="i-ico44" unicode="&#xe82c;" d="M898 710c-12 11-28 17-44 17-1 0-3-1-4-1-1 0-12 0-28 0-26 0-78 1-128 13-63 16-137 86-158 100-11 8-23 11-36 11-12 0-25-3-35-10-3-2-80-83-155-101-49-12-102-13-129-13-16 0-26 0-27 0-2 0-3 1-5 1-16 0-31-6-43-17-13-12-21-29-21-46v-157c0-578 388-653 404-655 4-1 8-1 11-1 4 0 8 0 12 1 16 2 406 77 406 655v157c0 17-7 34-20 46l0 0z m-387-418l1-1-49-44-170 185 49 43 125-135 268 247 45-47-269-248 0 0z m0 0" horiz-adv-x="1000" />

<glyph glyph-name="i-ico45" unicode="&#xe82d;" d="M960 147h-844c10 71 37 251 69 346 59 176 187 259 304 261 2-1 3-1 4-1 1 0 2 0 3 1 109-2 235-83 297-256 18-49 30-149 45-247 2-13 16-20 29-17 12 4 18 16 16 29-13 97-27 200-46 251-66 181-197 275-321 285v24c0 13-10 24-23 24-13 0-24-11-24-24v-24c-173-13-288-171-329-291-34-103-62-300-70-361h-43c-13 0-24-10-24-23s11-23 24-23h58c1-1 3-1 5-1 1 0 3 0 4 1h866c13 0 23 10 23 23s-10 23-23 23l0 0z m-311-144c-12 7-26 3-32-8-22-37-106-82-148-82-41 0-94 33-116 70-18 23-28 27-40 20-11-6-13-20-8-32 21-54 86-106 164-105 86-3 159 55 188 105 6 11 3 26-8 32l0 0z m0 0" horiz-adv-x="1000" />

<glyph glyph-name="i-ico46" unicode="&#xe82e;" d="M651-113l0 0c-18 0-35 7-46 19-15 17-63 60-103 60-39 0-88-43-102-59-11-12-28-19-46-19-8 0-16 2-23 5l-2 0-120 67-1 1c-22 15-30 45-19 69 0 1 11 26 11 49 0 70-57 127-127 127h-4c-1 0-1 0-1 0-20 0-36 17-42 45 0 2-10 54-10 95 0 41 10 94 10 96 6 28 22 46 43 45h4c70 0 127 57 127 127 0 23-11 48-11 48-11 24-2 54 19 69l2 1 126 70 1 0c8 3 15 5 24 5 17 0 34-7 46-19 15-16 62-56 100-56 38 0 85 39 100 55 11 11 28 18 46 18 8 0 16-1 23-4l2-1 122-68 1-1c22-15 30-45 19-69 0 0-11-25-11-48 0-70 57-127 127-127h5c20 1 37-17 42-45 1-2 10-55 10-96 0-41-9-93-10-95-5-28-22-46-42-45h-5c-70 0-127-57-127-127 0-23 11-48 11-49 11-24 3-54-19-69l-1-1-124-68-2-1c-7-3-15-4-23-4l0 0z m-4 58c1 0 3-1 4-1 0 0 0 0 0 0l116 64c-2 7-15 38-15 71 0 98 78 179 175 184 1 7 9 51 9 83s-8 76-9 84c-97 5-175 86-175 184 0 33 13 64 15 71l-114 63c0 0 0 0 0 0-2 0-4-1-5-1-1-2-18-19-42-36-35-24-68-37-99-37-30 0-64 13-99 38-24 17-41 34-43 36-1 1-2 1-4 1 0 0-1 0-1 0l-118-64c3-7 16-38 16-71 0-99-78-179-175-184-2-8-9-51-9-84 0-32 7-76 9-83 97-5 175-86 175-184 0-33-13-65-16-71l112-63c0 0 0 0 0 0 2 0 3 1 4 1 2 3 19 20 43 38 36 26 70 40 101 40 32 0 66-14 102-41 25-18 41-36 43-38l0 0z m-144 233c-94 0-170 76-170 169 0 93 76 169 170 169 93 0 169-76 169-169 0-93-76-169-169-169l0 0z m0 280c-62 0-112-50-112-111 0-61 50-111 112-111 61 0 111 50 111 111 0 61-50 111-111 111l0 0z m0 0" horiz-adv-x="1000" />

<glyph glyph-name="i-ico47" unicode="&#xe82f;" d="M818 459h-3c-18 0-32-5-47-14-12 37-44 63-85 63-18 0-35-5-50-14-12 37-44 64-85 64-16 0-31-4-44-11v95c0 53-39 95-90 95-52 0-93-42-93-95v-366l-57 58c-36 37-101 31-132 0-31-32-51-95-7-141l261-263c5-6 11-10 17-14 48-39 102-63 217-63 263 0 287 145 287 323v189c0 52-38 94-89 94l0 0z m40-283c0-151-1-273-238-273-101 0-161 23-207 69l-246 250c-22 22-16 50 2 68 17 19 50 19 67 2 0 0 44-44 81-82 28-28 53-53 53-53v476c0 24 20 44 44 44 24 0 41-20 41-44v-303h1c-1-2-1-3-1-5 0-14 11-25 25-25 13 0 24 11 24 25 0 2 0 3 0 5h0v124c0 25 18 45 42 45 0 0 43 0 43-45v-164h1c0-1-1-3-1-5 0-14 11-25 25-25s24 11 24 25c0 2 0 4 0 5h0v114c0 25 18 45 42 45 0 0 44-3 44-45v-144h1c-1-1-1-3-1-5 0-13 11-24 25-24 13 0 24 11 24 24 0 2 0 4-1 5h1v99c0 24 18 44 42 44 0 0 43 2 43-44v-183l0 0z m-574 326v83c-7 18-12 38-12 58 0 79 63 144 141 144 77 0 140-65 140-144 0-10-1-21-4-31 18-1 34-8 46-20 4 16 7 34 7 51 0 107-85 193-189 193-105 0-190-86-190-193 0-56 24-106 61-141l0 0z m0 0" horiz-adv-x="1000" />

<glyph glyph-name="i-ico48" unicode="&#xe830;" d="M663-120l-171 111-151-111-144 103-159-101v968h930v-967l-174 108m-352 598c-5-20-11-38-18-53h-218v-51h182c-37-39-97-74-182-105v-53c7 1 16 5 28 10 33 10 57 19 71 25v-23h72v-2c9-73-42-121-153-145v-49c166 24 245 90 237 196h148v-96c1-24-12-35-39-33h-44v-54h77c61-2 91 26 89 84v122c5-1 13-4 23-7 35-12 63-21 83-26v51c-76 24-133 59-171 105h171v51h-283c7 15 13 33 18 53h239v51h-80c10 19 18 43 23 74h-75c-4-27-11-52-21-74h-81c2 15 3 32 3 51v43h-88v-51-43h-73c-9 22-16 47-21 74h-78c9-34 17-59 24-74h-73v-51h210l0 0z m91-104c30-39 64-70 102-92h-265c52 25 90 56 116 92h47l0 0z m0 0" horiz-adv-x="1000" />

<glyph glyph-name="i-ico49" unicode="&#xe831;" d="M874 820l-372-372-372 372c-28 27-72 27-99 0-28-27-28-72 0-99l371-373-371-372c-28-28-28-72 0-99 27-28 71-28 99 0l372 372 372-372c27-28 71-28 99 0 27 27 27 71 0 99l-372 372 372 373c27 27 27 72 0 99-28 27-72 27-99 0l0 0z m0 0" horiz-adv-x="1000" />

<glyph glyph-name="i-ico50" unicode="&#xe832;" d="M503 537l-500-440h1000l-500 440" horiz-adv-x="1000" />

<glyph glyph-name="i-ico51" unicode="&#xe833;" d="M503 97l500 440h-1000l500-440" horiz-adv-x="1000" />

<glyph glyph-name="i-ico52" unicode="&#xe834;" d="M468 782h-109v65h282v-65h-108v-21h-66v21l1 0 0 0z m-87-86h238v65h-238l1-60-1-5z m347 43h65c55 0 110-33 108-87 0 0 0-595 1-626 5-71-58-134-131-133 0 0-542 9-542 0-73-3-132 59-130 131v607c-2 53 53 108 108 108h65v43h-65c-82 0-151-59-151-142v-617c0-95 77-173 172-173h544c95 0 172 78 172 173l0 629c0 83-69 130-151 130h-65v-43l0 0z m-22-455v65h-412v-65h412l0 0z m0 173v65h-412v-65h412l0 0z m0-347v65h-412v-65h412l0 0z m0 0" horiz-adv-x="1000" />

<glyph glyph-name="i-ico53" unicode="&#xe835;" d="M502 843c-274 0-495-221-495-495 0-273 221-495 495-495 273 0 495 222 495 495 0 274-222 495-495 495z m318-813c-42-41-90-74-143-96-56-24-115-36-175-36-61 0-120 12-175 36-54 22-102 55-143 96-42 42-74 90-97 143-23 56-35 115-35 175 0 61 12 120 35 175 23 54 55 102 97 143 41 42 89 74 143 97 55 23 114 35 175 35 60 0 119-12 175-35 53-23 101-55 143-97 41-41 74-89 96-143 24-55 36-114 36-175 0-60-12-119-36-175-22-53-55-101-96-143z m-505 474l44 43c-31 35-67 69-108 102l-43-41c46-36 82-71 107-104z m163-51h207c-14-39-33-75-56-108-32 26-66 52-103 77l-37-43c37-25 71-52 103-80-37-40-82-74-134-102l37-50c55 31 102 69 142 112 34-32 66-66 94-102l42 49c-31 36-64 69-100 101 31 45 55 96 72 154v43h-267l0 59c102 4 194 16 275 36l-30 52c-84-20-184-32-302-34v-149c-2-116-22-206-61-269l56-28c38 64 58 158 62 282z m133-326c-37 0-80 0-128 1-36 1-64 7-84 16-16 9-32 21-46 39l-9 9v244h-144v-57h87v-182c-26-13-55-46-87-98l45-42c33 58 56 87 69 87 8 0 16-5 24-16 20-23 42-38 67-45 27-7 61-11 101-11 54-1 92-2 114-2h147l15 61c-21-2-46-3-75-3-43-1-75-1-96-1z" horiz-adv-x="1000" />

<glyph glyph-name="i-ico54" unicode="&#xe836;" d="M498 843c-273 0-495-221-495-495 0-273 222-495 495-495 274 0 495 222 495 495 0 274-221 495-495 495z m318-813c-41-41-89-74-143-96-55-24-114-36-175-36-60 0-119 12-175 36-53 22-101 55-143 96-41 42-73 90-96 143-24 56-35 115-35 175 0 61 11 120 35 175 23 54 55 102 96 143 42 42 90 74 143 97 56 23 115 35 175 35 61 0 120-12 175-35 54-23 102-55 143-97 42-41 74-89 97-143 23-55 35-114 35-175 0-60-12-119-35-175-23-53-55-101-97-143z m-164 280c-15 9-30 16-46 23 49 32 81 87 81 150 0 102-85 185-190 185-104 0-188-83-188-184 0-62 32-118 81-150-111-43-189-139-189-261h66c0 121 82 213 202 227 1 0 33 2 61 0h2c22-3 42-9 61-17 18 12 37 21 59 27z m-155 36c-79 0-142 62-142 138 0 77 63 138 142 138 79 0 143-61 143-138 0-76-64-138-143-138z m362-168l-154 119c0 1-2 1-3 0-1 0-1 0-1-1v-80h-115c-9 0-17-6-20-14-1-1-1-2-1-3v-49c0-1 0-2 1-3 3-8 11-14 20-14h115v-80c0 0 0-1 1-1 1-1 3-1 3 0l154 119c2 1 2 2 2 4 0 1 0 2-2 3z" horiz-adv-x="1000" />

<glyph glyph-name="i-ico55" unicode="&#xe837;" d="M722 604h0-268c-25 0-45-20-45-45s20-45 45-45h160l-371-371c-18-18-18-46 0-64 8-8 20-13 31-13 12 0 23 5 32 13l372 372v-161c0-25 20-45 44-45 25 0 45 20 45 45v314h-45l0 0 0 0 0 0z m-224 190c61 0 119-12 174-35 53-23 100-55 141-96 41-41 73-88 96-141 23-55 35-114 35-174 0-60-12-118-35-173-23-53-55-101-96-141-41-41-88-74-141-96-55-23-113-35-174-35-60 0-118 12-173 35-53 22-101 55-141 96-41 40-73 88-96 141-23 55-35 113-35 173 0 61 12 119 35 174 23 53 55 100 96 141 40 41 88 73 141 96 55 23 113 35 173 35m0 44c-270 0-490-219-490-490 0-270 220-490 490-490 271 0 490 220 490 490 0 271-219 490-490 490l0 0 0 0z m0 0" horiz-adv-x="1000" />

<glyph glyph-name="i-ico56" unicode="&#xe838;" d="M279 90h0 269c25 0 45 21 45 45 0 25-20 45-45 45h-161l373 373c17 18 17 46 0 64-9 8-20 13-32 13-11 0-23-5-32-13l-372-373v161c0 25-21 45-45 45-25 0-45-20-45-45v-315h45l0 0 0 0 0 0z m224-190c-60 0-118 12-174 35-53 22-100 55-142 96-41 41-73 89-95 142-24 55-35 113-35 174s11 119 35 174c22 53 54 101 95 142 42 41 89 73 142 95 56 24 114 35 174 35 61 0 119-11 174-35 53-22 101-54 142-95 41-41 74-89 96-142 23-55 35-114 35-174s-12-119-35-174c-22-53-55-101-96-142-41-41-89-74-142-96-55-23-113-35-174-35m0-45c272 0 492 220 492 492 0 271-220 491-492 491-271 0-491-220-491-491 0-272 220-492 491-492l0 0 0 0z m0 0" horiz-adv-x="1000" />

<glyph glyph-name="i-ico57" unicode="&#xe839;" d="M502-147c-274 0-496 222-496 495 0 274 222 496 496 496 273 0 495-222 495-496 0-273-222-495-495-495z m146 681l-253-241-102 97-101-97 203-192 355 337-102 96z" horiz-adv-x="1000" />

<glyph glyph-name="i-ico58" unicode="&#xe83a;" d="M502 850c-277 0-502-225-502-502 0-277 225-501 502-501 277 0 501 224 501 501 0 277-224 502-501 502z m245-658l-90-89-155 156-157-156-89 90 156 156-156 156 90 89 156-156 156 156 89-90-156-156 156-156z" horiz-adv-x="1000" />

<glyph glyph-name="i-ico59" unicode="&#xe83b;" d="M500 848c-273 0-494-224-494-500 0-275 221-499 494-499 274 0 495 224 495 499 0 276-221 500-495 500z m235-373l-248-269c-7-8-16-11-26-11-9 0-18 3-25 11l-141 154c-14 15-14 39 0 54 13 15 36 15 50 0l116-127 224 242c13 15 36 15 50 0 14-15 14-39 0-54z" horiz-adv-x="1000" />

<glyph glyph-name="i-ico60" unicode="&#xe83c;" d="M502 848c-264 0-502-238-502-501 0-264 238-502 502-502s501 238 501 502c0 263-238 501-501 501z m0-936c-237 0-435 198-435 435 0 236 198 434 435 434 236 0 434-198 434-434 0-237-198-435-434-435z m234 468h-201v201c0 18-15 33-33 33-19 0-34-15-34-33v-201h-200c-19 0-34-15-34-33 0-19 15-34 34-34h200v-200c0-19 15-34 34-34 18 0 33 15 33 34v200h201c18 0 33 15 33 34 0 18-15 33-33 33z" horiz-adv-x="1000" />

<glyph glyph-name="i-ico61" unicode="&#xe83d;" d="M714 197c55 68 88 155 88 249 0 219-177 396-396 396-219 0-396-177-396-396 0-219 177-396 396-396 94 0 181 33 249 88l279-280 59 59-279 280z m-308-84c-184 0-333 149-333 333 0 184 149 333 333 333 184 0 333-149 333-333 0-184-149-333-333-333z" horiz-adv-x="1000" />

<glyph glyph-name="i-ico62" unicode="&#xe83e;" d="M502 844c-274 0-496-222-496-496 0-273 222-495 496-495 273 0 495 222 495 495 0 274-222 496-495 496z m62-774h-124v123h124v-123z m0 185h-124v403h124v-403z" horiz-adv-x="1000" />

<glyph glyph-name="i-ico63" unicode="&#xe83f;" d="M974-72l-94 0v365c0 70-54 129-116 129l-231-1h-73v128h73c0 0 0-38 0-73 0-15 9-18 19-18 11 0 18 4 18 18 0 42 0 73 0 73 0 21-18 37-37 37h-73c-26 0-36-13-36-37l0-127h-194c-62 0-117-59-117-129v-365l-93 0c-10 0-17-7-17-18 0-10 8-19 17-19h953c9 0 17 9 17 19 0 11-7 18-16 18z m-130 237c0 0 0 0 0 0h-201c-10 0-18-8-18-18 0-10 8-18 18-18h201c0 0 0 0 0 0v-201h-695v73c0 0 340 0 544 0 50 0 37 0 64 0 21 0 20 37-2 37-27 0-11 0-58 0-205 0-548 0-548 0v91c0 0 356 0 382 0 25 0 24 37-1 37-25 0-381 0-381 0v109l8-12c27-28 69-28 96 0l1 0c13 15 35 15 49 0 27-28 69-28 96 0 14 15 36 15 50 0l0 0c27-28 69-28 96 0 14 15 35 15 49 0 27-28 69-28 96 0l0 0c14 15 36 15 50 0 13-14 31-21 48-21 17 0 35 7 48 21l8 12v-110z m-32 126c-13-15-35-15-49 0-27 28-69 28-96 0l0 0c-14-15-36-15-50 0-27 28-69 28-96 0-14-15-35-15-49 0l0 0c-27 28-69 28-96 0-14-15-36-15-50 0-27 28-69 28-96 0l0 0c-14-15-35-15-49 0l-32 21c10 35 46 73 81 73h534c34 0 70-38 80-73l-32-21z m-315 323c19 0 38 9 51 24 29 33 29 85 0 117l-39 45c-7 7-18 7-24 0l-40-45c-29-32-29-84 0-117 14-15 32-24 52-24z m-28 114l28 31 27-31c16-17 16-45 0-62-7-9-17-13-27-13-11 0-21 4-28 13-15 17-15 45 0 62z" horiz-adv-x="1000" />

<glyph glyph-name="i-ico64" unicode="&#xe840;" d="M718 841h-436c-109 0-197-85-197-188v-458c0-17 5-28 22-28 18 0 23 6 23 23v471c0 70 83 135 157 135h426c75 0 157-65 157-135v-606c0-96-42-157-134-157h-449c-94 0-157 60-157 157 0 17-5 23-23 23-17 0-22-11-22-28 0-131 65-197 193-197h444c128 0 193 66 193 197v603c0 103-88 188-197 188z m40-157c-8 15-20 7-35-1-213-99-438-1-440 0-15 8-33 16-41 1-8-16 7-38 22-45 7-4 104-45 247-45 74 0 143 0 225 45 15 8 30 30 22 45z m-112-449c17 0 22 5 22 22 0 17-5 23-22 23h-90l90 134c9 14 14 36 0 45-14 10-35-8-45-22l-90-135-89 135c-10 14-17 31-32 21-14-9-23-30-13-44l89-134h-89c-18 0-22-6-22-23s4-22 22-22h112v-68h-112c-18 0-22-7-22-24s4-20 22-20h112v-90c0-17 5-23 22-23 17 0 23 6 23 23v90h112c17 0 22 5 22 22 0 17-5 22-22 22h-112v68h112z" horiz-adv-x="1000" />

<glyph glyph-name="i-ico65" unicode="&#xe841;" d="M726 365c0 13-11 25-25 25h-154l123 187c8 12 5 27-7 35s-26 5-34-7l-126-192-124 191c-9 11-24 15-35 6-12-6-15-23-7-34l119-186h-152c-13 0-25-12-25-25 0-13 12-25 25-25h172v-84h-172c-13 0-25-12-25-25s12-25 25-25h174v-142c0-14 11-25 25-25 15 0 26 10 25 25v142h173c14 0 25 12 25 25s-11 25-25 25h-175v84h175c14 0 25 12 25 25z m219 206c-7 13-23 18-35 11-13-6-18-23-12-35 90-174 57-382-81-520-174-174-457-174-630 0-174 174-174 457 0 631 173 174 456 174 630 0 10-10 27-10 37 0 10 10 10 27 0 37-194 194-509 194-702 0-194-194-194-509 0-703 96-97 223-145 351-145 127 0 253 48 351 145 154 153 190 386 91 579z" horiz-adv-x="1000" />

<glyph glyph-name="i-ico66" unicode="&#xe842;" d="M547 68c0 0 0 0 0 0-65 2-128 10-180 22-12 3-20 15-17 27 3 12 15 20 27 17 50-12 109-19 171-22 13 0 22-10 22-23-1-12-11-21-23-21z m116-13c-12 0-22 9-23 21 0 12 9 23 21 23 188 11 288 63 288 96 0 13 10 23 22 23 13 0 23-10 23-23 0-83-166-131-330-140-1 0-1 0-1 0z m-70 103c-49 0-96 3-142 9-12 1-21 13-19 25 1 12 12 21 25 19 97-12 207-10 300 4 12 2 24-6 25-18 2-13-6-24-18-26-53-8-111-13-171-13z m266 35c-10 0-19 6-22 16-3 12 3 24 15 28 72 22 97 49 97 64 0 38-134 96-343 99-13 0-23 10-22 23 0 12 10 23 22 22 193-3 388-54 388-144 0-30-23-74-129-107-2-1-4-1-6-1z m-704-247c-15 0-28 4-39 14-10 8-11 22-3 31 8 10 22 11 32 3 12-11 65 2 155 83 52 46 108 106 160 174 150 195 203 356 173 382-9 8-10 22-2 31 8 10 22 11 31 3 69-59-32-268-167-444-54-69-111-132-166-180-45-40-118-97-174-97z m-76 67c-20 0-33 7-41 14-68 59 33 268 168 443 122 158 254 269 330 277 25 3 40-6 49-14 32-28 30-88-8-179-5-11-18-17-29-12-12 5-17 18-12 29 35 85 29 121 20 128-3 3-8 4-16 4-53-6-173-97-299-260-150-195-203-357-174-382 3-3 9-4 16-3 53 5 173 96 299 260 33 43 64 87 90 130 6 11 20 14 31 8 10-7 13-20 7-31-27-45-58-90-93-135-121-158-254-269-329-277-3 0-6 0-9 0z m56-62c-5 0-10 2-15 6l-79 68c-9 8-11 22-3 31 8 10 22 11 32 3l79-68c10-8 11-23 3-32-5-5-11-8-17-8z m519 673c-5 0-10 2-15 5l-79 69c-9 8-10 22-2 31 8 10 22 11 31 3l79-69c10-8 11-22 3-31-5-5-11-8-17-8z m317-576c-12 0-22 10-22 23l0 223c0 13 10 23 22 23l0 0c12 0 22-10 22-23l0-223c0-13-10-23-22-23l0 0z m-378-102c-126 0-245 20-319 53-11 5-16 18-11 30 5 11 18 16 29 11 68-31 181-49 301-49 218 0 356 58 356 98 0 12 10 22 23 22 12 0 22-10 22-22 0-94-202-143-401-143z" horiz-adv-x="1000" />

<glyph glyph-name="i-ico67" unicode="&#xe843;" d="M504-143c-272 0-492 220-492 492 0 272 220 493 492 493 272 0 493-221 493-493 0-272-221-492-493-492z m5 899l-289-358h149v-426h277v426h146l-283 358z" horiz-adv-x="1000" />

<glyph glyph-name="i-ico68" unicode="&#xe844;" d="M995 488v195c0 18-14 32-31 32h-921c-17 0-32-14-32-32v-226c55-15 96-64 96-123 0-59-41-108-96-122v-195c0-18 15-32 32-32h921c17 0 31 14 31 32v226c-54 15-95 64-95 123 0 59 41 108 95 122z m-381-154h-63v-63c0-18-14-32-32-32s-31 14-31 32v63h-64c-17 0-32 14-32 32 0 17 15 32 32 32h64v63c0 18 14 32 31 32s32-14 32-32v-63h63c18 0 32-15 32-32 0-18-14-32-32-32z" horiz-adv-x="1000" />

<glyph glyph-name="i-ico69" unicode="&#xe845;" d="M906 535h-155v-62h155v-561h-809v561h156v62h-156c-34 0-62-28-62-62v-561c0-34 28-62 62-62h809c35 0 63 28 63 62v561c0 34-28 62-63 62z m-548 103l113 110v-462c0-17 14-31 31-31s31 14 31 31v455l101-103c13-12 33-12 45 0 13 12 13 31 1 44l-155 155c-9 10-23 12-35 7-7 0-14-3-20-9l-155-152c-12-12-13-32-1-44 12-12 32-13 44-1z" horiz-adv-x="1000" />

<glyph glyph-name="i-ico70" unicode="&#xe846;" d="M117 299l386 439 387-439c15-15 40-15 56 1 16 15 16 40 1 55l-415 467c-8 8-18 12-29 11-10 1-20-3-28-11l-415-467c-15-15-15-40 1-55 15-16 41-16 56-1z m415 99c-8 7-18 11-29 11-10 0-20-4-28-11l-415-468c-15-15-15-39 1-55 15-15 41-16 56-1l386 440 387-440c15-15 40-14 56 1 16 16 16 40 1 55l-415 468z" horiz-adv-x="1000" />

<glyph glyph-name="i-ico71" unicode="&#xe847;" d="M502-145c-275 0-497 222-497 497 0 274 222 496 497 496s496-222 496-496c0-275-222-497-496-497z m0 948c-250 0-452-202-452-451 0-250 202-452 452-452 249 0 451 202 451 452 0 249-202 451-451 451z m-271-394l52 50 156-201 327 306 52-50-379-357-208 252z" horiz-adv-x="1000" />

<glyph glyph-name="i-ico72" unicode="&#xe848;" d="M878 366l-342 342v-856h-69v856l-342-342-34 68 411 411 411-411-35-68z" horiz-adv-x="1000" />

<glyph glyph-name="i-ico73" unicode="&#xe849;" d="M503 853l-441-256v-493l441-257 442 257v493l-442 256z m401-719l-401-226-400 226v432l400 226 401-226v-432z m-657 288l20-41c34 18 55 31 83 51l-1-31h309v21c27-19 49-23 82-41l20 41c-110 39-152 122-226 205h-61c-68-78-108-156-226-205z m393 21l-270-1c53 40 94 104 133 152 40-48 85-113 137-151z m-311-329h41v20h267v-20h41v226h-349v-226z m41 185h267v-124h-267v124z" horiz-adv-x="1000" />

<glyph glyph-name="i-ico74" unicode="&#xe84a;" d="M212 216v-67l155 134-155 133v-67l59-44h-259v-45h259l-59-44z m711 178v155c0 72-62 134-134 134h-103l-53 155-510-155v-2c-62-12-111-72-111-136v-173l44 0v155c0 62 49 111 111 111h600c62 0 111-49 111-111v-133h-177c-36 0-68-35-68-71v-111c0-36 32-63 68-63h177v-133c0-63-49-111-111-111h-600c-62 0-111 48-111 111v155h-44v-180c0-73 58-131 130-131h647c72 0 134 61 134 133v156c36 0 66 27 66 63v111c0 36-30 71-66 71z m-612 289l288 89 38-89h-326z m634-445c0-29-16-44-44-44h-178c-29 0-45 15-45 44v67c0 29 16 44 45 44h178c28 0 44-15 44-44v-67z m-200 67c-19 0-36-14-36-33 0-19 17-34 36-34 19 0 33 15 33 34 0 19-14 33-33 33z" horiz-adv-x="1000" />

<glyph glyph-name="i-ico75" unicode="&#xe84b;" d="M452 625c-52 35-54 103-18 142 37 39 97 40 134 1 37-39 35-107-17-143 66-74 132-147 199-221 2 2 5 3 7 5 61 41 123 81 184 123 9 5 18 8 28 5 15-5 24-19 22-35-15-95-31-189-45-284-14-86-28-173-42-260-1-10-3-20-4-29-3-19-15-29-34-29-30 0-61 0-91 0-212 0-425 0-637 0-21 0-32 10-35 31-8 49-15 98-23 147-4 22 9 38 31 39 10 0 20 0 30 0 200 0 400 0 600 0 5 0 10-1 15-2 13-4 23-18 21-32-2-15-13-27-28-28-14-1-28 0-42 0-185 0-370 0-555 0-2 0-4 0-7 0 5-31 10-62 15-93 3 0 5 0 7 0 223 0 446 0 669 0 5 0 7 0 8 6 15 94 29 187 44 280 10 63 20 126 30 188 0 2 0 3 1 6-3-2-5-3-7-4-49-33-97-65-146-97-19-13-32-11-47 6-71 78-142 157-213 236-2 2-3 3-4 5-11-12-22-24-32-35-61-68-122-136-183-204-1-1-2-2-3-3-15-16-29-18-47-6-49 33-97 65-146 98-2 1-4 3-7 4 3-18 6-35 8-52 9-54 17-108 26-162 2-16-10-31-27-34-15-2-31 9-34 26-5 34-11 68-16 103-9 57-19 115-28 173-1 7-1 14 1 20 5 20 28 28 46 17 24-16 47-32 71-48 40-27 81-54 122-81 66 74 133 147 199 221z m50 48c17 0 30 14 30 31 0 17-14 31-30 31-17 0-31-14-31-31 0-17 14-31 31-31z" horiz-adv-x="1000" />

<glyph glyph-name="i-ico76" unicode="&#xe84c;" d="M500 333c276 0 484 101 484 235s-208 235-484 235-484-101-484-235 208-235 484-235z m0 387c227 0 396-80 396-152s-169-152-396-152-396 80-396 152 169 152 396 152z m0-537c-227 0-396 81-396 152h-88c0-134 208-235 484-235s484 101 484 235h-88c0-71-169-152-396-152l0 0z m0-207c-227 0-396 81-396 153h-88c0-135 208-236 484-236s484 101 484 236h-88c0-72-169-153-396-153l0 0z" horiz-adv-x="1000" />
</font>
</defs>
</svg>
